QalamBadi-BoldContrast.ufo
<glyph name="exclam" format="2">
  <advance width="434"/>
  <unicode hex="0021"/>
  <outline>
    <contour>
      <point x="151.72344817172424" y="1289.0007919845257" type="line" smooth="yes"/>
      <point x="98.6744101245839" y="1288.8629047783702"/>
      <point x="50.66789035357856" y="1256.0867614826957"/>
      <point x="51.13802031237248" y="1217.6031103711932" type="curve" smooth="yes"/>
      <point x="99.143533826872" y="510.6969024885312" type="line" smooth="yes"/>
      <point x="108.43383243918822" y="473.1211294294707"/>
      <point x="163.17330420393878" y="444.4002507212912"/>
      <point x="217.01469345607302" y="443.99999776437323" type="curve" smooth="yes"/>
      <point x="272.28606025514125" y="444.383476143642"/>
      <point x="325.32924887190813" y="473.92216717663194"/>
      <point x="333.8519144616195" y="510.6618347577226" type="curve" smooth="yes"/>
      <point x="382.8565007251711" y="1217.5761175773978" type="line" smooth="yes"/>
      <point x="383.33422438222357" y="1256.0895970664064"/>
      <point x="335.3255898754161" y="1288.8629047783702"/>
      <point x="282.2765518282758" y="1289.0007919845257" type="curve" smooth="yes"/>
    </contour>
    <contour>
      <point x="32.00609425282158" y="206.69689636652808" type="curve" smooth="yes"/>
      <point x="32.00609425282158" y="53.303103633471906" type="line" smooth="yes"/>
      <point x="41.226678884070985" y="-1.3108900906820313"/>
      <point x="118.43725594758268" y="-29.995482003020168"/>
      <point x="217.0" y="-30.0" type="curve" smooth="yes"/>
      <point x="315.5627440524173" y="-29.995482003020168"/>
      <point x="392.773321115929" y="-1.3108900906820313"/>
      <point x="401.9939057471784" y="53.303103633471906" type="curve" smooth="yes"/>
      <point x="401.9939057471784" y="206.69689636652808" type="line" smooth="yes"/>
      <point x="392.773321115929" y="261.310890090682"/>
      <point x="315.5627440524173" y="289.9954820030202"/>
      <point x="217.0" y="290.0" type="curve" smooth="yes"/>
      <point x="118.43725594758268" y="289.9954820030202"/>
      <point x="41.226678884070985" y="261.310890090682"/>
    </contour>
  </outline>
</glyph>
<glyph name="numbersign" format="2">
  <advance width="1292"/>
  <unicode hex="0023"/>
  <outline>
    <contour>
      <point x="870.0143558987547" y="1180.8646310394538" type="curve" smooth="yes"/>
      <point x="801.1061570343148" y="916.6066650871953" type="line" smooth="yes"/>
      <point x="803.4605101667314" y="899.7940448643326"/>
      <point x="804.1146937422694" y="883.1171508919691"/>
      <point x="799.5229317566518" y="885.0013905064578" type="curve" smooth="yes"/>
      <point x="633.4326904930679" y="885.0032709496548" type="line" smooth="yes"/>
      <point x="612.3096252179851" y="882.7500904031201"/>
      <point x="644.265936088754" y="903.6219968141518"/>
      <point x="656.038208081222" y="906.630625734744" type="curve" smooth="yes"/>
      <point x="716.2246188962783" y="1136.616208920449" type="line" smooth="yes"/>
      <point x="723.1250215225626" y="1192.02997886373"/>
      <point x="646.6795305109675" y="1228.4883258749646"/>
      <point x="588.259309750491" y="1229.0006963055212" type="curve" smooth="yes"/>
      <point x="549.8512253675317" y="1228.8350711480957"/>
      <point x="496.17526646734933" y="1212.1255889883666"/>
      <point x="476.0143558987547" y="1180.8646310394538" type="curve" smooth="yes"/>
      <point x="407.10615703431483" y="916.6066650871953" type="line" smooth="yes"/>
      <point x="409.4605101667315" y="899.7940448643326"/>
      <point x="410.1146937422693" y="883.1171508919691"/>
      <point x="405.4944355411624" y="885.0011826397906" type="curve" smooth="yes"/>
      <point x="224.82400415392925" y="885.0003207459299" type="line" smooth="yes"/>
      <point x="158.52472512275222" y="884.7685665483209"/>
      <point x="104.87076156450203" y="848.0521289176663"/>
      <point x="102.0" y="793.0" type="curve" smooth="yes"/>
      <point x="104.87076156450203" y="737.9478710823337"/>
      <point x="158.52472512275222" y="701.2314334516791"/>
      <point x="224.79073571968937" y="700.9995465299738" type="curve" smooth="yes"/>
      <point x="368.36875043268685" y="700.9956967447322" type="line" smooth="yes"/>
      <point x="389.4092180508441" y="703.2499091379941"/>
      <point x="357.45290658701396" y="682.3780028260358"/>
      <point x="345.732568390522" y="679.2696003017071" type="curve" smooth="yes"/>
      <point x="305.9493544402217" y="527.6881642910175" type="line" smooth="yes"/>
      <point x="308.34115702886277" y="510.79404490248845"/>
      <point x="308.9953395817744" y="494.1171509656472"/>
      <point x="304.44011784070005" y="496.0016816669568" type="curve" smooth="yes"/>
      <point x="154.79720092165044" y="496.0004258826068" type="line" smooth="yes"/>
      <point x="88.52472512275223" y="495.7685665483208"/>
      <point x="34.87076156450204" y="459.05212891766627"/>
      <point x="32.0" y="404.0" type="curve" smooth="yes"/>
      <point x="34.87076156450204" y="348.94787108233373"/>
      <point x="88.52472512275223" y="312.2314334516792"/>
      <point x="154.75171880674276" y="311.9993616646538" type="curve" smooth="yes"/>
      <point x="267.4143795005137" y="311.9932109151768" type="line" smooth="yes"/>
      <point x="288.2898274881666" y="314.2499106881326"/>
      <point x="256.33351802772756" y="293.37800404149976"/>
      <point x="244.5570315802268" y="290.37760380117135" type="curve" smooth="yes"/>
      <point x="181.7802086764911" y="50.372136484944996" type="line" smooth="yes"/>
      <point x="174.87500002867185" y="-5.029955590733012"/>
      <point x="251.32046948903243" y="-41.48832587496463"/>
      <point x="309.7406902495091" y="-42.00069630552123" type="curve" smooth="yes"/>
      <point x="348.1487746324683" y="-41.835071148095665"/>
      <point x="401.82474242827715" y="-25.125593928751147"/>
      <point x="421.988405822377" y="6.130041964243147" type="curve" smooth="yes"/>
      <point x="493.49136959999004" y="280.3974845255012" type="line" smooth="yes"/>
      <point x="491.13894860252987" y="297.20595520379254"/>
      <point x="490.4847632011584" y="313.8828492395784"/>
      <point x="495.07652507642814" y="311.9986094938911" type="curve" smooth="yes"/>
      <point x="661.1667967281337" y="311.9967290513171" type="line" smooth="yes"/>
      <point x="682.2898676674993" y="314.24990810456774"/>
      <point x="650.3335548680762" y="293.37800201572696"/>
      <point x="638.5570590120561" y="290.3776069347992" type="curve" smooth="yes"/>
      <point x="575.7802098751611" y="50.3721381873103" type="line" smooth="yes"/>
      <point x="568.8749998466192" y="-5.029955787329655"/>
      <point x="645.3204694890325" y="-41.48832587496463"/>
      <point x="703.740690249509" y="-42.00069630552123" type="curve" smooth="yes"/>
      <point x="742.1487746324683" y="-41.835071148095665"/>
      <point x="795.8247421182692" y="-25.125593756581257"/>
      <point x="815.9884045856355" y="6.130040313487108" type="curve" smooth="yes"/>
      <point x="887.4913946480987" y="280.3974838950577" type="line" smooth="yes"/>
      <point x="885.1389744143884" y="297.2059550420605"/>
      <point x="884.4847933476294" y="313.88284892727853"/>
      <point x="889.1004335491261" y="311.99878481467505" type="curve" smooth="yes"/>
      <point x="1067.1779605790352" y="311.99967205270656" type="line" smooth="yes"/>
      <point x="1133.4752748772478" y="312.2314334516792"/>
      <point x="1187.1292384354979" y="348.94787108233373"/>
      <point x="1190.0" y="404.0" type="curve" smooth="yes"/>
      <point x="1187.1292384354979" y="459.05212891766627"/>
      <point x="1133.4752748772478" y="495.7685665483208"/>
      <point x="1067.212047816819" y="496.0004656141574" type="curve" smooth="yes"/>
      <point x="926.2195409538194" y="496.0044536477466" type="line" smooth="yes"/>
      <point x="905.1902387362649" y="493.75009086200595"/>
      <point x="937.1465502000954" y="514.6219971739641"/>
      <point x="948.8668883965875" y="517.7303996982929" type="curve" smooth="yes"/>
      <point x="988.6501023468876" y="669.3118357089825" type="line" smooth="yes"/>
      <point x="986.2582997582466" y="686.2059550975114"/>
      <point x="985.604117205335" y="702.8828490343527"/>
      <point x="990.1527551208327" y="700.9982629308074" type="curve" smooth="yes"/>
      <point x="1137.2054122089442" y="700.9995630712453" type="line" smooth="yes"/>
      <point x="1203.4752748772478" y="701.2314334516791"/>
      <point x="1257.1292384354979" y="737.9478710823337"/>
      <point x="1260.0" y="793.0" type="curve" smooth="yes"/>
      <point x="1257.1292384354979" y="848.0521289176663"/>
      <point x="1203.4752748772478" y="884.7685665483209"/>
      <point x="1137.252209151076" y="885.0006586932932" type="curve" smooth="yes"/>
      <point x="1027.1673884555482" y="885.0070890644006" type="line" smooth="yes"/>
      <point x="1006.3096252179851" y="882.7500904031201"/>
      <point x="1038.265936088754" y="903.6219968141518"/>
      <point x="1050.038208081222" y="906.630625734744" type="curve" smooth="yes"/>
      <point x="1110.2246188962783" y="1136.616208920449" type="line" smooth="yes"/>
      <point x="1117.1250215225625" y="1192.02997886373"/>
      <point x="1040.6795305109677" y="1228.4883258749646"/>
      <point x="982.259309750491" y="1229.0006963055212" type="curve" smooth="yes"/>
      <point x="943.8512253675317" y="1228.8350711480957"/>
      <point x="890.1752664673493" y="1212.1255889883666"/>
    </contour>
    <contour>
      <point x="594.6501095023189" y="669.3118365146213" type="line" smooth="yes"/>
      <point x="592.2583059237" y="686.2059553094134"/>
      <point x="591.6041176915606" y="702.8828494435294"/>
      <point x="596.195879235363" y="700.9986094932148" type="curve" smooth="yes"/>
      <point x="762.2861205465365" y="700.9967290502934" type="line" smooth="yes"/>
      <point x="783.4091875332662" y="703.2499091379941"/>
      <point x="751.4528760694359" y="682.3780028260358"/>
      <point x="739.7325378729438" y="679.2696003017071" type="curve" smooth="yes"/>
      <point x="699.9493239226437" y="527.6881642910175" type="line" smooth="yes"/>
      <point x="702.3411265112846" y="510.7940449024885"/>
      <point x="702.9953090641964" y="494.1171509656472"/>
      <point x="698.4035470444387" y="496.00139050686323" type="curve" smooth="yes"/>
      <point x="532.3133361719578" y="496.0032709505054" type="line" smooth="yes"/>
      <point x="511.1902805718986" y="493.75008783554597"/>
      <point x="543.1465881243433" y="514.6219948009149"/>
      <point x="554.8669153223898" y="517.7304033735702" type="curve" smooth="yes"/>
    </contour>
  </outline>
</glyph>
<glyph name="dollar" format="2">
  <advance width="1040"/>
  <unicode hex="0024"/>
  <outline>
    <contour>
      <point x="31.686253492901557" y="816.9239393900169" type="curve" smooth="yes"/>
      <point x="35.08528088848051" y="687.8571473463999"/>
      <point x="121.90011643562838" y="612.0847801776656"/>
      <point x="222.78558933243326" y="573.5287382475102" type="curve" smooth="yes"/>
      <point x="379.26853562086916" y="513.1885207267201"/>
      <point x="588.6907209487499" y="523.1074974682627"/>
      <point x="690.888115486942" y="481.2124452364836" type="curve" smooth="yes"/>
      <point x="740.9960143235517" y="462.181596860938"/>
      <point x="748.2110528259667" y="438.59462406651005"/>
      <point x="744.6869824216041" y="388.1295179605982" type="curve" smooth="yes"/>
      <point x="750.4275312487883" y="298.6280439395351"/>
      <point x="706.4646248485893" y="239.19120627723726"/>
      <point x="543.7569538443045" y="240.00005232348926" type="curve" smooth="yes"/>
      <point x="420.8644931732117" y="239.8035098623821"/>
      <point x="307.82634331479903" y="274.4819975008748"/>
      <point x="209.84235978224987" y="334.2155848150399" type="curve" smooth="yes"/>
      <point x="160.53255377511184" y="354.05504647165384"/>
      <point x="80.37523733827919" y="345.31938422409075"/>
      <point x="40.05358840353726" y="289.9084844645054" type="curve" smooth="yes"/>
      <point x="10.167465507633445" y="236.50295569636555"/>
      <point x="34.905904707495836" y="185.3083446866178"/>
      <point x="89.03421652356815" y="161.51903267033788" type="curve" smooth="yes"/>
      <point x="192.07663606268574" y="105.63986292688207"/>
      <point x="313.00233254793324" y="71.72458724826839"/>
      <point x="391.701718329488" y="64.2182256127935" type="curve" smooth="yes"/>
      <point x="396.32519931265693" y="65.16003259903144"/>
      <point x="388.46461616524317" y="46.32332760162735"/>
      <point x="384.6886267954733" y="31.042737205765263" type="curve" smooth="yes"/>
      <point x="384.68644423253306" y="-159.9069358814957" type="line" smooth="yes"/>
      <point x="388.8131305780188" y="-210.48467960967017"/>
      <point x="446.7995153558817" y="-244.88521187182963"/>
      <point x="514.685869776738" y="-245.0" type="curve" smooth="yes"/>
      <point x="582.5722241975943" y="-244.88521187182963"/>
      <point x="640.5586089754571" y="-210.48467960967017"/>
      <point x="644.6852736136985" y="-159.90519387551936" type="curve" smooth="yes"/>
      <point x="644.6826431877648" y="26.474529735382234" type="line" smooth="yes"/>
      <point x="640.9807943092552" y="40.868890872302764"/>
      <point x="629.2671148610294" y="58.919006926278016"/>
      <point x="635.0080442740206" y="56.711398322323646" type="curve" smooth="yes"/>
      <point x="855.3294185059726" y="66.35601988207934"/>
      <point x="1013.8505294106512" y="201.57843504748067"/>
      <point x="1018.6858223374117" y="388.0267439417661" type="curve" smooth="yes"/>
      <point x="1015.0288204028644" y="535.4174218761285"/>
      <point x="915.915202601097" y="616.2230177345128"/>
      <point x="804.0463371899932" y="656.6805795813397" type="curve" smooth="yes"/>
      <point x="642.5471657503953" y="713.835040777337"/>
      <point x="437.5225968658554" y="703.8969842111055"/>
      <point x="343.8971860625016" y="743.7430054827374" type="curve" smooth="yes"/>
      <point x="302.4388948852005" y="759.5704250455708"/>
      <point x="302.4286172759064" y="778.7278900083043"/>
      <point x="305.6824322830781" y="816.7723524622543" type="curve" smooth="yes"/>
      <point x="298.683613714521" y="908.6749928484872"/>
      <point x="346.47444813744784" y="955.6963746625572"/>
      <point x="478.61862959768166" y="954.9999531823304" type="curve" smooth="yes"/>
      <point x="594.0816229899558" y="955.1704063197024"/>
      <point x="696.7573485618739" y="925.3549356766189"/>
      <point x="793.6131591248009" y="871.3992348538068" type="curve" smooth="yes"/>
      <point x="845.0986330397093" y="852.6967589278123"/>
      <point x="924.9581944901778" y="863.4137284975169"/>
      <point x="961.3440278765046" y="919.8218756941613" type="curve" smooth="yes"/>
      <point x="989.3654992902174" y="974.0078289146849"/>
      <point x="962.6534777265033" y="1024.9264889982085"/>
      <point x="907.6914425700885" y="1047.7918023462476" type="curve" smooth="yes"/>
      <point x="811.5066344117805" y="1095.4867668393929"/>
      <point x="702.0943359449442" y="1123.9419940833232"/>
      <point x="634.081309664519" y="1130.5980626071412" type="curve" smooth="yes"/>
      <point x="630.5813808677995" y="1129.354754006919"/>
      <point x="641.1432496962194" y="1147.0674473715624"/>
      <point x="644.6829658914767" y="1159.9270137900792" type="curve" smooth="yes"/>
      <point x="644.6852764823573" y="1346.9054222453128" type="line" smooth="yes"/>
      <point x="640.5586089754571" y="1397.4846796096701"/>
      <point x="582.5722241975943" y="1431.8852118718296"/>
      <point x="514.685869776738" y="1432.0" type="curve" smooth="yes"/>
      <point x="446.7995153558817" y="1431.8852118718296"/>
      <point x="388.8131305780188" y="1397.4846796096701"/>
      <point x="384.68650728468714" y="1346.9019615357442" type="curve" smooth="yes"/>
      <point x="384.68934857449096" y="1168.550910455822" type="line" smooth="yes"/>
      <point x="388.3980882213951" y="1154.078597535111"/>
      <point x="399.82195116548644" y="1135.980335485851"/>
      <point x="394.21155613989214" y="1138.103057342789" type="curve" smooth="yes"/>
      <point x="218.65068514341974" y="1129.8162300119213"/>
      <point x="38.29549500172686" y="1013.7607053233523"/>
    </contour>
  </outline>
</glyph>
<glyph name="ampersand" format="2">
  <advance width="1119"/>
  <unicode hex="0026"/>
  <outline>
    <contour>
      <point x="139.00041497365882" y="919.920902111252" type="curve" smooth="yes"/>
      <point x="139.99081117909788" y="811.4016590078795"/>
      <point x="179.74850087153024" y="725.9995783347471"/>
      <point x="219.91130840242596" y="680.7763078747536" type="curve" smooth="yes"/>
      <point x="230.2490414042197" y="679.7765929120714"/>
      <point x="236.19780370112082" y="653.7882839595875"/>
      <point x="224.08070595488053" y="654.2014924592752" type="curve" smooth="yes"/>
      <point x="131.27078068425837" y="590.9963321510093"/>
      <point x="34.893962557585795" y="478.46785479853617"/>
      <point x="32.000041822524125" y="320.02511084371235" type="curve" smooth="yes"/>
      <point x="36.155194017933994" y="129.0993168831996"/>
      <point x="198.43379433666553" y="-40.40171655608706"/>
      <point x="450.8761198386434" y="-42.00015891223421" type="curve" smooth="yes"/>
      <point x="594.8662818588184" y="-41.39021986914602"/>
      <point x="720.5487198274484" y="22.298684145242884"/>
      <point x="783.0705433827469" y="86.23324261093893" type="curve" smooth="yes"/>
      <point x="787.0319028482709" y="96.48611483026787"/>
      <point x="751.8252758742756" y="96.85025349200342"/>
      <point x="756.1331749202814" y="86.76093456411816" type="curve" smooth="yes"/>
      <point x="844.9555303064179" y="-9.406610073180369" type="line" smooth="yes"/>
      <point x="888.7939542855188" y="-41.03248057067497"/>
      <point x="958.2040962682481" y="-42.4951777364767"/>
      <point x="1013.4909876299658" y="-17.49469836324994" type="curve" smooth="yes"/>
      <point x="1077.3816486653552" y="11.337826025692873"/>
      <point x="1096.2129787027748" y="65.21484238968921"/>
      <point x="1052.488241092748" y="103.58542001229051" type="curve" smooth="yes"/>
      <point x="929.5250487665007" y="237.61817144389738" type="line" smooth="yes"/>
      <point x="924.052357474823" y="248.70577197652807"/>
      <point x="923.9229400213343" y="275.6823110154234"/>
      <point x="928.8867766679817" y="289.39483865043064" type="curve" smooth="yes"/>
      <point x="963.9373622723843" y="346.6314749848566"/>
      <point x="1009.9806856136935" y="462.79058789199826"/>
      <point x="1045.7225104080321" y="585.4573554866189" type="curve" smooth="yes"/>
      <point x="1060.7787231030475" y="633.2164914854591"/>
      <point x="1024.4076514141398" y="682.8083937299021"/>
      <point x="942.1544360982439" y="692.8067465251169" type="curve" smooth="yes"/>
      <point x="875.600818678624" y="701.1201621791112"/>
      <point x="808.3788366170259" y="682.8413273940768"/>
      <point x="785.2533651155651" y="633.1691833327759" type="curve" smooth="yes"/>
      <point x="761.196627362456" y="543.458420750295"/>
      <point x="732.3273083105448" y="456.45538401414944"/>
      <point x="711.5679776524327" y="414.36427437535053" type="curve" smooth="yes"/>
      <point x="732.9166763126847" y="428.7240621919752"/>
      <point x="762.2018166854627" y="429.23114452598185"/>
      <point x="770.5088489945667" y="412.4323650023347" type="curve" smooth="yes"/>
      <point x="496.35903036319087" y="712.4615689511618" type="line" smooth="yes"/>
      <point x="436.8563777031641" y="780.7476702768589"/>
      <point x="411.44445268939876" y="836.8250837176067"/>
      <point x="412.99948084828986" y="919.9115289185391" type="curve" smooth="yes"/>
      <point x="409.7654372209485" y="1020.5842421382437"/>
      <point x="450.51775193899266" y="1103.09303586859"/>
      <point x="551.6223355506282" y="1100.9985229796982" type="curve" smooth="yes"/>
      <point x="626.6145560000427" y="1101.2711094367962"/>
      <point x="686.4251781283054" y="1076.9874318631737"/>
      <point x="748.1388279417015" y="1033.3703611658332" type="curve" smooth="yes"/>
      <point x="795.5722479004892" y="1012.4057026861483"/>
      <point x="877.7561094449654" y="1016.8483543092775"/>
      <point x="920.8142278319068" y="1071.6677937604654" type="curve" smooth="yes"/>
      <point x="953.9864598991034" y="1126.0163870110468"/>
      <point x="932.6085361478449" y="1174.7444824389524"/>
      <point x="881.8774182972475" y="1199.0271517956517" type="curve" smooth="yes"/>
      <point x="789.3022270000423" y="1254.0864461818912"/>
      <point x="673.3767056985231" y="1288.7688002622012"/>
      <point x="552.821400314612" y="1289.0003303070523" type="curve" smooth="yes"/>
      <point x="311.78876277766295" y="1287.4556734693354"/>
      <point x="143.33078979266318" y="1123.065526897034"/>
    </contour>
    <contour>
      <point x="599.3110799411576" y="259.47013143526755" type="line" smooth="yes"/>
      <point x="603.4769232364797" y="254.06464343962207"/>
      <point x="602.947701614171" y="231.84932937468355"/>
      <point x="599.3050105719639" y="225.6529519271913" type="curve" smooth="yes"/>
      <point x="572.3228108008178" y="187.01186972720745"/>
      <point x="522.6116842368311" y="145.19836588881327"/>
      <point x="450.87049010506587" y="146.00017368405102" type="curve" smooth="yes"/>
      <point x="351.27351218070055" y="144.4888800356713"/>
      <point x="301.37387501835866" y="212.5701241453407"/>
      <point x="305.99911679034074" y="320.11539435827734" type="curve" smooth="yes"/>
      <point x="303.84932240842187" y="412.12793370054226"/>
      <point x="336.3610310232213" y="472.6765651963366"/>
      <point x="383.7337537073622" y="509.8948154670747" type="curve" smooth="yes"/>
      <point x="384.88600828849735" y="521.158352629669"/>
      <point x="373.4901693078719" y="518.6854480580806"/>
      <point x="373.96028891036514" y="505.74859793663387" type="curve" smooth="yes"/>
    </contour>
  </outline>
</glyph>
<glyph name="quotesingle" format="2">
  <advance width="409"/>
  <unicode hex="0027"/>
  <outline>
    <contour>
      <point x="122.41477576240905" y="1289.0005082700013" type="line" smooth="yes"/>
      <point x="69.65273909921012" y="1288.9012993323634"/>
      <point x="20.23773258033752" y="1256.1767753461857"/>
      <point x="22.06354866519846" y="1216.531440352074" type="curve" smooth="yes"/>
      <point x="77.09208659836754" y="766.6443639780108" type="line" smooth="yes"/>
      <point x="88.77287964807374" y="726.4515397413277"/>
      <point x="145.76537560055962" y="695.5304665593671"/>
      <point x="204.63632365591434" y="695.0" type="curve" smooth="yes"/>
      <point x="264.58258967887815" y="695.5140270916024"/>
      <point x="320.85018165645397" y="726.7844737020702"/>
      <point x="332.1816923983855" y="766.6395444066882" type="curve" smooth="yes"/>
      <point x="387.2090986466302" y="1216.531440352074" type="line" smooth="yes"/>
      <point x="389.03491473149114" y="1256.1767753461857"/>
      <point x="339.61990821261855" y="1288.9012993323634"/>
      <point x="286.8578715494196" y="1289.0005082700013" type="curve" smooth="yes"/>
    </contour>
  </outline>
</glyph>
<glyph name="parenleft" format="2">
  <advance width="709"/>
  <unicode hex="0028"/>
  <outline>
    <contour>
      <point x="21.000000006262468" y="517.0003072763692" type="curve" smooth="yes"/>
      <point x="24.344086422913897" y="87.47759503090606"/>
      <point x="290.5348023225468" y="-217.84669055180268"/>
      <point x="524.625976916448" y="-354.05526907304693" type="curve" smooth="yes"/>
      <point x="588.8298321838805" y="-373.9885704387942"/>
      <point x="656.1604096527352" y="-345.9004158095491"/>
      <point x="683.4255001177745" y="-313.26835289736005" type="curve" smooth="yes"/>
      <point x="706.8580649465888" y="-280.5378910480688"/>
      <point x="714.8206036103195" y="-229.25857222651155"/>
      <point x="669.6023896359667" y="-203.05562917138144" type="curve" smooth="yes"/>
      <point x="477.9762777318447" y="-75.19760652530454"/>
      <point x="285.76447784869106" y="152.56337265754914"/>
      <point x="288.9999999875756" y="517.0004328068997" type="curve" smooth="yes"/>
      <point x="285.80289781333215" y="881.4757925193726"/>
      <point x="478.221407418746" y="1113.2687306630567"/>
      <point x="669.6006610714974" y="1241.0562814688874" type="curve" smooth="yes"/>
      <point x="714.8206036103195" y="1267.2585722265114"/>
      <point x="706.8580649465888" y="1318.537891048069"/>
      <point x="683.4255001177745" y="1351.26835289736" type="curve" smooth="yes"/>
      <point x="656.1604096527352" y="1383.900415809549"/>
      <point x="588.8298321838805" y="1411.9885704387943"/>
      <point x="524.6235912471313" y="1392.0560069578519" type="curve" smooth="yes"/>
      <point x="290.3340939963794" y="1255.7835638591735"/>
      <point x="24.309924911873022" y="946.4906451243478"/>
    </contour>
  </outline>
</glyph>
<glyph name="parenright" format="2">
  <advance width="709"/>
  <unicode hex="0029"/>
  <outline>
    <contour>
      <point x="46.48466419047857" y="1351.26835289736" type="curve" smooth="yes"/>
      <point x="23.052099361664208" y="1318.537891048069"/>
      <point x="15.089560697933525" y="1267.2585722265114"/>
      <point x="60.30950323675576" y="1241.0562814688874" type="curve" smooth="yes"/>
      <point x="251.688756889507" y="1113.2687306630567"/>
      <point x="444.10726649492085" y="881.4757925193726"/>
      <point x="440.9101643206775" y="517.0004328068997" type="curve" smooth="yes"/>
      <point x="444.14568645956194" y="152.56337265754914"/>
      <point x="251.93388657640838" y="-75.19760652530454"/>
      <point x="60.30777467228641" y="-203.05562917138144" type="curve" smooth="yes"/>
      <point x="15.089560697933532" y="-229.25857222651155"/>
      <point x="23.052099361664208" y="-280.5378910480688"/>
      <point x="46.484664190478554" y="-313.26835289736005" type="curve" smooth="yes"/>
      <point x="73.74975465551793" y="-345.9004158095491"/>
      <point x="141.08033212437257" y="-373.9885704387942"/>
      <point x="205.28418739180498" y="-354.05526907304693" type="curve" smooth="yes"/>
      <point x="439.37536198570626" y="-217.84669055180265"/>
      <point x="705.5660778853392" y="87.47759503090606"/>
      <point x="708.9101643019907" y="517.0003072763692" type="curve" smooth="yes"/>
      <point x="705.6002393963801" y="946.4906451243478"/>
      <point x="439.57607031187365" y="1255.7835638591735"/>
      <point x="205.28657306112174" y="1392.0560069578519" type="curve" smooth="yes"/>
      <point x="141.08033212437257" y="1411.9885704387943"/>
      <point x="73.74975465551793" y="1383.900415809549"/>
    </contour>
  </outline>
</glyph>
<glyph name="asterisk" format="2">
  <advance width="1200"/>
  <unicode hex="002A"/>
  <outline>
    <contour>
      <point x="1048.3466246135433" y="627.3958022537214" type="line" smooth="yes"/>
      <point x="1128.0291634834405" y="642.4539017499283"/>
      <point x="1180.7288334840898" y="700.7715814801364"/>
      <point x="1158.2290688695532" y="771.1160917064202" type="curve" smooth="yes"/>
      <point x="1125.6445795718178" y="840.5774579143172"/>
      <point x="1034.2567039292614" y="867.9649594765627"/>
      <point x="956.4092185300159" y="842.1737604419308" type="curve" smooth="yes"/>
      <point x="669.7100474211113" y="711.7303052743729" type="line" smooth="yes"/>
      <point x="648.8715301662337" y="720.8021076833827"/>
      <point x="686.1700165146194" y="722.2881296076463"/>
      <point x="716.3766788429594" y="719.0541868840752" type="curve" smooth="yes"/>
      <point x="752.7056345663253" y="1027.630803320545" type="line" smooth="yes"/>
      <point x="756.3924069802257" y="1093.0738049242382"/>
      <point x="690.5021403054615" y="1146.1174652480122"/>
      <point x="600.0864700030952" y="1147.0000004614728" type="curve" smooth="yes"/>
      <point x="509.8327847176879" y="1146.1403731294404"/>
      <point x="442.7716221452552" y="1093.0671474320377"/>
      <point x="447.46061726616097" y="1027.610353348524" type="curve" smooth="yes"/>
      <point x="483.1422302972328" y="719.1042611706588" type="line" smooth="yes"/>
      <point x="513.2430981755617" y="722.3555229794824"/>
      <point x="550.607406429965" y="720.8087947894277"/>
      <point x="529.7904266000768" y="711.7590644919774" type="curve" smooth="yes"/>
      <point x="243.78724054080652" y="842.1676711193293" type="line" smooth="yes"/>
      <point x="165.89405109862378" y="867.9656669421018"/>
      <point x="73.51341937447089" y="840.5783694624529"/>
      <point x="41.936347394651165" y="771.1062690615386" type="curve" smooth="yes"/>
      <point x="18.38573841386511" y="700.9992792649399"/>
      <point x="71.09524092681377" y="642.4394991324359"/>
      <point x="150.8324391179486" y="627.3944480694245" type="curve" smooth="yes"/>
      <point x="457.64765140836266" y="565.4480292203385" type="line" smooth="yes"/>
      <point x="496.95999452362963" y="558.5639144679242"/>
      <point x="482.45967103016443" y="555.3833202252079"/>
      <point x="439.7969896431302" y="553.2076535475602" type="curve" smooth="yes"/>
      <point x="220.51676297285337" y="311.4839408053011" type="line" smooth="yes"/>
      <point x="168.51278225469983" y="262.57101585462425"/>
      <point x="178.22420004089463" y="194.72751695475216"/>
      <point x="249.14461067084056" y="150.78026638948847" type="curve" smooth="yes"/>
      <point x="327.3011309343522" y="108.73787007423952"/>
      <point x="423.12990921874734" y="128.44639846747114"/>
      <point x="468.99930907170443" y="184.0765851533577" type="curve" smooth="yes"/>
      <point x="628.2020232964861" y="462.4087852594508" type="line" smooth="yes"/>
      <point x="623.0116759038459" y="454.9191158641726"/>
      <point x="576.4684062204279" y="454.9222815607821"/>
      <point x="571.351950129595" y="462.4200997584367" type="curve" smooth="yes"/>
      <point x="731.1326955692422" y="184.08887714325297" type="line" smooth="yes"/>
      <point x="775.706500075149" y="128.55953370900008"/>
      <point x="872.7381074717406" y="107.72512771585201"/>
      <point x="951.220167357186" y="150.8333953551542" type="curve" smooth="yes"/>
      <point x="1021.1584031413944" y="193.87991853212867"/>
      <point x="1030.6970539005029" y="262.4603682322472"/>
      <point x="978.644783900067" y="311.4851227954324" type="curve" smooth="yes"/>
      <point x="759.4745465473081" y="553.0838078862399" type="line" smooth="yes"/>
      <point x="716.8250930192846" y="555.254592476482"/>
      <point x="702.3296011922533" y="558.4708807375213"/>
      <point x="741.6435545630068" y="565.3446549501791" type="curve" smooth="yes"/>
    </contour>
  </outline>
</glyph>
<glyph name="plus" format="2">
  <advance width="1132"/>
  <unicode hex="002B"/>
  <outline>
    <contour>
      <point x="184.86898756098037" y="674.0001777375398" type="line" smooth="yes"/>
      <point x="118.52472512275223" y="673.7685665483209"/>
      <point x="64.87076156450203" y="637.0521289176663"/>
      <point x="62.0" y="582.0" type="curve" smooth="yes"/>
      <point x="64.87076156450203" y="526.9478710823337"/>
      <point x="118.52472512275223" y="490.2314334516792"/>
      <point x="184.86898756098037" y="489.99982226246016" type="curve" smooth="yes"/>
      <point x="446.30867649787433" y="489.9990133257898" type="line" smooth="yes"/>
      <point x="452.4854927023317" y="493.0186451838215"/>
      <point x="437.6202136314906" y="475.3966135388024"/>
      <point x="434.00183239496175" y="461.83378957806764" type="curve" smooth="yes"/>
      <point x="434.00033008400254" y="201.07054515947212" type="line" smooth="yes"/>
      <point x="438.12383763855456" y="151.7363933915757"/>
      <point x="496.10763584356505" y="118.01598222689692"/>
      <point x="566.0" y="118.0" type="curve" smooth="yes"/>
      <point x="635.892364156435" y="118.01598222689692"/>
      <point x="693.8761623614455" y="151.7363933915757"/>
      <point x="697.9996699159974" y="201.07054515947212" type="curve" smooth="yes"/>
      <point x="697.9981676050382" y="461.83378957806764" type="line" smooth="yes"/>
      <point x="694.3797863685094" y="475.3966135388024"/>
      <point x="679.5145072976683" y="493.0186451838215"/>
      <point x="685.6913235021257" y="489.9990133257898" type="curve" smooth="yes"/>
      <point x="947.1310124390196" y="489.99982226246016" type="line" smooth="yes"/>
      <point x="1013.4752748772478" y="490.2314334516792"/>
      <point x="1067.1292384354979" y="526.9478710823337"/>
      <point x="1070.0" y="582.0" type="curve" smooth="yes"/>
      <point x="1067.1292384354979" y="637.0521289176663"/>
      <point x="1013.4752748772478" y="673.7685665483209"/>
      <point x="947.1310124390196" y="674.0001777375398" type="curve" smooth="yes"/>
      <point x="685.6913235021257" y="674.0009866742101" type="line" smooth="yes"/>
      <point x="679.5145072976682" y="670.9813548161785"/>
      <point x="694.3797863685094" y="688.6033864611976"/>
      <point x="697.9981676050382" y="702.1662104219323" type="curve" smooth="yes"/>
      <point x="697.9996699159974" y="962.9294548405279" type="line" smooth="yes"/>
      <point x="693.8761623614455" y="1012.2636066084243"/>
      <point x="635.892364156435" y="1045.984017773103"/>
      <point x="566.0" y="1046.0" type="curve" smooth="yes"/>
      <point x="496.10763584356505" y="1045.984017773103"/>
      <point x="438.12383763855456" y="1012.2636066084243"/>
      <point x="434.00033008400254" y="962.9294548405279" type="curve" smooth="yes"/>
      <point x="434.00183239496175" y="702.1662104219323" type="line" smooth="yes"/>
      <point x="437.6202136314906" y="688.6033864611976"/>
      <point x="452.48549270233184" y="670.9813548161785"/>
      <point x="446.30867649787433" y="674.0009866742101" type="curve" smooth="yes"/>
    </contour>
  </outline>
</glyph>
<glyph name="comma" format="2">
  <advance width="560"/>
  <unicode hex="002C"/>
  <outline>
    <contour>
      <point x="239.43187974580954" y="314.00026100806946" type="line" smooth="yes"/>
      <point x="192.21592220287638" y="313.58910348532817"/>
      <point x="142.34921042946286" y="289.3027117978504"/>
      <point x="128.71789013134924" y="257.7727766573095" type="curve" smooth="yes"/>
      <point x="34.67184828940616" y="-224.11072720459947" type="line" smooth="yes"/>
      <point x="27.836333419979" y="-272.3601146577165"/>
      <point x="86.76735707192968" y="-313.76744363385546"/>
      <point x="163.37214165648967" y="-314.0004943860271" type="curve" smooth="yes"/>
      <point x="221.45755050779013" y="-313.863030130131"/>
      <point x="279.6587784954725" y="-294.5038543625483"/>
      <point x="304.51997961520925" y="-260.96727524971516" type="curve" smooth="yes"/>
      <point x="516.5961021793622" y="222.94394126489536" type="line" smooth="yes"/>
      <point x="536.4164137088429" y="262.3007575802648"/>
      <point x="501.88161112455066" y="311.77889568112795"/>
      <point x="434.1737092974008" y="314.0035208070694" type="curve" smooth="yes"/>
    </contour>
  </outline>
</glyph>
<glyph name="period" format="2">
  <advance width="454"/>
  <unicode hex="002E"/>
  <outline>
    <contour>
      <point x="32.00596530881777" y="236.70011971612396" type="curve" smooth="yes"/>
      <point x="32.00596530881777" y="53.299880283876035" type="line" smooth="yes"/>
      <point x="42.18457691301515" y="-2.0532129375641404"/>
      <point x="122.25269671466015" y="-29.99054424039329"/>
      <point x="227.0" y="-30.0" type="curve" smooth="yes"/>
      <point x="331.74730328533985" y="-29.99054424039329"/>
      <point x="411.8154230869849" y="-2.053212937564137"/>
      <point x="421.9940346911822" y="53.299880283876035" type="curve" smooth="yes"/>
      <point x="421.9940346911822" y="236.70011971612396" type="line" smooth="yes"/>
      <point x="411.8154230869849" y="292.0532129375641"/>
      <point x="331.74730328533985" y="319.9905442403933"/>
      <point x="227.0" y="320.0" type="curve" smooth="yes"/>
      <point x="122.25269671466015" y="319.9905442403933"/>
      <point x="42.18457691301515" y="292.0532129375641"/>
    </contour>
  </outline>
</glyph>
<glyph name="slash" format="2">
  <advance width="1017"/>
  <unicode hex="002F"/>
  <outline>
    <contour>
      <point x="711.8963023899321" y="1365.5602085705364" type="curve" smooth="yes"/>
      <point x="39.82819548537043" y="-277.36880980431636" type="line" smooth="yes"/>
      <point x="23.54072264078845" y="-331.45539718038685"/>
      <point x="102.81501321827912" y="-374.6096146168421"/>
      <point x="184.37990665107944" y="-375.000012373496" type="curve" smooth="yes"/>
      <point x="233.15924787815857" y="-374.51236497916324"/>
      <point x="283.9109339706483" y="-353.1012957927861"/>
      <point x="304.93264630577505" y="-326.5602085705363" type="curve" smooth="yes"/>
      <point x="977.0007532103367" y="1316.3688098043162" type="line" smooth="yes"/>
      <point x="993.2882260549187" y="1370.4553971803869"/>
      <point x="914.013935477428" y="1413.6096146168422"/>
      <point x="832.4490420446277" y="1414.000012373496" type="curve" smooth="yes"/>
      <point x="783.6697008175486" y="1413.5123649791633"/>
      <point x="732.9180147250589" y="1392.101295792786"/>
    </contour>
  </outline>
</glyph>
<glyph name="zero" format="2">
  <advance width="1080"/>
  <unicode hex="0030"/>
  <outline>
    <contour>
      <point x="56.00000000028364" y="593.0000653946659" type="curve" smooth="yes"/>
      <point x="58.11646740829519" y="218.02488791726924"/>
      <point x="249.75222487843453" y="-39.389025581716794"/>
      <point x="540.0" y="-42.0" type="curve" smooth="yes"/>
      <point x="830.2477751215654" y="-39.389025581716794"/>
      <point x="1021.8835325917048" y="218.02488791726924"/>
      <point x="1023.9999999997164" y="593.0000653946659" type="curve" smooth="yes"/>
      <point x="1021.8903435113659" y="967.9681124807536"/>
      <point x="830.3363857078651" y="1226.3706251659512"/>
      <point x="540.0" y="1229.0" type="curve" smooth="yes"/>
      <point x="249.6636142921348" y="1226.3706251659512"/>
      <point x="58.10965648863406" y="967.9681124807536"/>
    </contour>
    <contour>
      <point x="256.52415004585913" y="443.3511607958862" type="line" smooth="yes"/>
      <point x="275.60473091437757" y="466.4271321742398"/>
      <point x="302.62426457183284" y="458.0984848575791"/>
      <point x="341.0745154665125" y="441.25225995519827" type="curve" smooth="yes"/>
      <point x="335.15091974539223" y="468.777460291027"/>
      <point x="329.941392543709" y="527.2897049337759"/>
      <point x="329.9999134874681" y="592.9638843438665" type="curve" smooth="yes"/>
      <point x="328.4370934443751" y="886.0423956462419"/>
      <point x="414.61714786564795" y="1044.1924708693732"/>
      <point x="539.5468702347232" y="1040.9978736756727" type="curve" smooth="yes"/>
      <point x="606.0173271944333" y="1041.9729923911907"/>
      <point x="651.2824021129231" y="998.7705427182108"/>
      <point x="669.6345004650786" y="951.8130527673317" type="curve" smooth="yes"/>
      <point x="673.8541424751761" y="939.6273901550359"/>
      <point x="673.8869135062716" y="914.714789600372"/>
      <point x="669.3977195208759" y="904.9418201701727" type="curve" smooth="yes"/>
    </contour>
    <contour>
      <point x="750.0000873391239" y="593.0362877808604" type="curve" smooth="yes"/>
      <point x="751.5687057418868" y="299.969131890678"/>
      <point x="665.5270833588253" y="142.83347076433134"/>
      <point x="540.4501412399694" y="146.00209836724252" type="curve" smooth="yes"/>
      <point x="474.0243767236683" y="145.04098853672164"/>
      <point x="428.8636961924046" y="187.79602518597332"/>
      <point x="410.5834939274803" y="234.38921660952968" type="curve" smooth="yes"/>
      <point x="406.41898455376065" y="246.40618744170504"/>
      <point x="406.3433429276672" y="271.1349808056882"/>
      <point x="410.7541819447784" y="280.783864747673" type="curve" smooth="yes"/>
      <point x="823.5409824209714" y="742.5086795161129" type="line" smooth="yes"/>
      <point x="804.4660881416544" y="719.4365977727039"/>
      <point x="777.4094734461057" y="727.780783511955"/>
      <point x="738.9588228648411" y="744.6185343136381" type="curve" smooth="yes"/>
      <point x="744.8649887307114" y="717.0795773106504"/>
      <point x="750.058360950486" y="658.6015355612387"/>
    </contour>
  </outline>
</glyph>
<glyph name="one" format="2">
  <advance width="1080"/>
  <unicode hex="0031"/>
  <outline>
    <contour>
      <point x="306.52082009825193" y="979.9985800934638" type="line" smooth="yes"/>
      <point x="286.31473938326354" y="955.6580206956774"/>
      <point x="279.1957748232041" y="913.5796003215859"/>
      <point x="289.88925446371417" y="865.9583105083022" type="curve" smooth="yes"/>
      <point x="310.28242125812415" y="819.1110390511209"/>
      <point x="394.87635142240356" y="809.5498410101624"/>
      <point x="431.45781848863936" y="829.0862253253746" type="curve" smooth="yes"/>
      <point x="498.3731159445498" y="942.2668861835203" type="line" smooth="yes"/>
      <point x="494.0988225982892" y="935.8993935914814"/>
      <point x="438.0244014344873" y="944.8399997117941"/>
      <point x="410.61353340090784" y="945.9561160710588" type="curve" smooth="yes"/>
      <point x="410.61363538064245" y="185.21362498676064" type="line" smooth="yes"/>
      <point x="413.84718195273723" y="178.0678509243838"/>
      <point x="437.2964917550699" y="160.77327316738112"/>
      <point x="430.7651073648813" y="164.017685976242" type="curve" smooth="yes"/>
      <point x="370.35781267814946" y="164.05336774803231" type="line" smooth="yes"/>
      <point x="316.54221211143306" y="159.20655371788158"/>
      <point x="290.25837795009244" y="124.5153920602115"/>
      <point x="289.67708705930374" y="72.0" type="curve" smooth="yes"/>
      <point x="290.25837795009244" y="19.484607939788493"/>
      <point x="316.54221211143306" y="-15.206553717881576"/>
      <point x="372.0528387328696" y="-20.00340035941288" type="curve" smooth="yes"/>
      <point x="714.0742483264341" y="-20.00340035941288" type="line" smooth="yes"/>
      <point x="769.5848749478707" y="-15.206553717881599"/>
      <point x="795.8687091092113" y="19.484607939788475"/>
      <point x="796.45" y="72.0" type="curve" smooth="yes"/>
      <point x="795.8687091092113" y="124.51539206021152"/>
      <point x="769.5848749478707" y="159.2065537178816"/>
      <point x="715.8411383017141" y="164.05681030016336" type="curve" smooth="yes"/>
      <point x="658.2310763100394" y="164.0201720380433" type="line" smooth="yes"/>
      <point x="649.6607055949174" y="160.91727018274798"/>
      <point x="677.1122063567508" y="178.8181268062205"/>
      <point x="680.6132645786801" y="183.0590123359398" type="curve" smooth="yes"/>
      <point x="680.6128352394568" y="1156.9072625846813" type="line" smooth="yes"/>
      <point x="667.145923858979" y="1222.3201059184353"/>
      <point x="563.7803584165842" y="1243.7861416842738"/>
      <point x="484.0833129703317" y="1212.5876881319766" type="curve" smooth="yes"/>
    </contour>
  </outline>
</glyph>
<glyph name="two" format="2">
  <advance width="1080"/>
  <unicode hex="0032"/>
  <outline>
    <contour>
      <point x="139.2413942423453" y="1111.381840131441" type="curve" smooth="yes"/>
      <point x="92.9182954971597" y="1085.5067460500395"/>
      <point x="74.29573684917203" y="1035.8050042660402"/>
      <point x="110.03693363883932" y="985.5020815942305" type="curve" smooth="yes"/>
      <point x="154.78173667106802" y="935.136983197113"/>
      <point x="236.80655882690496" y="927.0116940583271"/>
      <point x="287.61126150771577" y="950.8251780484131" type="curve" smooth="yes"/>
      <point x="363.66648638301444" y="1008.1929075426872"/>
      <point x="445.85430611477847" y="1041.3504136639247"/>
      <point x="524.1590951326965" y="1040.9997378986875" type="curve" smooth="yes"/>
      <point x="653.3182386019582" y="1042.3346171080952"/>
      <point x="695.7500473544645" y="972.9512930535213"/>
      <point x="692.0003532478061" y="858.9270215523684" type="curve" smooth="yes"/>
      <point x="694.3032436725957" y="765.7376285099871"/>
      <point x="656.9504751501419" y="699.9900285642866"/>
      <point x="542.2736998067027" y="582.0401100170551" type="curve" smooth="yes"/>
      <point x="102.208804077694" y="136.05373912531917" type="line" smooth="yes"/>
      <point x="81.88803061817198" y="120.67381560878754"/>
      <point x="70.52624717679447" y="95.81099994841327"/>
      <point x="70.0013538328108" y="68.14286742709776" type="curve" smooth="yes"/>
      <point x="73.19191886195854" y="14.761029454087577"/>
      <point x="127.95731594517466" y="-19.932847350746663"/>
      <point x="192.95454906224955" y="-20.00002139130953" type="curve" smooth="yes"/>
      <point x="887.0553032628579" y="-20.0000316703852" type="line" smooth="yes"/>
      <point x="953.4752748772478" y="-19.76856654832083"/>
      <point x="1007.1292384354979" y="16.94787108233372"/>
      <point x="1010.0" y="72.0" type="curve" smooth="yes"/>
      <point x="1007.1292384354979" y="127.05212891766627"/>
      <point x="953.4752748772478" y="163.76856654832085"/>
      <point x="887.0796263554522" y="164.0000656547329" type="curve" smooth="yes"/>
      <point x="421.68664317495353" y="164.00039799631196" type="line" smooth="yes"/>
      <point x="385.6383604790877" y="174.49640768225396"/>
      <point x="403.69188544005766" y="159.4612203492972"/>
      <point x="450.1579572385742" y="164.2363941817115" type="curve" smooth="yes"/>
      <point x="744.7448313042355" y="462.96276171353355" type="line" smooth="yes"/>
      <point x="876.621966722005" y="594.8592314084901"/>
      <point x="963.4480415221544" y="708.3461757063174"/>
      <point x="965.9998490785151" y="858.9522985847715" type="curve" smooth="yes"/>
      <point x="960.934203778668" y="1087.616324377698"/>
      <point x="775.684244621311" y="1228.053831729133"/>
      <point x="523.0901836918583" y="1229.0000842187267" type="curve" smooth="yes"/>
      <point x="393.66294816415626" y="1228.7141640069324"/>
      <point x="248.43990987517944" y="1183.896865751758"/>
    </contour>
  </outline>
</glyph>
<glyph name="three" format="2">
  <advance width="1080"/>
  <unicode hex="0033"/>
  <outline>
    <contour>
      <point x="166.47027117085796" y="1130.260940916947" type="curve" smooth="yes"/>
      <point x="117.43927680328575" y="1107.4192252150538"/>
      <point x="93.94803170853413" y="1057.9171767272562"/>
      <point x="126.53463066035087" y="1004.5202086185691" type="curve" smooth="yes"/>
      <point x="167.705802852257" y="952.8683519844799"/>
      <point x="247.38146572489197" y="943.762274447077"/>
      <point x="298.07532531033286" y="963.9624886584955" type="curve" smooth="yes"/>
      <point x="381.0953121548488" y="1016.7412935704111"/>
      <point x="452.9166483296049" y="1041.2286484710637"/>
      <point x="531.3839872549593" y="1040.9998022570428" type="curve" smooth="yes"/>
      <point x="659.7478793135942" y="1042.0861721840433"/>
      <point x="701.891902239394" y="982.1669279754468"/>
      <point x="697.2458225128125" y="878.9808968347552" type="curve" smooth="yes"/>
      <point x="701.3579652798414" y="765.5505241755889"/>
      <point x="663.2322915323713" y="710.0442476974434"/>
      <point x="525.4155850242241" y="711.0002985130975" type="curve" smooth="yes"/>
      <point x="469.9347480527684" y="711.0010019083801" type="line" smooth="yes"/>
      <point x="405.20311425337394" y="710.9328473507467"/>
      <point x="350.4377171701578" y="676.2389705459125"/>
      <point x="347.24579830819926" y="623.0" type="curve" smooth="yes"/>
      <point x="350.4377171701578" y="569.7610294540875"/>
      <point x="405.20311425337394" y="535.0671526492533"/>
      <point x="469.978711005124" y="534.9992612979785" type="curve" smooth="yes"/>
      <point x="543.3983763756636" y="534.9997589321454" type="line" smooth="yes"/>
      <point x="683.1069577261638" y="535.9204341546738"/>
      <point x="739.1993027661068" y="475.0851655291853"/>
      <point x="734.2458977889487" y="344.96127196445053" type="curve" smooth="yes"/>
      <point x="738.0488593279646" y="221.01895243606313"/>
      <point x="689.0151575397731" y="144.7534495041291"/>
      <point x="538.3635256283483" y="146.00014351856606" type="curve" smooth="yes"/>
      <point x="443.7288610674612" y="145.60913041190918"/>
      <point x="354.38698823649975" y="185.551444285594"/>
      <point x="276.08678798806454" y="247.84890687047326" type="curve" smooth="yes"/>
      <point x="224.09294038086108" y="272.9916814337255"/>
      <point x="141.61891449515812" y="263.7107445078418"/>
      <point x="97.27120742070345" y="213.5078770746978" type="curve" smooth="yes"/>
      <point x="61.541535157371285" y="163.19499573395976"/>
      <point x="80.13996147675375" y="113.47193420496173"/>
      <point x="125.8242912344207" y="87.78706650786435" type="curve" smooth="yes"/>
      <point x="237.80223304809033" y="10.253344915320653"/>
      <point x="394.35665942532034" y="-41.680721579326416"/>
      <point x="538.3411250962197" y="-42.00009409850499" type="curve" smooth="yes"/>
      <point x="821.3309880194615" y="-40.87788997711938"/>
      <point x="1003.690222360373" y="120.78097548759101"/>
      <point x="1008.2457077285956" y="345.03695482834956" type="curve" smooth="yes"/>
      <point x="1005.5509968876415" y="489.63357693008544"/>
      <point x="915.9489272372358" y="597.2206490095958"/>
      <point x="821.3749534370257" y="632.5101260151995" type="curve" smooth="yes"/>
      <point x="778.4373169081391" y="640.9219976167875"/>
      <point x="780.1571723688003" y="625.9504766044412"/>
      <point x="824.109135237426" y="633.5789300438395" type="curve" smooth="yes"/>
      <point x="893.0002217498896" y="664.3757126222637"/>
      <point x="968.6179119362663" y="754.4240018084972"/>
      <point x="971.2455119989567" y="878.9342988686539" type="curve" smooth="yes"/>
      <point x="965.6570710041176" y="1088.0326655098402"/>
      <point x="780.9892547741955" y="1228.0381409450433"/>
      <point x="530.3494956928661" y="1229.0001113496041" type="curve" smooth="yes"/>
      <point x="407.48557716023726" y="1228.797388941863"/>
      <point x="280.2480816935024" y="1194.2960391779386"/>
    </contour>
  </outline>
</glyph>
<glyph name="four" format="2">
  <advance width="1080"/>
  <unicode hex="0034"/>
  <outline>
    <contour>
      <point x="527.134977656504" y="1159.1128834883161" type="curve" smooth="yes"/>
      <point x="43.14086687190883" y="436.1382188609775" type="line" smooth="yes"/>
      <point x="30.694597514916108" y="423.07958186062814"/>
      <point x="21.55581645998734" y="399.2752409085503"/>
      <point x="21.00149068845349" y="376.1499144784614" type="curve" smooth="yes"/>
      <point x="24.02666172193969" y="322.3142855277238"/>
      <point x="77.55433942131562" y="282.6155327424959"/>
      <point x="145.88758253378154" y="281.99986913576856" type="curve" smooth="yes"/>
      <point x="576.1903878418578" y="281.99962465071934" type="line" smooth="yes"/>
      <point x="582.4854927023317" y="285.0186451838215"/>
      <point x="567.6202136314906" y="267.3966135388024"/>
      <point x="564.003074030702" y="253.7847230049743" type="curve" smooth="yes"/>
      <point x="564.0003062443117" y="55.06794994288634" type="line" smooth="yes"/>
      <point x="567.4758148326272" y="5.61415227542607"/>
      <point x="623.6521034472331" y="-29.984764763642374"/>
      <point x="697.5821415298674" y="-30.00180816396666" type="curve" smooth="yes"/>
      <point x="700.4178584701326" y="-30.00180816396666" type="line" smooth="yes"/>
      <point x="774.3478965527669" y="-29.984764763642374"/>
      <point x="830.5241851673728" y="5.61415227542607"/>
      <point x="833.9996937556883" y="55.06794994288634" type="curve" smooth="yes"/>
      <point x="833.996925969298" y="253.7847230049743" type="line" smooth="yes"/>
      <point x="830.3797863685094" y="267.3966135388024"/>
      <point x="815.5145072976683" y="285.0186451838215"/>
      <point x="821.3284320207334" y="281.99532906568743" type="curve" smooth="yes"/>
      <point x="936.2447686031795" y="281.9993795991476" type="line" smooth="yes"/>
      <point x="1002.4752748772478" y="282.2314334516792"/>
      <point x="1056.1292384354979" y="318.94787108233373"/>
      <point x="1059.0" y="374.0" type="curve" smooth="yes"/>
      <point x="1056.1292384354979" y="429.05212891766627"/>
      <point x="1002.4752748772478" y="465.7685665483208"/>
      <point x="936.2447686031795" y="466.0006204008524" type="curve" smooth="yes"/>
      <point x="821.3284320207334" y="466.00467093431257" type="line" smooth="yes"/>
      <point x="815.5145072976683" y="462.9813548161785"/>
      <point x="830.3797863685094" y="480.6033864611976"/>
      <point x="833.9996771480409" y="494.0697680724365" type="curve" smooth="yes"/>
      <point x="833.9999290312048" y="1130.9672893044294" type="line" smooth="yes"/>
      <point x="830.2412164006706" y="1182.8198519379098"/>
      <point x="771.2300492967789" y="1228.2969175134047"/>
      <point x="687.2000726752638" y="1229.0004145083963" type="curve" smooth="yes"/>
      <point x="619.9316308160013" y="1228.5865794859737"/>
      <point x="561.35591329043" y="1202.3278281793469"/>
    </contour>
    <contour>
      <point x="564.9151250826403" y="494.37670205935103" type="line" smooth="yes"/>
      <point x="568.4799052796312" y="480.5607184723751"/>
      <point x="582.4183774517168" y="463.05579737834904"/>
      <point x="576.5453586822969" y="466.00104438702436" type="curve" smooth="yes"/>
      <point x="325.6040134734666" y="466.0016238179939" type="line" smooth="yes"/>
      <point x="290.61480514096115" y="474.6101917208988"/>
      <point x="312.3048768241947" y="474.40702088363275"/>
      <point x="354.3575394709083" y="475.4774709210528" type="curve" smooth="yes"/>
      <point x="656.2963810017322" y="940.7901366209067" type="line" smooth="yes"/>
      <point x="653.720002427338" y="933.5136811187756"/>
      <point x="599.7493124766273" y="942.8504050588275"/>
      <point x="571.3253674830471" y="944.2108139263642" type="curve" smooth="yes"/>
    </contour>
  </outline>
</glyph>
<glyph name="five" format="2">
  <advance width="1080"/>
  <unicode hex="0035"/>
  <outline>
    <contour>
      <point x="292.98679556667975" y="1207.0000234790296" type="line" smooth="yes"/>
      <point x="218.5778879339042" y="1206.9567317826636"/>
      <point x="163.77951075839297" y="1171.688340664563"/>
      <point x="158.0850047381522" y="1122.779785615364" type="curve" smooth="yes"/>
      <point x="138.07985523577332" y="622.8497935147363" type="line" smooth="yes"/>
      <point x="139.6996135560795" y="572.2172188356967"/>
      <point x="199.3076951764966" y="537.0047913516545"/>
      <point x="272.77662294762706" y="536.9993118332651" type="curve" smooth="yes"/>
      <point x="301.2471730230025" y="537.0296964650793"/>
      <point x="332.72244167631385" y="541.2748203058435"/>
      <point x="356.73183442386954" y="550.5608843551609" type="curve" smooth="yes"/>
      <point x="416.74194993238194" y="594.3023856708296"/>
      <point x="464.28930427791073" y="618.2738927249542"/>
      <point x="550.2921434331936" y="617.9993121494757" type="curve" smooth="yes"/>
      <point x="678.4995919304458" y="619.7583087647309"/>
      <point x="739.5770717712558" y="526.4703552938106"/>
      <point x="736.0344152660937" y="386.0060895865251" type="curve" smooth="yes"/>
      <point x="739.7834295930819" y="237.71418534058532"/>
      <point x="674.0363665348514" y="144.4570989742993"/>
      <point x="530.2141197350769" y="146.00033441532725" type="curve" smooth="yes"/>
      <point x="438.2511042920726" y="145.6284508181322"/>
      <point x="350.22701915851707" y="183.71597021244804"/>
      <point x="273.0014050414304" y="242.0821812497377" type="curve" smooth="yes"/>
      <point x="221.81021967918167" y="266.98577168902455"/>
      <point x="139.40752899346143" y="257.7107445078418"/>
      <point x="95.02821158891773" y="207.535288328055" type="curve" smooth="yes"/>
      <point x="59.03978874021877" y="156.57176638027204"/>
      <point x="80.49178954124625" y="106.3283631017068"/>
      <point x="126.38858607923707" y="80.5995762243409" type="curve" smooth="yes"/>
      <point x="237.37449427487843" y="7.1186440171063285"/>
      <point x="389.51640801479505" y="-41.70243308344125"/>
      <point x="530.1666872936295" y="-42.00018117836112" type="curve" smooth="yes"/>
      <point x="811.3746770466043" y="-40.562828810076596"/>
      <point x="1005.6365282006136" y="144.83496057198406"/>
      <point x="1010.034403499187" y="386.0118459130402" type="curve" smooth="yes"/>
      <point x="1006.3606294972044" y="625.4813827524357"/>
      <point x="831.2218637320005" y="804.4619414115481"/>
      <point x="563.2241582674586" y="806.0003728206145" type="curve" smooth="yes"/>
      <point x="476.0659145313713" y="805.8333696026839"/>
      <point x="391.07326354446366" y="784.711145625915"/>
      <point x="343.8600103792352" y="763.09171939592" type="curve" smooth="yes"/>
      <point x="344.38298839865087" y="782.3518241566634"/>
      <point x="367.68073424353895" y="771.733908223747"/>
      <point x="409.2117407200785" y="760.2426156891333" type="curve" smooth="yes"/>
      <point x="418.7302310229073" y="994.052216888435" type="line" smooth="yes"/>
      <point x="415.251198675718" y="1008.486617359441"/>
      <point x="402.970239130238" y="1025.8080381458626"/>
      <point x="408.5215084304326" y="1022.9996303779651" type="curve" smooth="yes"/>
      <point x="827.1219062452644" y="1022.9999207309697" type="line" smooth="yes"/>
      <point x="893.5096876837504" y="1023.2314334516791"/>
      <point x="947.1636512420005" y="1059.9478710823337"/>
      <point x="950.0344128065026" y="1115.0" type="curve" smooth="yes"/>
      <point x="947.1636512420005" y="1170.0521289176663"/>
      <point x="893.5096876837504" y="1206.768566548321"/>
      <point x="827.1047315946906" y="1207.0000512029394" type="curve" smooth="yes"/>
    </contour>
  </outline>
</glyph>
<glyph name="six" format="2">
  <advance width="1080"/>
  <unicode hex="0036"/>
  <outline>
    <contour>
      <point x="64.50006874766434" y="511.96780525079" type="curve" smooth="yes"/>
      <point x="64.82496670072995" y="366.0100441590806"/>
      <point x="94.56185431528257" y="251.6899860983219"/>
      <point x="148.71944784965734" y="162.9650373357162" type="curve" smooth="yes"/>
      <point x="235.34495934822826" y="28.609088985071736"/>
      <point x="391.20305024615953" y="-41.48852834274769"/>
      <point x="547.5861973334028" y="-42.00007693787709" type="curve" smooth="yes"/>
      <point x="816.5707610904174" y="-40.736582877118465"/>
      <point x="1010.4587133921578" y="128.32401999083575"/>
      <point x="1015.499999611333" y="352.99757927646465" type="curve" smooth="yes"/>
      <point x="1010.3201694253946" y="588.7967575296988"/>
      <point x="812.6469226150566" y="749.7307690097426"/>
      <point x="569.6072139137108" y="751.0001190297413" type="curve" smooth="yes"/>
      <point x="442.02489939894133" y="750.5247738098511"/>
      <point x="314.98568014040563" y="697.2954354392805"/>
      <point x="260.6788643107708" y="639.4076656614706" type="curve" smooth="yes"/>
      <point x="258.9060058666943" y="646.7895622831768"/>
      <point x="313.1600051709546" y="633.5090332650069"/>
      <point x="345.2728216558676" y="633.9870389817214" type="curve" smooth="yes"/>
      <point x="369.17574933770237" y="851.7221446230179"/>
      <point x="512.9601632593626" y="1024.3048495764615"/>
      <point x="862.6436061543692" y="1042.0231771583155" type="curve" smooth="yes"/>
      <point x="915.8280863112927" y="1044.2384470365362"/>
      <point x="959.4379671299494" y="1082.1612770917623"/>
      <point x="955.2566072407803" y="1143.6652930722435" type="curve" smooth="yes"/>
      <point x="944.6973601784063" y="1203.1758611784064"/>
      <point x="884.5624229382239" y="1230.079894960594"/>
      <point x="835.701817322436" y="1228.9818286677857" type="curve" smooth="yes"/>
      <point x="286.4004871650877" y="1202.7637987492276"/>
      <point x="66.84893269438231" y="839.2628707112887"/>
    </contour>
    <contour>
      <point x="741.5000146128046" y="353.0148430478771" type="curve" smooth="yes"/>
      <point x="746.3116741408444" y="224.60042715310138"/>
      <point x="681.3737746819885" y="144.687579387469"/>
      <point x="547.4583207422105" y="146.00001798836024" type="curve" smooth="yes"/>
      <point x="414.85569903303235" y="144.418755840955"/>
      <point x="349.2803468542978" y="235.08749128733191"/>
      <point x="353.49980571289797" y="367.9458775393421" type="curve" smooth="yes"/>
      <point x="347.66438010037587" y="485.75877709297856"/>
      <point x="418.30348961750343" y="564.249937813817"/>
      <point x="547.5109295643127" y="562.999998763036" type="curve" smooth="yes"/>
      <point x="685.2138846926811" y="564.3441641737807"/>
      <point x="745.8364490948725" y="483.71630423108144"/>
    </contour>
  </outline>
</glyph>
<glyph name="seven" format="2">
  <advance width="1080"/>
  <unicode hex="0037"/>
  <outline>
    <contour>
      <point x="227.65789319363998" y="1207.000070151861" type="line" smooth="yes"/>
      <point x="165.15530628577292" y="1206.5421858733848"/>
      <point x="116.29246325057153" y="1169.3374483545483"/>
      <point x="114.0" y="1115.0" type="curve" smooth="yes"/>
      <point x="116.29246325057153" y="1060.6625516454517"/>
      <point x="165.15530628577292" y="1023.457814126615"/>
      <point x="227.63491845832914" y="1022.9998852191256" type="curve" smooth="yes"/>
      <point x="704.9867166336462" y="1022.9995457658513" type="line" smooth="yes"/>
      <point x="735.164080951299" y="1021.3229076473855"/>
      <point x="703.8174929605761" y="1004.0942270940608"/>
      <point x="679.8223556900502" y="1004.9634819964602" type="curve" smooth="yes"/>
      <point x="328.4177250720726" y="63.003748895215516" type="line" smooth="yes"/>
      <point x="311.7003911314371" y="14.291122663122835"/>
      <point x="358.459297692467" y="-30.0571246123831"/>
      <point x="417.7087754014464" y="-39.59766523761114" type="curve" smooth="yes"/>
      <point x="476.9997028517216" y="-48.047249052178486"/>
      <point x="545.1084874286198" y="-25.24731573206514"/>
      <point x="569.8267148892083" y="17.14660442182221" type="curve" smooth="yes"/>
      <point x="956.9189860123989" y="1072.113449156538" type="line" smooth="yes"/>
      <point x="961.7137523806517" y="1082.6427153148543"/>
      <point x="965.4970936410706" y="1100.48349813545"/>
      <point x="965.6988479673562" y="1118.8682095498555" type="curve" smooth="yes"/>
      <point x="963.1318568486583" y="1171.4626877545352"/>
      <point x="912.9966907329357" y="1206.7789423666152"/>
      <point x="852.027766552151" y="1207.000047836682" type="curve" smooth="yes"/>
    </contour>
  </outline>
</glyph>
<glyph name="eight" format="2">
  <advance width="1080"/>
  <unicode hex="0038"/>
  <outline>
    <contour>
      <point x="113.0002093532796" y="878.9438182361915" type="curve" smooth="yes"/>
      <point x="116.47248718458404" y="759.4735295965655"/>
      <point x="201.91393571891845" y="665.1992677335567"/>
      <point x="269.353079431207" y="633.6132572321711" type="curve" smooth="yes"/>
      <point x="313.2900278964166" y="626.4379384252231"/>
      <point x="314.68079864856685" y="637.5812746633799"/>
      <point x="271.4460286097226" y="629.7775665769308" type="curve" smooth="yes"/>
      <point x="179.856681684046" y="592.3662060395843"/>
      <point x="79.45769234160683" y="482.48118387845784"/>
      <point x="76.00016326755761" y="340.0496141580428" type="curve" smooth="yes"/>
      <point x="81.85342321280243" y="122.68185567628346"/>
      <point x="284.3675390307517" y="-40.783521297278206"/>
      <point x="540.0" y="-42.0" type="curve" smooth="yes"/>
      <point x="795.6324609692483" y="-40.783521297278206"/>
      <point x="998.1465767871975" y="122.68185567628346"/>
      <point x="1003.9998367324424" y="340.0496141580428" type="curve" smooth="yes"/>
      <point x="1000.5410066868675" y="482.4792452165586"/>
      <point x="900.0343596772539" y="592.3981837232145"/>
      <point x="807.4452667755016" y="629.9356840047857" type="curve" smooth="yes"/>
      <point x="764.2372789379757" y="637.7889462347488"/>
      <point x="765.6949593025988" y="626.4180585399108"/>
      <point x="809.6368749925069" y="633.6159196036932" type="curve" smooth="yes"/>
      <point x="876.9123687333796" y="665.1445883437428"/>
      <point x="963.4394615019693" y="759.3857766422733"/>
      <point x="966.9998068359918" y="878.9460341953205" type="curve" smooth="yes"/>
      <point x="961.1396790267733" y="1072.3137346982053"/>
      <point x="774.4319898138859" y="1227.6845832294832"/>
      <point x="540.0" y="1229.0" type="curve" smooth="yes"/>
      <point x="305.5680101861141" y="1227.6845832294832"/>
      <point x="118.86032097322675" y="1072.3137346982053"/>
    </contour>
    <contour>
      <point x="730.0000007615291" y="340.9966115613851" type="curve" smooth="yes"/>
      <point x="735.5339464931288" y="224.05740282474954"/>
      <point x="667.7239374765148" y="144.68809641213096"/>
      <point x="540.0" y="146.0" type="curve" smooth="yes"/>
      <point x="412.27606252348517" y="144.68809641213093"/>
      <point x="344.4660535068711" y="224.05740282474954"/>
      <point x="349.9999992384709" y="340.9966115613851" type="curve" smooth="yes"/>
      <point x="344.3788832769884" y="457.87135683995507"/>
      <point x="411.8515928362315" y="535.264654350021"/>
      <point x="540.0" y="534.0" type="curve" smooth="yes"/>
      <point x="668.1484071637685" y="535.264654350021"/>
      <point x="735.6211167230116" y="457.87135683995507"/>
    </contour>
    <contour>
      <point x="695.0000016320532" y="876.0049604777663" type="curve" smooth="yes"/>
      <point x="701.0219018700009" y="782.3976999742498"/>
      <point x="642.9535329239137" y="711.5781739170383"/>
      <point x="540.0" y="713.0" type="curve" smooth="yes"/>
      <point x="437.04646707608623" y="711.5781739170383"/>
      <point x="378.9780981299992" y="782.3976999742498"/>
      <point x="384.99999836794683" y="876.0049604777663" type="curve" smooth="yes"/>
      <point x="379.15681423454674" y="980.6015243346244"/>
      <point x="434.73023804384513" y="1042.1875347052974"/>
      <point x="540.0" y="1041.0" type="curve" smooth="yes"/>
      <point x="645.269761956155" y="1042.1875347052974"/>
      <point x="700.8431857654532" y="980.6015243346244"/>
    </contour>
  </outline>
</glyph>
<glyph name="nine" format="2">
  <advance width="1080"/>
  <unicode hex="0039"/>
  <outline>
    <contour>
      <point x="64.500000388667" y="834.0024207235354" type="curve" smooth="yes"/>
      <point x="69.67983057460536" y="598.2032424703012"/>
      <point x="267.3530773849434" y="437.26923099025737"/>
      <point x="510.3927860862892" y="435.9998809702587" type="curve" smooth="yes"/>
      <point x="637.9751006010587" y="436.47522619014893"/>
      <point x="765.0143198595944" y="489.7045645607195"/>
      <point x="819.3211356892292" y="547.5923343385294" type="curve" smooth="yes"/>
      <point x="821.0939941333057" y="540.2104377168232"/>
      <point x="766.8399948290454" y="553.4909667349931"/>
      <point x="734.7271783441324" y="553.0129610182786" type="curve" smooth="yes"/>
      <point x="710.8242506622976" y="335.27785537698213"/>
      <point x="567.0398367406373" y="162.69515042353848"/>
      <point x="217.3563938456308" y="144.97682284168442" type="curve" smooth="yes"/>
      <point x="164.17191368870735" y="142.76155296346388"/>
      <point x="120.56203287005063" y="104.83872290823774"/>
      <point x="124.74339275921967" y="43.33470692775654" type="curve" smooth="yes"/>
      <point x="135.30263982159363" y="-16.175861178406496"/>
      <point x="195.4375770617761" y="-43.07989496059395"/>
      <point x="244.29818267756397" y="-41.981828667785706" type="curve" smooth="yes"/>
      <point x="793.5995128349124" y="-15.763798749227405"/>
      <point x="1013.1510673056176" y="347.7371292887114"/>
      <point x="1015.4999312523356" y="675.03219474921" type="curve" smooth="yes"/>
      <point x="1015.1750332992701" y="820.9899558409195"/>
      <point x="985.4381456847174" y="935.3100139016781"/>
      <point x="931.2805521503427" y="1024.0349626642837" type="curve" smooth="yes"/>
      <point x="844.6550406517717" y="1158.3909110149282"/>
      <point x="688.7969497538404" y="1228.4885283427477"/>
      <point x="532.4138026665972" y="1229.000076937877" type="curve" smooth="yes"/>
      <point x="263.42923890958264" y="1227.7365828771185"/>
      <point x="69.54128660784214" y="1058.6759800091643"/>
    </contour>
    <contour>
      <point x="726.500194287102" y="819.0541224606578" type="curve" smooth="yes"/>
      <point x="732.3356198996241" y="701.2412229070214"/>
      <point x="661.6965103824966" y="622.750062186183"/>
      <point x="532.4890704356873" y="624.000001236964" type="curve" smooth="yes"/>
      <point x="394.78611530731894" y="622.6558358262193"/>
      <point x="334.1635509051274" y="703.2836957689185"/>
      <point x="338.4999853871953" y="833.9851569521229" type="curve" smooth="yes"/>
      <point x="333.68832585915567" y="962.3995728468986"/>
      <point x="398.62622531801156" y="1042.312420612531"/>
      <point x="532.5416792577895" y="1040.9999820116398" type="curve" smooth="yes"/>
      <point x="665.1443009669676" y="1042.5812441590451"/>
      <point x="730.7196531457023" y="951.912508712668"/>
    </contour>
  </outline>
</glyph>
<glyph name="less" format="2">
  <advance width="1172"/>
  <unicode hex="003C"/>
  <outline>
    <contour>
      <point x="406.08735779476234" y="580.2620057181709" type="line" smooth="yes"/>
      <point x="361.3300968950276" y="587.3557421973179"/>
      <point x="361.3300968950276" y="578.6442578026821"/>
      <point x="406.08735779476234" y="585.7379942818291" type="curve" smooth="yes"/>
      <point x="1034.9690654462588" y="886.949423958768" type="line" smooth="yes"/>
      <point x="1094.3384396776394" y="909.1870090605305"/>
      <point x="1120.466215033351" y="959.0883059530225"/>
      <point x="1091.6965420951087" y="1008.9776714956245" type="curve" smooth="yes"/>
      <point x="1059.025141857452" y="1056.0935633700294"/>
      <point x="984.5851248570848" y="1077.878259998173"/>
      <point x="919.6478270869084" y="1055.9429033939314" type="curve" smooth="yes"/>
      <point x="142.5547920077498" y="674.9579661608094" type="line" smooth="yes"/>
      <point x="100.09056449052801" y="657.9461807499139"/>
      <point x="64.46566269362599" y="627.0083593042203"/>
      <point x="62.0" y="583.0" type="curve" smooth="yes"/>
      <point x="64.46566269362599" y="538.9916406957797"/>
      <point x="100.09056449052801" y="508.05381925008606"/>
      <point x="142.5547920077498" y="491.04203383919065" type="curve" smooth="yes"/>
      <point x="919.6478270869084" y="110.05709660606857" type="line" smooth="yes"/>
      <point x="984.5851248570848" y="88.12174000182708"/>
      <point x="1059.025141857452" y="109.90643662997061"/>
      <point x="1091.6965420951087" y="157.0223285043756" type="curve" smooth="yes"/>
      <point x="1120.466215033351" y="206.91169404697752"/>
      <point x="1094.3384396776394" y="256.8129909394695"/>
      <point x="1034.9690654462588" y="279.05057604123215" type="curve" smooth="yes"/>
    </contour>
  </outline>
</glyph>
<glyph name="greater" format="2">
  <advance width="1172"/>
  <unicode hex="003E"/>
  <outline>
    <contour>
      <point x="765.9780288342984" y="585.7379942818291" type="line" smooth="yes"/>
      <point x="810.7352897340332" y="578.6442578026822"/>
      <point x="810.7352897340332" y="587.3557421973178"/>
      <point x="765.9780288342984" y="580.2620057181709" type="curve" smooth="yes"/>
      <point x="137.09632118280206" y="279.05057604123215" type="line" smooth="yes"/>
      <point x="77.72694695142147" y="256.8129909394695"/>
      <point x="51.59917159570974" y="206.91169404697752"/>
      <point x="80.36884453395216" y="157.02232850437557" type="curve" smooth="yes"/>
      <point x="113.04024477160888" y="109.90643662997061"/>
      <point x="187.48026177197605" y="88.12174000182708"/>
      <point x="252.41755954215242" y="110.05709660606857" type="curve" smooth="yes"/>
      <point x="1029.5105946213112" y="491.04203383919065" type="line" smooth="yes"/>
      <point x="1071.974822138533" y="508.05381925008606"/>
      <point x="1107.599723935435" y="538.9916406957797"/>
      <point x="1110.0653866290609" y="583.0" type="curve" smooth="yes"/>
      <point x="1107.599723935435" y="627.0083593042203"/>
      <point x="1071.974822138533" y="657.9461807499139"/>
      <point x="1029.5105946213112" y="674.9579661608094" type="curve" smooth="yes"/>
      <point x="252.41755954215242" y="1055.9429033939314" type="line" smooth="yes"/>
      <point x="187.48026177197607" y="1077.878259998173"/>
      <point x="113.0402447716089" y="1056.0935633700294"/>
      <point x="80.36884453395214" y="1008.9776714956245" type="curve" smooth="yes"/>
      <point x="51.59917159570974" y="959.0883059530225"/>
      <point x="77.72694695142147" y="909.1870090605305"/>
      <point x="137.09632118280206" y="886.949423958768" type="curve" smooth="yes"/>
    </contour>
  </outline>
</glyph>
<glyph name="question" format="2">
  <advance width="888"/>
  <unicode hex="003F"/>
  <outline>
    <contour>
      <point x="101.50627766951519" y="1208.6268092445612" type="curve" smooth="yes"/>
      <point x="49.84853014505336" y="1186.8450095004155"/>
      <point x="20.488748592053177" y="1139.7523411183938"/>
      <point x="49.47503691718349" y="1082.9205551454766" type="curve" smooth="yes"/>
      <point x="87.42854247903537" y="1025.8044096457859"/>
      <point x="168.64190879799253" y="1018.9257180544038"/>
      <point x="215.96858697627445" y="1036.3405332483815" type="curve" smooth="yes"/>
      <point x="294.2786741556384" y="1079.368058668416"/>
      <point x="365.7782879002179" y="1101.1746761993652"/>
      <point x="449.3760444160716" y="1100.9995258378844" type="curve" smooth="yes"/>
      <point x="555.6074910189693" y="1102.3759502881"/>
      <point x="586.1165950839279" y="1044.5606368190665"/>
      <point x="582.1621033285587" y="956.0258380180026" type="curve" smooth="yes"/>
      <point x="586.8755836239584" y="864.5279267951377"/>
      <point x="549.5322309143227" y="823.5803027895806"/>
      <point x="401.54561289051287" y="762.5200000178022" type="curve" smooth="yes"/>
      <point x="332.44730255349106" y="734.627806406736" type="line" smooth="yes"/>
      <point x="292.5946368209856" y="723.4806418339618"/>
      <point x="265.59099639685274" y="692.8082233229935"/>
      <point x="265.21644356790154" y="664.0843252174342" type="curve" smooth="yes"/>
      <point x="275.2442825612965" y="439.2307024717369" type="line" smooth="yes"/>
      <point x="285.0647516452063" y="400.51131816317786"/>
      <point x="342.9373417312164" y="369.45265017957047"/>
      <point x="404.1620590487187" y="369.0" type="curve" smooth="yes"/>
      <point x="465.38677636622094" y="369.45265017957047"/>
      <point x="523.2292106308944" y="400.5372378792664"/>
      <point x="533.0230704072072" y="439.0615948987644" type="curve" smooth="yes"/>
      <point x="540.2762931750024" y="561.7174219651796" type="line" smooth="yes"/>
      <point x="537.5504998298144" y="580.2171841448562"/>
      <point x="543.1056256295045" y="604.9274692840336"/>
      <point x="550.0547800544517" y="610.6497746122241" type="curve" smooth="yes"/>
      <point x="719.0289883123911" y="677.4149349906453"/>
      <point x="851.5251958578226" y="772.609869955808"/>
      <point x="856.1620590377978" y="956.0004057753058" type="curve" smooth="yes"/>
      <point x="851.468435745444" y="1148.2779805567102"/>
      <point x="689.4089220007866" y="1287.8800200018193"/>
      <point x="448.3009400626195" y="1289.0001997285729" type="curve" smooth="yes"/>
      <point x="326.29127011000037" y="1288.8780896773476"/>
      <point x="206.72681143543954" y="1262.651785445476"/>
    </contour>
    <contour>
      <point x="229.16910788808397" y="166.67402392288304" type="curve" smooth="yes"/>
      <point x="229.16910788808397" y="53.32597607711697" type="line" smooth="yes"/>
      <point x="237.4374519064645" y="-0.5214507988634303"/>
      <point x="311.6603699998578" y="-30.000723261018894"/>
      <point x="404.1620590487187" y="-30.0" type="curve" smooth="yes"/>
      <point x="496.66374809757957" y="-30.000723261018894"/>
      <point x="570.8866661909728" y="-0.5214507988634303"/>
      <point x="579.1550102093533" y="53.32597607711697" type="curve" smooth="yes"/>
      <point x="579.1550102093533" y="166.67402392288304" type="line" smooth="yes"/>
      <point x="570.8866661909728" y="220.5214507988634"/>
      <point x="496.66374809757957" y="250.00072326101886"/>
      <point x="404.1620590487187" y="250.0" type="curve" smooth="yes"/>
      <point x="311.6603699998578" y="250.00072326101886"/>
      <point x="237.4374519064645" y="220.5214507988634"/>
    </contour>
  </outline>
</glyph>
<glyph name="at" format="2">
  <advance width="1304"/>
  <unicode hex="0040"/>
  <outline>
    <contour>
      <point x="32.00000114687754" y="388.9958417089912" type="curve" smooth="yes"/>
      <point x="35.581637547897074" y="47.52632096814678"/>
      <point x="261.14510016186955" y="-171.6232633266343"/>
      <point x="603.8648146729855" y="-173.00018924019687" type="curve" smooth="yes"/>
      <point x="719.857840990102" y="-172.90888758413976"/>
      <point x="836.9569888006547" y="-151.17341170530614"/>
      <point x="914.5216243432133" y="-119.40056146283727" type="curve" smooth="yes"/>
      <point x="954.7359564062893" y="-107.56864983308425"/>
      <point x="979.9032202861705" y="-69.7230531324544"/>
      <point x="966.4027036759574" y="-30.117352756918883" type="curve" smooth="yes"/>
      <point x="948.1284412966871" y="8.599423693945374"/>
      <point x="892.6930826050896" y="34.02762359437276"/>
      <point x="840.0153378914547" y="25.964824184634455" type="curve" smooth="yes"/>
      <point x="776.3588418241633" y="5.484844508511491"/>
      <point x="692.9446782139183" y="-10.073525748194195"/>
      <point x="601.7989542371951" y="-9.999581449673604" type="curve" smooth="yes"/>
      <point x="375.72148102841743" y="-11.692850682084789"/>
      <point x="272.18112552666156" y="139.5847318870934"/>
      <point x="274.9999955175641" y="388.99177921321484" type="curve" smooth="yes"/>
      <point x="271.5235856346468" y="703.0225862444875"/>
      <point x="446.93260689443593" y="937.2398049479075"/>
      <point x="696.9413835290044" y="934.9999644212053" type="curve" smooth="yes"/>
      <point x="917.5997053477527" y="936.6348971117717"/>
      <point x="1034.2885348859156" y="784.9941593254864"/>
      <point x="1031.0001066806149" y="530.9598949862849" type="curve" smooth="yes"/>
      <point x="1032.2683961242547" y="376.84302901018157"/>
      <point x="997.848103072606" y="279.3887555118005"/>
      <point x="930.1794089203465" y="283.00033330711096" type="curve" smooth="yes"/>
      <point x="897.5717520580208" y="279.05348395410164"/>
      <point x="899.8825582692583" y="320.8988152873476"/>
      <point x="920.1110423707898" y="399.1103883776863" type="curve" smooth="yes"/>
      <point x="997.2602761890764" y="700.8090518105367" type="line" smooth="yes"/>
      <point x="999.5611411428744" y="733.4570645833741"/>
      <point x="956.332313092071" y="760.8498550751785"/>
      <point x="921.0812582240262" y="770.7293829559067" type="curve" smooth="yes"/>
      <point x="885.8349188438982" y="780.5094435998628"/>
      <point x="825.7770521879702" y="781.0376327935663"/>
      <point x="788.6438089250803" y="755.495762153271" type="curve" smooth="yes"/>
      <point x="767.1195470959414" y="719.1177679987898" type="line" smooth="yes"/>
      <point x="794.2654640567841" y="737.6251381349944"/>
      <point x="826.423982827135" y="736.7428521098849"/>
      <point x="855.3805415148062" y="718.4738423394425" type="curve" smooth="yes"/>
      <point x="833.2857547480118" y="755.1499773826424"/>
      <point x="768.7042036547613" y="803.6955853181244"/>
      <point x="681.5456338494737" y="805.002137944591" type="curve" smooth="yes"/>
      <point x="465.00268824986966" y="800.7005147495265"/>
      <point x="307.9270518480895" y="541.979566901655"/>
      <point x="305.0000072833178" y="357.01047902701276" type="curve" smooth="yes"/>
      <point x="308.5847731597215" y="207.85577556913708"/>
      <point x="416.9420524879284" y="113.68349851505019"/>
      <point x="540.8723964650608" y="111.9998313915366" type="curve" smooth="yes"/>
      <point x="652.1066021144461" y="113.2109462992985"/>
      <point x="732.7331273987675" y="173.6767293605691"/>
      <point x="775.3563419255225" y="223.38405045358454" type="curve" smooth="yes"/>
      <point x="763.3122878125619" y="208.13594827890918"/>
      <point x="731.0135545061954" y="210.12965465046793"/>
      <point x="706.5008861253718" y="223.4457939760534" type="curve" smooth="yes"/>
      <point x="735.9515182271242" y="169.13836479611808"/>
      <point x="826.2373053375953" y="117.75595061512786"/>
      <point x="931.2747313615629" y="116.99921840829037" type="curve" smooth="yes"/>
      <point x="1128.8788916652525" y="119.49078608272004"/>
      <point x="1269.533973715634" y="290.7415237870406"/>
      <point x="1271.9999780434923" y="530.9818055932709" type="curve" smooth="yes"/>
      <point x="1268.2291195442606" y="858.6915089324543"/>
      <point x="1036.605584693497" y="1096.357202656959"/>
      <point x="701.9805673146678" y="1098.0000039103627" type="curve" smooth="yes"/>
      <point x="324.5432395386604" y="1096.0325897362716"/>
      <point x="35.92270169349541" y="787.9163197078606"/>
    </contour>
    <contour>
      <point x="694.0000039241387" y="560.9923081904936" type="curve" smooth="yes"/>
      <point x="696.2425552847843" y="435.7354188026248"/>
      <point x="629.2827284066733" y="281.20247825184777"/>
      <point x="567.3991103574663" y="286.02028476723524" type="curve" smooth="yes"/>
      <point x="544.2155177318851" y="283.3893786863135"/>
      <point x="558.3773936044479" y="302.16175147992124"/>
      <point x="559.9999205417716" y="358.96538809791514" type="curve" smooth="yes"/>
      <point x="556.6930916531453" y="501.2451672694731"/>
      <point x="643.9991364802457" y="642.5515310409223"/>
      <point x="676.4887488738749" y="637.9763303463615" type="curve" smooth="yes"/>
      <point x="704.5359781137241" y="640.7080770252088"/>
      <point x="695.6739644651767" y="615.1950121095368"/>
    </contour>
  </outline>
</glyph>
<glyph name="A" format="2">
  <advance width="1149"/>
  <unicode hex="0041"/>
  <outline>
    <contour>
      <point x="406.1506479844998" y="1150.9454827458576" type="curve" smooth="yes"/>
      <point x="12.129254696530154" y="90.98095731962002" type="line" smooth="yes"/>
      <point x="-7.450940294752268" y="42.885238276379035"/>
      <point x="30.604163952206026" y="-2.0889829564426776"/>
      <point x="100.27436402676885" y="-20.95239588426108" type="curve" smooth="yes"/>
      <point x="171.15149123344642" y="-39.91933001716782"/>
      <point x="243.51605584873775" y="-18.35528942527789"/>
      <point x="269.6274991780146" y="29.11692755971305" type="curve" smooth="yes"/>
      <point x="362.05339546991127" y="277.93702006983574" type="line" smooth="yes"/>
      <point x="360.7409127235939" y="295.08052609364125"/>
      <point x="364.81659337490845" y="311.56009883332905"/>
      <point x="370.2802725660985" y="309.9998083904114" type="curve" smooth="yes"/>
      <point x="778.4960561243352" y="309.9998083904114" type="line" smooth="yes"/>
      <point x="783.9597353155253" y="311.56009883332905"/>
      <point x="788.0354159668398" y="295.08052609364125"/>
      <point x="786.7229332205225" y="277.93702006983574" type="curve" smooth="yes"/>
      <point x="879.1488295124192" y="29.11692755971305" type="line" smooth="yes"/>
      <point x="905.260272841696" y="-18.35528942527789"/>
      <point x="977.6248374569874" y="-39.91933001716782"/>
      <point x="1048.5019646636647" y="-20.95239588426108" type="curve" smooth="yes"/>
      <point x="1118.1721647382276" y="-2.088982956442674"/>
      <point x="1156.227268985186" y="42.885238276379035"/>
      <point x="1136.6470739939034" y="90.98095731962002" type="curve" smooth="yes"/>
      <point x="742.625680705934" y="1150.9454827458576" type="line" smooth="yes"/>
      <point x="716.240311745261" y="1202.3316719986253"/>
      <point x="650.2165528500822" y="1228.8500561293522"/>
      <point x="574.3881643452169" y="1229.0" type="curve" smooth="yes"/>
      <point x="498.5597758403516" y="1228.8500561293522"/>
      <point x="432.5360169451728" y="1202.3316719986253"/>
    </contour>
    <contour>
      <point x="422.3198814062979" y="494.00108577448935" type="line" smooth="yes"/>
      <point x="393.79392075647434" y="494.6716413773072"/>
      <point x="425.912894373431" y="513.2233421527004"/>
      <point x="447.01616006179574" y="512.8658425556162" type="curve" smooth="yes"/>
      <point x="629.7506053924228" y="1034.7941436280712" type="line"/>
      <point x="519.0165268758549" y="1034.8034838385938" type="line"/>
      <point x="701.4372842844177" y="512.8841344869774" type="line" smooth="yes"/>
      <point x="722.4731501114343" y="513.2280127532948"/>
      <point x="754.6067979622859" y="494.6484252188548"/>
      <point x="726.1200611987177" y="494.001085426735" type="curve" smooth="yes"/>
    </contour>
  </outline>
</glyph>
<glyph name="B" format="2">
  <advance width="1009"/>
  <unicode hex="0042"/>
  <outline>
    <contour>
      <point x="132.92096334952956" y="1207.0000646858666" type="line" smooth="yes"/>
      <point x="67.95731594517466" y="1206.9328473507467"/>
      <point x="13.191918861958538" y="1172.2389705459125"/>
      <point x="10.000013528246186" y="1118.9857183938584" type="curve" smooth="yes"/>
      <point x="10.000013528246186" y="68.0142816061416" type="line" smooth="yes"/>
      <point x="13.191918861958541" y="14.761029454087577"/>
      <point x="67.95731594517464" y="-19.932847350746663"/>
      <point x="132.9285958243975" y="-20.000052795800812" type="curve" smooth="yes"/>
      <point x="555.0649287529703" y="-20.00004365421116" type="line" smooth="yes"/>
      <point x="820.2772832377599" y="-19.10801269481252"/>
      <point x="994.2644394052099" y="118.70200098833152"/>
      <point x="998.9999010456887" y="336.03862542815875" type="curve" smooth="yes"/>
      <point x="996.212115569198" y="485.6818069623332"/>
      <point x="902.6892768571311" y="591.8181803992809"/>
      <point x="797.2272051977009" y="627.5726820879399" type="curve" smooth="yes"/>
      <point x="756.3017381796428" y="636.8428154638973"/>
      <point x="759.4959257134784" y="618.795149455895"/>
      <point x="803.1658371341435" y="626.0661662681536" type="curve" smooth="yes"/>
      <point x="866.2239504489875" y="657.2534870750607"/>
      <point x="930.800308945993" y="744.9025222913617"/>
      <point x="932.9998699078658" y="857.9557124826473" type="curve" smooth="yes"/>
      <point x="928.8596468262872" y="1057.7908666049825"/>
      <point x="769.5355243838184" y="1205.846475990067"/>
      <point x="509.08918699378285" y="1207.0000823674598" type="curve" smooth="yes"/>
    </contour>
    <contour>
      <point x="725.0000650776677" y="336.03132362946826" type="curve" smooth="yes"/>
      <point x="730.6914542176272" y="216.48482999249822"/>
      <point x="676.5734200948324" y="163.24322519014743"/>
      <point x="535.0647797636038" y="164.00004345409764" type="curve" smooth="yes"/>
      <point x="267.69798520984756" y="164.0009445444877" type="line" smooth="yes"/>
      <point x="261.51450729766833" y="160.9813548161785"/>
      <point x="276.3797863685094" y="178.60338646119757"/>
      <point x="279.99851356948534" y="192.14970022682422" type="curve" smooth="yes"/>
      <point x="279.99851356948534" y="482.8502997731758" type="line" smooth="yes"/>
      <point x="276.3797863685094" y="496.39661353880246"/>
      <point x="261.51450729766833" y="514.0186451838215"/>
      <point x="267.6924541190409" y="510.9990205407641" type="curve" smooth="yes"/>
      <point x="530.0632056733652" y="510.99995863203947" type="line" smooth="yes"/>
      <point x="683.7137889320156" y="511.7604504280296"/>
      <point x="729.7405712816995" y="458.0374777661131"/>
    </contour>
    <contour>
      <point x="659.0000034829533" y="858.0072465311991" type="curve" smooth="yes"/>
      <point x="663.0000685960077" y="750.5084913692491"/>
      <point x="627.7504195055024" y="694.0198938177665"/>
      <point x="487.0949396066069" y="695.0000933356696" type="curve" smooth="yes"/>
      <point x="267.63496128330286" y="695.0013799095036" type="line" smooth="yes"/>
      <point x="261.5145072976682" y="691.9813548161785"/>
      <point x="276.3797863685094" y="709.6033864611975"/>
      <point x="279.99830728142314" y="723.1597502957982" type="curve" smooth="yes"/>
      <point x="279.99830728142314" y="994.8402497042018" type="line" smooth="yes"/>
      <point x="276.3797863685094" y="1008.3966135388025"/>
      <point x="261.5145072976682" y="1026.0186451838215"/>
      <point x="267.63496128330286" y="1022.9986200904964" type="curve" smooth="yes"/>
      <point x="487.08674102335743" y="1022.9999220884874" type="line" smooth="yes"/>
      <point x="629.5334997122021" y="1023.9161146102781"/>
      <point x="662.7912448704915" y="970.5981473653926"/>
    </contour>
  </outline>
</glyph>
<glyph name="C" format="2">
  <advance width="1044"/>
  <unicode hex="0043"/>
  <outline>
    <contour>
      <point x="6.13990636111339e-10" y="593.9999037861512" type="curve" smooth="yes"/>
      <point x="3.1754825787030363" y="217.85219633016595"/>
      <point x="238.82674824736972" y="-40.111193834872395"/>
      <point x="573.8273726971063" y="-42.00030858520552" type="curve" smooth="yes"/>
      <point x="714.6527853742397" y="-41.84722618107739"/>
      <point x="849.185506112731" y="-8.414401236318012"/>
      <point x="976.9892467543856" y="61.58409895822281" type="curve" smooth="yes"/>
      <point x="1031.8157710547168" y="86.80619169969384"/>
      <point x="1053.4442357803787" y="137.6895909074684"/>
      <point x="1025.33848033357" y="191.19236122824177" type="curve" smooth="yes"/>
      <point x="983.9986129959535" y="249.24095218259728"/>
      <point x="899.289803421853" y="251.70966093256618"/>
      <point x="853.4285066216897" y="233.1484099524224" type="curve" smooth="yes"/>
      <point x="762.1521204448417" y="176.25319691417457"/>
      <point x="676.2018188626827" y="145.76881593051837"/>
      <point x="573.728632973992" y="146.00076256579715" type="curve" smooth="yes"/>
      <point x="383.38298876935096" y="143.77033708906302"/>
      <point x="271.52792378718874" y="312.1126817577043"/>
      <point x="273.99999999851167" y="593.9998502012402" type="curve" smooth="yes"/>
      <point x="271.518573899626" y="875.8743085932755"/>
      <point x="383.2577357396355" y="1043.2106230920676"/>
      <point x="573.7315431030519" y="1040.9992537023886" type="curve" smooth="yes"/>
      <point x="676.2018188626827" y="1041.2311840694817"/>
      <point x="762.1521204448417" y="1010.7468030858255"/>
      <point x="853.4285066216897" y="953.8515900475776" type="curve" smooth="yes"/>
      <point x="899.289803421853" y="935.2903390674338"/>
      <point x="983.9986129959536" y="937.7590478174027"/>
      <point x="1025.33848033357" y="995.8076387717582" type="curve" smooth="yes"/>
      <point x="1053.4442357803787" y="1049.3104090925317"/>
      <point x="1031.8157710547168" y="1100.1938083003063"/>
      <point x="976.9892467543856" y="1125.4159010417773" type="curve" smooth="yes"/>
      <point x="849.185506112731" y="1195.414401236318"/>
      <point x="714.6527853742397" y="1228.8472261810773"/>
      <point x="573.82866387387" y="1229.000303986254" type="curve" smooth="yes"/>
      <point x="238.91018608192815" y="1227.1251784289811"/>
      <point x="3.185282250660073" y="970.1564340811644"/>
    </contour>
  </outline>
</glyph>
<glyph name="D" format="2">
  <advance width="1083"/>
  <unicode hex="0044"/>
  <outline>
    <contour>
      <point x="141.9128641847959" y="1207.000078622339" type="line" smooth="yes"/>
      <point x="76.95731594517466" y="1206.9328473507467"/>
      <point x="22.191918861958538" y="1172.2389705459125"/>
      <point x="19.000013528246186" y="1118.9857183938584" type="curve" smooth="yes"/>
      <point x="19.000013528246186" y="68.0142816061416" type="line" smooth="yes"/>
      <point x="22.19191886195854" y="14.761029454087577"/>
      <point x="76.95731594517464" y="-19.932847350746663"/>
      <point x="141.9128641847959" y="-20.000078622339167" type="curve" smooth="yes"/>
      <point x="478.10556061753846" y="-20.000115387025545" type="line" smooth="yes"/>
      <point x="816.7446808077451" y="-18.489185443639148"/>
      <point x="1060.4076784402944" y="216.4739589949015"/>
      <point x="1063.9999999991803" y="593.0001111672109" type="curve" smooth="yes"/>
      <point x="1060.4189925446844" y="969.5166376770896"/>
      <point x="816.8312748964638" y="1205.4763702147857"/>
      <point x="478.1063906130059" y="1207.0001172086825" type="curve" smooth="yes"/>
    </contour>
    <contour>
      <point x="790.0000000022297" y="593.0001833490437" type="curve" smooth="yes"/>
      <point x="793.0540623863071" y="301.8010331054484"/>
      <point x="675.0141248247695" y="162.5311413891768"/>
      <point x="459.145929934184" y="164.00022051774238" type="curve" smooth="yes"/>
      <point x="276.56498970512655" y="164.00195966037217" type="line" smooth="yes"/>
      <point x="270.51450729766833" y="160.9813548161785"/>
      <point x="285.3797863685094" y="178.60338646119757"/>
      <point x="288.99979540194494" y="192.0555400486188" type="curve" smooth="yes"/>
      <point x="288.99979540194494" y="994.9444599513812" type="line" smooth="yes"/>
      <point x="285.3797863685094" y="1008.3966135388025"/>
      <point x="270.5145072976682" y="1026.0186451838215"/>
      <point x="276.56498970512655" y="1022.9980403396279" type="curve" smooth="yes"/>
      <point x="459.14770151522555" y="1022.9997740955691" type="line" smooth="yes"/>
      <point x="674.8843317942675" y="1024.4847393909865"/>
      <point x="793.0421958019824" y="884.2135097065411"/>
    </contour>
  </outline>
</glyph>
<glyph name="E" format="2">
  <advance width="831"/>
  <unicode hex="0045"/>
  <outline>
    <contour>
      <point x="132.94468220461087" y="1207.000031687032" type="line" smooth="yes"/>
      <point x="67.95731594517466" y="1206.9328473507467"/>
      <point x="13.191918861958538" y="1172.2389705459125"/>
      <point x="10.000013528246186" y="1118.9857183938584" type="curve" smooth="yes"/>
      <point x="10.000013528246186" y="68.0142816061416" type="line" smooth="yes"/>
      <point x="13.191918861958541" y="14.761029454087577"/>
      <point x="67.95731594517464" y="-19.932847350746663"/>
      <point x="132.94610842858657" y="-20.000030074159945" type="curve" smooth="yes"/>
      <point x="709.8892643787343" y="-20.000096694543927" type="line" smooth="yes"/>
      <point x="771.4392186125341" y="-19.450602738422575"/>
      <point x="818.9080773408292" y="17.848005851037506"/>
      <point x="821.05" y="72.0" type="curve" smooth="yes"/>
      <point x="818.9080773408292" y="126.15199414896249"/>
      <point x="771.4392186125341" y="163.45060273842256"/>
      <point x="709.9158457257582" y="164.00015720810427" type="curve" smooth="yes"/>
      <point x="267.814570649653" y="164.0003560523202" type="line" smooth="yes"/>
      <point x="261.51450729766833" y="160.9813548161785"/>
      <point x="276.3797863685094" y="178.60338646119757"/>
      <point x="279.99859835513536" y="192.1453682296284" type="curve" smooth="yes"/>
      <point x="279.99859835513536" y="491.8546317703716" type="line" smooth="yes"/>
      <point x="276.3797863685094" y="505.3966135388025"/>
      <point x="261.5145072976682" y="523.0186451838215"/>
      <point x="267.74923571185116" y="519.9993488323454" type="curve" smooth="yes"/>
      <point x="591.9815284637899" y="519.9997275512138" type="line" smooth="yes"/>
      <point x="653.4659103418574" y="520.5493972615774"/>
      <point x="700.9347690701526" y="557.8480058510374"/>
      <point x="703.0766917293233" y="612.0" type="curve" smooth="yes"/>
      <point x="700.9347690701526" y="666.1519941489626"/>
      <point x="653.4659103418574" y="703.4506027384226"/>
      <point x="591.9815284637899" y="704.0002724487862" type="curve" smooth="yes"/>
      <point x="267.74923571185116" y="704.0006511676546" type="line" smooth="yes"/>
      <point x="261.5145072976682" y="700.9813548161785"/>
      <point x="276.3797863685094" y="718.6033864611975"/>
      <point x="279.9981942570834" y="732.164997277667" type="curve" smooth="yes"/>
      <point x="279.9981942570834" y="994.835002722333" type="line" smooth="yes"/>
      <point x="276.3797863685094" y="1008.3966135388025"/>
      <point x="261.5145072976682" y="1026.0186451838215"/>
      <point x="267.8076584152413" y="1022.9996169074855" type="curve" smooth="yes"/>
      <point x="693.6478906703724" y="1022.9998318246422" type="line" smooth="yes"/>
      <point x="755.1670381614063" y="1023.5493972615774"/>
      <point x="802.6358968897014" y="1060.8480058510374"/>
      <point x="804.7778195488721" y="1115.0" type="curve" smooth="yes"/>
      <point x="802.6358968897014" y="1169.1519941489626"/>
      <point x="755.1670381614063" y="1206.4506027384225"/>
      <point x="693.6196637881751" y="1207.000101926501" type="curve" smooth="yes"/>
    </contour>
  </outline>
</glyph>
<glyph name="F" format="2">
  <advance width="849"/>
  <unicode hex="0046"/>
  <outline>
    <contour>
      <point x="141.94571367947617" y="1207.000030516353" type="line" smooth="yes"/>
      <point x="80.19796592218083" y="1206.8751096650767"/>
      <point x="22.834638944090717" y="1173.25073944019"/>
      <point x="19.000023580703168" y="1118.9811446483332" type="curve" smooth="yes"/>
      <point x="19.000015786209172" y="55.01542748810124" type="line" smooth="yes"/>
      <point x="22.475814832627247" y="5.614152275426063"/>
      <point x="78.65210344723309" y="-29.984764763642374"/>
      <point x="152.5821415298674" y="-30.00180816396666" type="curve" smooth="yes"/>
      <point x="155.4178584701326" y="-30.00180816396666" type="line" smooth="yes"/>
      <point x="229.3478965527669" y="-29.984764763642374"/>
      <point x="285.52418516737276" y="5.614152275426063"/>
      <point x="288.99990326703426" y="55.03818943270308" type="curve" smooth="yes"/>
      <point x="288.99918559887954" y="451.88919173882607" type="line" smooth="yes"/>
      <point x="285.3797863685094" y="465.39661353880246"/>
      <point x="270.51450729766833" y="483.0186451838215"/>
      <point x="276.76331522420486" y="479.99941990250585" type="curve" smooth="yes"/>
      <point x="620.8823990027429" y="479.999781013919" type="line" smooth="yes"/>
      <point x="682.9785093606351" y="480.48885603751637"/>
      <point x="731.3456509176632" y="517.729669212442"/>
      <point x="733.5837209302325" y="572.0" type="curve" smooth="yes"/>
      <point x="731.3456509176632" y="626.270330787558"/>
      <point x="682.9785093606351" y="663.5111439624836"/>
      <point x="620.8823990027429" y="664.000218986081" type="curve" smooth="yes"/>
      <point x="276.76331522420486" y="664.0005800974941" type="line" smooth="yes"/>
      <point x="270.5145072976682" y="660.9813548161785"/>
      <point x="285.3797863685094" y="678.6033864611975"/>
      <point x="288.9986250099816" y="692.1439794102567" type="curve" smooth="yes"/>
      <point x="288.9986250099816" y="994.8560205897433" type="line" smooth="yes"/>
      <point x="285.3797863685094" y="1008.3966135388025"/>
      <point x="270.5145072976682" y="1026.0186451838215"/>
      <point x="276.8139174708605" y="1022.9996414348261" type="curve" smooth="yes"/>
      <point x="717.3200485901937" y="1022.999858750962" type="line" smooth="yes"/>
      <point x="779.4447884304026" y="1023.4888560375164"/>
      <point x="827.8119299874306" y="1060.729669212442"/>
      <point x="830.05" y="1115.0" type="curve" smooth="yes"/>
      <point x="827.8119299874306" y="1169.270330787558"/>
      <point x="779.4447884304026" y="1206.5111439624839"/>
      <point x="717.2948211144769" y="1207.0000868189525" type="curve" smooth="yes"/>
    </contour>
  </outline>
</glyph>
<glyph name="G" format="2">
  <advance width="1109"/>
  <unicode hex="0047"/>
  <outline>
    <contour>
      <point x="8.000001594729579" y="593.995096571155" type="curve" smooth="yes"/>
      <point x="11.288271291505307" y="217.7404310492393"/>
      <point x="251.22837464416043" y="-40.17444433803392"/>
      <point x="591.8386542222153" y="-42.00026956948886" type="curve" smooth="yes"/>
      <point x="752.5637626606795" y="-41.88643701975971"/>
      <point x="915.8050647031777" y="-7.743687506547998"/>
      <point x="1034.8844873222934" y="56.59918431179427" type="curve" smooth="yes"/>
      <point x="1071.8086076845307" y="72.58661096562766"/>
      <point x="1099.1307445567343" y="107.13534488948832"/>
      <point x="1100.999943564483" y="143.02916972793264" type="curve" smooth="yes"/>
      <point x="1100.9999146122323" y="525.964119884452" type="line" smooth="yes"/>
      <point x="1097.8080811380414" y="579.2389705459125"/>
      <point x="1043.0426840548253" y="613.9328473507467"/>
      <point x="978.0832948341246" y="614.0000718436839" type="curve" smooth="yes"/>
      <point x="623.8987562180888" y="614.0001061425971" type="line" smooth="yes"/>
      <point x="557.5247251227522" y="613.7685665483209"/>
      <point x="503.87076156450206" y="577.0521289176663"/>
      <point x="501.0" y="522.0" type="curve" smooth="yes"/>
      <point x="503.8707615645021" y="466.94787108233373"/>
      <point x="557.5247251227522" y="430.2314334516792"/>
      <point x="623.8489270581285" y="429.9997636648153" type="curve" smooth="yes"/>
      <point x="843.3650387166972" y="429.9986200904964" type="line" smooth="yes"/>
      <point x="849.4854927023317" y="433.0186451838215"/>
      <point x="834.6202136314906" y="415.3966135388024"/>
      <point x="831.0037521914826" y="401.76216093614977" type="curve" smooth="yes"/>
      <point x="831.0014239347139" y="223.07054252389992" type="line" smooth="yes"/>
      <point x="834.0171787230531" y="209.10136545487"/>
      <point x="833.0040018663782" y="188.51066789091186"/>
      <point x="829.9471355201371" y="183.8797118477508" type="curve" smooth="yes"/>
      <point x="788.4683775483754" y="161.945625652164"/>
      <point x="700.4038382384796" y="145.93635836793044"/>
      <point x="591.7279840576831" y="146.0007662172842" type="curve" smooth="yes"/>
      <point x="395.79495134119895" y="143.8689339036888"/>
      <point x="279.3577387466471" y="312.29520626489483"/>
      <point x="281.9999957572177" y="593.9920019941733" type="curve" smooth="yes"/>
      <point x="278.799085194831" y="875.1699811116234"/>
      <point x="410.13841081707756" y="1043.0133782688151"/>
      <point x="601.747202383313" y="1040.999338229263" type="curve" smooth="yes"/>
      <point x="706.1315987611187" y="1041.14413791354"/>
      <point x="792.3686150438061" y="1017.4387970208704"/>
      <point x="883.3811867901323" y="962.6590627519176" type="curve" smooth="yes"/>
      <point x="930.4196504793646" y="944.1514166852817"/>
      <point x="1015.2753358297214" y="948.1774755247296"/>
      <point x="1055.0275939615035" y="1007.3270464058664" type="curve" smooth="yes"/>
      <point x="1080.6089587837096" y="1060.7789441874513"/>
      <point x="1058.0462542719429" y="1111.4561265710981"/>
      <point x="1001.7138852735444" y="1135.6511186499397" type="curve" smooth="yes"/>
      <point x="872.3466624647142" y="1202.6643241511417"/>
      <point x="741.0942424464846" y="1228.9054781519337"/>
      <point x="601.8344001423021" y="1229.0002839720962" type="curve" smooth="yes"/>
      <point x="267.71712714254267" y="1227.2438749917092"/>
      <point x="11.757693770121783" y="970.7197278569654"/>
    </contour>
  </outline>
</glyph>
<glyph name="H" format="2">
  <advance width="1046"/>
  <unicode hex="0048"/>
  <outline>
    <contour>
      <point x="885.5821415298675" y="1217.0018081639666" type="line" smooth="yes"/>
      <point x="811.6521034472331" y="1216.9847647636425"/>
      <point x="755.4758148326272" y="1181.385847724574"/>
      <point x="752.0000954617842" y="1131.9620623230157" type="curve" smooth="yes"/>
      <point x="752.0008025553525" y="732.1099994480219" type="line" smooth="yes"/>
      <point x="755.6202136314906" y="718.6033864611976"/>
      <point x="770.4854927023318" y="700.9813548161785"/>
      <point x="764.1703063705604" y="704.0003003431906" type="curve" smooth="yes"/>
      <point x="281.8296936294396" y="704.0003003431906" type="line" smooth="yes"/>
      <point x="275.5145072976682" y="700.9813548161785"/>
      <point x="290.3797863685094" y="718.6033864611975"/>
      <point x="293.9991974446475" y="732.1099994480219" type="curve" smooth="yes"/>
      <point x="293.9999045382158" y="1131.9620623230157" type="line" smooth="yes"/>
      <point x="290.52418516737276" y="1181.385847724574"/>
      <point x="234.3478965527669" y="1216.9847647636425"/>
      <point x="160.41785847013256" y="1217.0018081639666" type="curve" smooth="yes"/>
      <point x="157.58214152986744" y="1217.0018081639666" type="line" smooth="yes"/>
      <point x="83.65210344723309" y="1216.9847647636425"/>
      <point x="27.475814832627243" y="1181.385847724574"/>
      <point x="24.00001542573407" y="1131.9847496709233" type="curve" smooth="yes"/>
      <point x="24.00001542573407" y="55.01525032907661" type="line" smooth="yes"/>
      <point x="27.475814832627247" y="5.614152275426063"/>
      <point x="83.65210344723309" y="-29.984764763642374"/>
      <point x="157.5821415298674" y="-30.00180816396666" type="curve" smooth="yes"/>
      <point x="160.4178584701326" y="-30.00180816396666" type="line" smooth="yes"/>
      <point x="234.3478965527669" y="-29.984764763642374"/>
      <point x="290.52418516737276" y="5.614152275426063"/>
      <point x="293.9999183543432" y="55.035085087350566" type="curve" smooth="yes"/>
      <point x="293.9993245364674" y="491.899085286323" type="line" smooth="yes"/>
      <point x="290.3797863685094" y="505.3966135388025"/>
      <point x="275.5145072976682" y="523.0186451838215"/>
      <point x="281.8296936294396" y="519.9996996568094" type="curve" smooth="yes"/>
      <point x="764.1703063705604" y="519.9996996568094" type="line" smooth="yes"/>
      <point x="770.4854927023318" y="523.0186451838215"/>
      <point x="755.6202136314906" y="505.39661353880246"/>
      <point x="752.0006754635326" y="491.899085286323" type="curve" smooth="yes"/>
      <point x="752.0000816456568" y="55.035085087350566" type="line" smooth="yes"/>
      <point x="755.4758148326272" y="5.61415227542607"/>
      <point x="811.6521034472331" y="-29.984764763642374"/>
      <point x="885.5821415298674" y="-30.00180816396666" type="curve" smooth="yes"/>
      <point x="888.4178584701326" y="-30.00180816396666" type="line" smooth="yes"/>
      <point x="962.3478965527669" y="-29.984764763642374"/>
      <point x="1018.5241851673728" y="5.61415227542607"/>
      <point x="1021.9999845742659" y="55.0152503290766" type="curve" smooth="yes"/>
      <point x="1021.9999845742659" y="1131.9847496709233" type="line" smooth="yes"/>
      <point x="1018.5241851673728" y="1181.385847724574"/>
      <point x="962.3478965527669" y="1216.9847647636425"/>
      <point x="888.4178584701325" y="1217.0018081639666" type="curve" smooth="yes"/>
    </contour>
  </outline>
</glyph>
<glyph name="I" format="2">
  <advance width="520"/>
  <unicode hex="0049"/>
  <outline>
    <contour>
      <point x="99.58211429049076" y="164.1074893937188" type="line" smooth="yes"/>
      <point x="46.43014379471262" y="157.26954388670103"/>
      <point x="24.39397926698562" y="124.40935142245422"/>
      <point x="24.0" y="72.0" type="curve" smooth="yes"/>
      <point x="24.39397926698562" y="19.59064857754578"/>
      <point x="46.43014379471262" y="-13.269543886701008"/>
      <point x="102.00877019641288" y="-20.00644799280715" type="curve" smooth="yes"/>
      <point x="418.291229803587" y="-20.00644799280715" type="line" smooth="yes"/>
      <point x="473.8698562052873" y="-13.26954388670104"/>
      <point x="495.9060207330143" y="19.59064857754578"/>
      <point x="496.29999999999995" y="72.0" type="curve" smooth="yes"/>
      <point x="495.9060207330143" y="124.40935142245422"/>
      <point x="473.8698562052873" y="157.26954388670103"/>
      <point x="420.7178857095091" y="164.1074893937188" type="curve" smooth="yes"/>
      <point x="368.11504563206506" y="164.02729918633636" type="line" smooth="yes"/>
      <point x="348.9195384719909" y="164.1543824847425"/>
      <point x="385.637020698319" y="183.84502617604497"/>
      <point x="395.1498061317682" y="178.64199329069857" type="curve" smooth="yes"/>
      <point x="395.14980551435076" y="1010.8642923697915" type="line" smooth="yes"/>
      <point x="373.2528395022059" y="1000.0275928690769"/>
      <point x="339.74584615503005" y="1016.1772122558119"/>
      <point x="365.44349120866974" y="1022.9668538565898" type="curve" smooth="yes"/>
      <point x="414.88304255685694" y="1022.8834175127995" type="line" smooth="yes"/>
      <point x="467.9023045828685" y="1029.7304561132992"/>
      <point x="489.9384691105954" y="1062.5906485775458"/>
      <point x="490.33244837758104" y="1115.0" type="curve" smooth="yes"/>
      <point x="489.9384691105954" y="1167.4093514224542"/>
      <point x="467.9023045828685" y="1200.269543886701"/>
      <point x="412.35126959250147" y="1207.0069069549963" type="curve" smooth="yes"/>
      <point x="107.94873040749857" y="1207.0069069549963" type="line" smooth="yes"/>
      <point x="52.39769541713157" y="1200.269543886701"/>
      <point x="30.361530889404484" y="1167.4093514224542"/>
      <point x="29.967551622418853" y="1115.0" type="curve" smooth="yes"/>
      <point x="30.361530889404484" y="1062.5906485775458"/>
      <point x="52.39769541713157" y="1029.730456113299"/>
      <point x="105.4169574431431" y="1022.8834175127995" type="curve" smooth="yes"/>
      <point x="154.85650879133027" y="1022.9668538565898" type="line" smooth="yes"/>
      <point x="180.5541538449699" y="1016.1772122558118"/>
      <point x="147.0471604977946" y="1000.0275928690768"/>
      <point x="125.15019448564917" y="1010.8642923697917" type="curve" smooth="yes"/>
      <point x="125.15019386823177" y="178.6419932906986" type="line" smooth="yes"/>
      <point x="134.66297930168085" y="183.84502617604494"/>
      <point x="171.38046152800905" y="164.1543824847425"/>
      <point x="152.1849543679349" y="164.02729918633636" type="curve" smooth="yes"/>
    </contour>
  </outline>
</glyph>
<glyph name="J" format="2">
  <advance width="683"/>
  <unicode hex="004A"/>
  <outline>
    <contour>
      <point x="236.2855564490551" y="1207.0009969985786" type="line" smooth="yes"/>
      <point x="179.15760946927588" y="1205.417352423367"/>
      <point x="140.86358844705708" y="1168.1833996178138"/>
      <point x="139.54553381914548" y="1115.0" type="curve" smooth="yes"/>
      <point x="140.86358844705708" y="1061.8166003821862"/>
      <point x="179.15760946927588" y="1024.582647576633"/>
      <point x="236.0831794267241" y="1022.9972781788205" type="curve" smooth="yes"/>
      <point x="401.37891319114703" y="1022.9976247912466" type="line" smooth="yes"/>
      <point x="407.3854927023318" y="1026.0186451838215"/>
      <point x="392.5202136314906" y="1008.3966135388024"/>
      <point x="388.90032789258674" y="994.9296894023935" type="curve" smooth="yes"/>
      <point x="388.90000538740287" y="363.0090125163361" type="line" smooth="yes"/>
      <point x="389.59501612395354" y="214.1141972144565"/>
      <point x="376.3745609224484" y="142.45693536120052"/>
      <point x="319.2148875906564" y="146.00789630546225" type="curve" smooth="yes"/>
      <point x="272.9394806669133" y="145.17254731268895"/>
      <point x="238.04117499592877" y="175.17683285342432"/>
      <point x="196.0811652503858" y="234.210025427486" type="curve" smooth="yes"/>
      <point x="159.9888872645315" y="256.659267514057"/>
      <point x="73.3044964837973" y="256.6346144588455"/>
      <point x="38.84534765379055" y="203.9074408231076" type="curve" smooth="yes"/>
      <point x="18.503643603420848" y="154.9741439482314"/>
      <point x="25.407147708829086" y="109.88852733949967"/>
      <point x="54.81866066170785" y="79.53949077228441" type="curve" smooth="yes"/>
      <point x="123.39657021403241" y="1.684207298241553"/>
      <point x="225.29470435807715" y="-41.44952598534996"/>
      <point x="317.96297908410537" y="-42.000453685067335" type="curve" smooth="yes"/>
      <point x="486.9082129632994" y="-40.3673738097675"/>
      <point x="654.7021301482964" y="97.03590447631687"/>
      <point x="658.8999359528617" y="333.03107462931604" type="curve" smooth="yes"/>
      <point x="658.8999583763705" y="1118.9749489369945" type="line" smooth="yes"/>
      <point x="655.0653610559092" y="1173.25073944019"/>
      <point x="597.7020340778191" y="1206.8751096650767"/>
      <point x="535.9970001714904" y="1207.000097431157" type="curve" smooth="yes"/>
    </contour>
  </outline>
</glyph>
<glyph name="K" format="2">
  <advance width="988"/>
  <unicode hex="004B"/>
  <outline>
    <contour>
      <point x="127.58214152986744" y="1217.0018081639666" type="line" smooth="yes"/>
      <point x="53.6521034472331" y="1216.9847647636425"/>
      <point x="-2.5241851673727567" y="1181.385847724574"/>
      <point x="-5.99998457426593" y="1131.9847496709233" type="curve" smooth="yes"/>
      <point x="-5.99998457426593" y="55.01525032907661" type="line" smooth="yes"/>
      <point x="-2.5241851673727496" y="5.614152275426063"/>
      <point x="53.6521034472331" y="-29.984764763642374"/>
      <point x="127.5821415298674" y="-30.00180816396666" type="curve" smooth="yes"/>
      <point x="130.4178584701326" y="-30.00180816396666" type="line" smooth="yes"/>
      <point x="204.3478965527669" y="-29.984764763642374"/>
      <point x="260.52418516737276" y="5.614152275426063"/>
      <point x="263.99980408744375" y="55.05434838923385" type="curve" smooth="yes"/>
      <point x="263.9998526677437" y="317.5402715597468" type="line" smooth="yes"/>
      <point x="262.38833124095163" y="338.23082725643116"/>
      <point x="271.4215122175425" y="372.14234791166604"/>
      <point x="280.4819119095661" y="386.80442277184636" type="curve" smooth="yes"/>
      <point x="388.9984617356362" y="500.9132553488878" type="line" smooth="yes"/>
      <point x="395.2236623696676" y="509.55592850770745"/>
      <point x="354.06618005021943" y="508.16590846366563"/>
      <point x="359.21217233265963" y="499.3954526278926" type="curve" smooth="yes"/>
      <point x="744.3214117514817" y="-6.069048063185257" type="line" smooth="yes"/>
      <point x="789.5985693898662" y="-43.86138097336389"/>
      <point x="865.0033364069718" y="-43.36423716314172"/>
      <point x="920.8581368683267" y="-17.422793239942898" type="curve" smooth="yes"/>
      <point x="985.3595803929851" y="12.36131575664985"/>
      <point x="1002.5558113360535" y="63.931945674225005"/>
      <point x="964.7476631614613" y="104.15076742586905" type="curve" smooth="yes"/>
      <point x="559.7278287670041" y="634.871335572161" type="line" smooth="yes"/>
      <point x="553.8611705567614" y="646.1506369732739"/>
      <point x="553.4938856755006" y="672.1353678024725"/>
      <point x="559.4650263869075" y="682.1623152459943" type="curve" smooth="yes"/>
      <point x="935.6242592975099" y="1080.2253249057103" type="line" smooth="yes"/>
      <point x="979.5358844536722" y="1116.1650398178274"/>
      <point x="970.7217998196022" y="1170.3872627155704"/>
      <point x="908.0173382692282" y="1203.777445164257" type="curve" smooth="yes"/>
      <point x="854.5142302894502" y="1231.418298483727"/>
      <point x="778.4707240307887" y="1234.5708219052365"/>
      <point x="731.3525700129045" y="1204.6516818127352" type="curve" smooth="yes"/>
      <point x="193.10249617207387" y="632.6138331821654" type="line" smooth="yes"/>
      <point x="189.79626142450303" y="642.4225363726694"/>
      <point x="234.32706101196882" y="635.4134980145277"/>
      <point x="263.999401664439" y="631.9972614252321" type="curve" smooth="yes"/>
      <point x="263.999935858417" y="1131.9689024676238" type="line" smooth="yes"/>
      <point x="260.52418516737276" y="1181.385847724574"/>
      <point x="204.3478965527669" y="1216.9847647636425"/>
      <point x="130.41785847013256" y="1217.0018081639666" type="curve" smooth="yes"/>
    </contour>
  </outline>
</glyph>
<glyph name="L" format="2">
  <advance width="849"/>
  <unicode hex="004C"/>
  <outline>
    <contour>
      <point x="152.58214152986744" y="1217.0018081639666" type="line" smooth="yes"/>
      <point x="78.65210344723309" y="1216.9847647636425"/>
      <point x="22.475814832627243" y="1181.385847724574"/>
      <point x="19.000015786209172" y="1131.9845725118987" type="curve" smooth="yes"/>
      <point x="19.000010637302307" y="68.01266403394706" type="line" smooth="yes"/>
      <point x="21.99020345608437" y="15.10604507435606"/>
      <point x="75.8752175601376" y="-19.952906119014653"/>
      <point x="141.946058055796" y="-20.000030130407293" type="curve" smooth="yes"/>
      <point x="717.2948211144769" y="-20.00008681895236" type="line" smooth="yes"/>
      <point x="779.4447884304026" y="-19.511143962483658"/>
      <point x="827.8119299874306" y="17.729669212441998"/>
      <point x="830.05" y="72.0" type="curve" smooth="yes"/>
      <point x="827.8119299874306" y="126.270330787558"/>
      <point x="779.4447884304026" y="163.51114396248366"/>
      <point x="717.3200485901937" y="164.0001412490381" type="curve" smooth="yes"/>
      <point x="276.8139174708605" y="164.00035856517394" type="line" smooth="yes"/>
      <point x="270.51450729766833" y="160.9813548161785"/>
      <point x="285.3797863685094" y="178.60338646119757"/>
      <point x="288.9998501049737" y="192.04753892369934" type="curve" smooth="yes"/>
      <point x="288.9999800342967" y="1131.9826500358186" type="line" smooth="yes"/>
      <point x="285.52418516737276" y="1181.385847724574"/>
      <point x="229.3478965527669" y="1216.9847647636425"/>
      <point x="155.41785847013256" y="1217.0018081639666" type="curve" smooth="yes"/>
    </contour>
  </outline>
</glyph>
<glyph name="M" format="2">
  <advance width="1090"/>
  <unicode hex="004D"/>
  <outline>
    <contour>
      <point x="906.5343773734064" y="1217.002638496196" type="line" smooth="yes"/>
      <point x="843.3911416963573" y="1216.5588994554155"/>
      <point x="784.4154842130703" y="1188.5776400339353"/>
      <point x="755.6486571334855" y="1140.4172659434794" type="curve" smooth="yes"/>
      <point x="510.7977254643674" y="614.0389582176336" type="line" smooth="yes"/>
      <point x="522.4514507159608" y="621.9430481288341"/>
      <point x="567.6268174508515" y="621.9430481288341"/>
      <point x="579.2805427024451" y="614.0389582176336" type="curve" smooth="yes"/>
      <point x="334.4308250299137" y="1140.4186670507265" type="line" smooth="yes"/>
      <point x="305.9898511140312" y="1188.3936758734717"/>
      <point x="247.90904186198694" y="1216.5503749053205"/>
      <point x="184.5557917314749" y="1217.002764394044" type="curve" smooth="yes"/>
      <point x="181.7307793516081" y="1217.0009846181808" type="line" smooth="yes"/>
      <point x="120.19178734461059" y="1217.05056624688"/>
      <point x="53.4808674863957" y="1188.8453209569657"/>
      <point x="46.0635042038261" y="1132.5182535946863" type="curve" smooth="yes"/>
      <point x="16.061141216152812" y="55.568636607010305" type="line" smooth="yes"/>
      <point x="18.26166058204457" y="5.92936341533589"/>
      <point x="74.61084043759983" y="-30.00266022641498"/>
      <point x="148.62127561327358" y="-30.00180816396666" type="curve" smooth="yes"/>
      <point x="151.4672656708288" y="-30.001898170977867" type="line" smooth="yes"/>
      <point x="225.57538319254536" y="-29.974476984751767"/>
      <point x="280.5378569429058" y="5.644887621514284"/>
      <point x="285.0186444966289" y="54.505480928203234" type="curve" smooth="yes"/>
      <point x="304.78133968748745" y="819.4633460535032" type="line" smooth="yes"/>
      <point x="279.57220236505805" y="819.1516469737805"/>
      <point x="218.85490139814848" y="811.3405604689054"/>
      <point x="211.77486343656983" y="815.9850482847592" type="curve" smooth="yes"/>
      <point x="398.6384610468332" y="413.59086418798717" type="line" smooth="yes"/>
      <point x="427.76580671211303" y="363.9048026016777"/>
      <point x="484.1590038179514" y="338.3059647664175"/>
      <point x="545.0391340834062" y="338.0" type="curve" smooth="yes"/>
      <point x="605.919264348861" y="338.30596476641756"/>
      <point x="662.3124614546994" y="363.9048026016777"/>
      <point x="691.4398071199793" y="413.59086418798717" type="curve" smooth="yes"/>
      <point x="878.3034047302424" y="815.9850482847592" type="line" smooth="yes"/>
      <point x="871.2233667686636" y="811.3405604689054"/>
      <point x="810.5060658017544" y="819.1516469737803"/>
      <point x="785.296928479325" y="819.4633460535032" type="curve" smooth="yes"/>
      <point x="805.0596236701834" y="54.50548092820323" type="line" smooth="yes"/>
      <point x="809.5404112239065" y="5.6448876215142905"/>
      <point x="864.5028849742671" y="-29.974476984751764"/>
      <point x="938.6110024959836" y="-30.001898170977867" type="curve" smooth="yes"/>
      <point x="941.4569925535388" y="-30.00180816396666" type="line" smooth="yes"/>
      <point x="1015.4674277292125" y="-30.00266022641498"/>
      <point x="1071.8166075847678" y="5.929363415335901"/>
      <point x="1074.0171269506595" y="55.568636607010305" type="curve" smooth="yes"/>
      <point x="1044.014875088783" y="1132.5202683318269" type="line" smooth="yes"/>
      <point x="1036.8811158001856" y="1188.544644407791"/>
      <point x="971.115256905773" y="1217.0587567010652"/>
      <point x="909.355137269758" y="1217.0010340708766" type="curve" smooth="yes"/>
    </contour>
  </outline>
</glyph>
<glyph name="N" format="2">
  <advance width="1030"/>
  <unicode hex="004E"/>
  <outline>
    <contour>
      <point x="879.5476529762883" y="1217.0021189840425" type="line" smooth="yes"/>
      <point x="807.2714891353298" y="1216.963523350733"/>
      <point x="751.4583222757068" y="1181.4070786699701"/>
      <point x="748.0000243964039" y="1131.9808213000465" type="curve" smooth="yes"/>
      <point x="748.0654398415993" y="288.1507231722473" type="line"/>
      <point x="855.2568272728448" y="298.5551330188122" type="line"/>
      <point x="290.516806466307" y="1179.7647115725658" type="line" smooth="yes"/>
      <point x="266.01951109804634" y="1201.8995086963255"/>
      <point x="219.9987213822187" y="1216.7610997005247"/>
      <point x="178.27391561996174" y="1217.000776957015" type="curve" smooth="yes"/>
      <point x="150.70368128786134" y="1217.0009092506123" type="line" smooth="yes"/>
      <point x="76.9157386648486" y="1216.9771538386676"/>
      <point x="19.707366485816493" y="1181.732709068064"/>
      <point x="16.000018901736187" y="1131.9831186517454" type="curve" smooth="yes"/>
      <point x="16.00001542573407" y="55.01525032907661" type="line" smooth="yes"/>
      <point x="19.45832227570687" y="5.592921330029865"/>
      <point x="75.27148913532983" y="-29.963523350732977"/>
      <point x="147.54765297628825" y="-30.00211898404247" type="curve" smooth="yes"/>
      <point x="150.45234702371175" y="-30.00211898404247" type="line" smooth="yes"/>
      <point x="222.72851086467014" y="-29.963523350732977"/>
      <point x="278.5416777242931" y="5.592921330029865"/>
      <point x="281.999976703061" y="55.0187415580841" type="curve" smooth="yes"/>
      <point x="281.9377822125525" y="919.8778280965857" type="line"/>
      <point x="174.77724725381398" y="909.4357262046717" type="line"/>
      <point x="744.4900796847837" y="22.209920583486834" type="line" smooth="yes"/>
      <point x="771.836406338671" y="-13.304190753603422"/>
      <point x="820.9253673813414" y="-41.10199514044247"/>
      <point x="878.9580556933297" y="-42.00001821787285" type="curve" smooth="yes"/>
      <point x="951.5913547481287" y="-41.511410871419514"/>
      <point x="1008.8364502600289" y="-3.984984746099572"/>
      <point x="1013.9999462916501" y="37.028456208897225" type="curve" smooth="yes"/>
      <point x="1013.9999850533484" y="1131.984988356114" type="line" smooth="yes"/>
      <point x="1010.5416777242932" y="1181.4070786699701"/>
      <point x="954.7285108646702" y="1216.963523350733"/>
      <point x="882.4523470237117" y="1217.0021189840425" type="curve" smooth="yes"/>
    </contour>
  </outline>
</glyph>
<glyph name="O" format="2">
  <advance width="1184"/>
  <unicode hex="004F"/>
  <outline>
    <contour>
      <point x="8.000000000654914" y="593.0000993687079" type="curve" smooth="yes"/>
      <point x="11.298374802525569" y="216.73165553938392"/>
      <point x="251.3111462161135" y="-40.188023745050856"/>
      <point x="592.0" y="-42.0" type="curve" smooth="yes"/>
      <point x="932.6888537838865" y="-40.188023745050856"/>
      <point x="1172.7016251974744" y="216.73165553938392"/>
      <point x="1175.9999999993452" y="593.0000993687079" type="curve" smooth="yes"/>
      <point x="1172.7117287084948" y="969.2595689507607"/>
      <point x="932.7716253558395" y="1227.174444338034"/>
      <point x="592.0" y="1229.0" type="curve" smooth="yes"/>
      <point x="251.22837464416043" y="1227.174444338034"/>
      <point x="11.288271291505307" y="969.2595689507607"/>
    </contour>
    <contour>
      <point x="902.0000000015791" y="593.0001542998621" type="curve" smooth="yes"/>
      <point x="904.5798589312781" y="309.2420685932653"/>
      <point x="790.5853332870146" y="143.92196341383104"/>
      <point x="592.0" y="146.0" type="curve" smooth="yes"/>
      <point x="393.4146667129855" y="143.92196341383104"/>
      <point x="279.4201410687219" y="309.2420685932653"/>
      <point x="281.9999999984209" y="593.0001542998621" type="curve" smooth="yes"/>
      <point x="279.4298591317077" y="876.771096238075"/>
      <point x="393.53910889847174" y="1043.0963548673287"/>
      <point x="592.0" y="1041.0" type="curve" smooth="yes"/>
      <point x="790.4608911015283" y="1043.0963548673287"/>
      <point x="904.5701408682922" y="876.771096238075"/>
    </contour>
  </outline>
</glyph>
<glyph name="P" format="2">
  <advance width="885"/>
  <unicode hex="0050"/>
  <outline>
    <contour>
      <point x="132.90611639061729" y="1207.0000912708963" type="line" smooth="yes"/>
      <point x="67.95731594517466" y="1206.9328473507467"/>
      <point x="13.191918861958538" y="1172.2389705459125"/>
      <point x="10.000013216767051" y="1118.9858837636211" type="curve" smooth="yes"/>
      <point x="10.000015786209172" y="55.01542748810124" type="line" smooth="yes"/>
      <point x="13.475814832627247" y="5.614152275426063"/>
      <point x="69.65210344723309" y="-29.984764763642374"/>
      <point x="143.5821415298674" y="-30.00180816396666" type="curve" smooth="yes"/>
      <point x="146.4178584701326" y="-30.00180816396666" type="line" smooth="yes"/>
      <point x="220.3478965527669" y="-29.984764763642374"/>
      <point x="276.52418516737276" y="5.614152275426063"/>
      <point x="279.99983397732103" y="55.05003102206082" type="curve" smooth="yes"/>
      <point x="279.99850367658485" y="344.84980245056846" type="line" smooth="yes"/>
      <point x="276.3797863685094" y="358.39661353880246"/>
      <point x="261.51450729766833" y="376.0186451838215"/>
      <point x="267.54357776845995" y="372.997842661039" type="curve" smooth="yes"/>
      <point x="441.1102004488754" y="372.9997150755597" type="line" smooth="yes"/>
      <point x="707.5974218743445" y="374.49992830718736"/>
      <point x="871.9878940035167" y="546.9572295679733"/>
      <point x="875.2499999442848" y="788.000916522957" type="curve" smooth="yes"/>
      <point x="872.0490309978668" y="1029.9893734394814"/>
      <point x="707.9570918042219" y="1205.4454597035697"/>
      <point x="441.0746380982343" y="1207.000175850085" type="curve" smooth="yes"/>
    </contour>
    <contour>
      <point x="267.49348445599827" y="557.002656917757" type="line" smooth="yes"/>
      <point x="261.5145072976682" y="553.9813548161785"/>
      <point x="276.3797863685094" y="571.6033864611975"/>
      <point x="279.9992351182952" y="585.1073866518622" type="curve" smooth="yes"/>
      <point x="279.9992351182952" y="994.8926133481378" type="line" smooth="yes"/>
      <point x="276.3797863685094" y="1008.3966135388025"/>
      <point x="261.5145072976682" y="1026.0186451838215"/>
      <point x="267.49348445599827" y="1022.997343082243" type="curve" smooth="yes"/>
      <point x="422.9178111939486" y="1022.9997045866461" type="line" smooth="yes"/>
      <point x="574.0659789545273" y="1024.397969385249"/>
      <point x="624.7595277098369" y="941.8371239824211"/>
      <point x="621.8169582347382" y="788.002596776938" type="curve" smooth="yes"/>
      <point x="624.84548617688" y="636.2652984121902"/>
      <point x="574.4705001352653" y="555.6496605698061"/>
      <point x="422.91119032015433" y="557.0002727070723" type="curve" smooth="yes"/>
    </contour>
  </outline>
</glyph>
<glyph name="Q" format="2">
  <advance width="1168"/>
  <unicode hex="0051"/>
  <outline>
    <contour>
      <point x="516.384925456487" y="289.17280767600516" type="curve" smooth="yes"/>
      <point x="647.4226944413374" y="84.24033613675546" type="line"/>
      <point x="673.5435469541412" y="43.17745342002923" type="line"/>
      <point x="795.7068082494186" y="-145.81399844667087" type="line" smooth="yes"/>
      <point x="834.7544607646448" y="-186.95850177296876"/>
      <point x="912.3539043513581" y="-197.53332294909384"/>
      <point x="976.0579503049364" y="-165.91603141264275" type="curve" smooth="yes"/>
      <point x="1038.1661199864784" y="-134.09804096897759"/>
      <point x="1055.1974980023829" y="-84.11813204622739"/>
      <point x="1022.5050388445878" y="-43.16072585455762" type="curve" smooth="yes"/>
      <point x="743.4733358793842" y="391.77042607924284" type="line" smooth="yes"/>
      <point x="704.7137864648219" y="433.77345240855334"/>
      <point x="626.6767349417901" y="444.5302775268443"/>
      <point x="562.3553718897236" y="412.7710797926623" type="curve" smooth="yes"/>
      <point x="501.8620287671588" y="380.0765335824399"/>
      <point x="483.62843831113713" y="331.4462529895068"/>
    </contour>
    <component base="O"/>
  </outline>
</glyph>
<glyph name="R" format="2">
  <advance width="972"/>
  <unicode hex="0052"/>
  <outline>
    <contour>
      <point x="141.90962274020583" y="1207.0000845806455" type="line" smooth="yes"/>
      <point x="76.95731594517466" y="1206.9328473507467"/>
      <point x="22.191918861958538" y="1172.2389705459125"/>
      <point x="19.00001321676705" y="1118.9858837636211" type="curve" smooth="yes"/>
      <point x="19.000015786209172" y="55.01542748810124" type="line" smooth="yes"/>
      <point x="22.475814832627247" y="5.614152275426063"/>
      <point x="78.65210344723309" y="-29.984764763642374"/>
      <point x="152.5821415298674" y="-30.00180816396666" type="curve" smooth="yes"/>
      <point x="155.4178584701326" y="-30.00180816396666" type="line" smooth="yes"/>
      <point x="229.3478965527669" y="-29.984764763642374"/>
      <point x="285.52418516737276" y="5.614152275426063"/>
      <point x="288.99989058819676" y="55.040615143364455" type="curve" smooth="yes"/>
      <point x="288.99906608123" y="424.8813392711673" type="line" smooth="yes"/>
      <point x="285.3797863685094" y="438.39661353880246"/>
      <point x="270.51450729766833" y="456.0186451838215"/>
      <point x="276.3864947685312" y="452.99610194152274" type="curve" smooth="yes"/>
      <point x="403.12349327376097" y="452.999141551366" type="line" smooth="yes"/>
      <point x="410.8859607307429" y="454.01481343951866"/>
      <point x="424.3810805705866" y="438.44674919209797"/>
      <point x="426.5524204013548" y="421.8073310674639" type="curve" smooth="yes"/>
      <point x="698.6897996313907" y="2.179860670929889" type="line" smooth="yes"/>
      <point x="736.925105546233" y="-35.36131059797378"/>
      <point x="809.5026013690118" y="-41.03485864615837"/>
      <point x="870.7826995288111" y="-18.27775198852897" type="curve" smooth="yes"/>
      <point x="938.632210968822" y="6.170544866106457"/>
      <point x="962.624962815962" y="56.613427800968964"/>
      <point x="929.2464855881282" y="98.99307825870488" type="curve" smooth="yes"/>
      <point x="691.3546538198134" y="461.12864417562076" type="line" smooth="yes"/>
      <point x="665.6655193867537" y="461.04781541844903"/>
      <point x="645.5966337064558" y="482.4848472712479"/>
      <point x="676.0569446653598" y="482.8926103261933" type="curve" smooth="yes"/>
      <point x="822.1599278365061" y="517.7930264155747"/>
      <point x="933.2809983404708" y="651.8677346289268"/>
      <point x="935.9999351053946" y="827.9687204579242" type="curve" smooth="yes"/>
      <point x="931.5753732031179" y="1051.0681759983597"/>
      <point x="754.1879758783165" y="1205.9936136820186"/>
      <point x="464.0810303808697" y="1207.000067990488" type="curve" smooth="yes"/>
    </contour>
    <contour>
      <point x="288.99883412915085" y="994.8674203974696" type="line" smooth="yes"/>
      <point x="285.3797863685094" y="1008.3966135388025"/>
      <point x="270.5145072976682" y="1026.0186451838215"/>
      <point x="276.525674337049" y="1022.9976700815063" type="curve" smooth="yes"/>
      <point x="443.0858128120044" y="1022.9999237470247" type="line" smooth="yes"/>
      <point x="615.8074405658951" y="1023.8222743918741"/>
      <point x="666.3278777313143" y="960.4396089400785"/>
      <point x="662.0000017249182" y="828.0050996527051" type="curve" smooth="yes"/>
      <point x="666.4764363067537" y="697.6916762091882"/>
      <point x="616.2055635339146" y="636.2152291680974"/>
      <point x="443.08140020554566" y="637.0000686125264" type="curve" smooth="yes"/>
      <point x="276.525674337049" y="637.0023299184937" type="line" smooth="yes"/>
      <point x="270.5145072976682" y="633.9813548161785"/>
      <point x="285.3797863685094" y="651.6033864611975"/>
      <point x="288.99883412915085" y="665.1325796025304" type="curve" smooth="yes"/>
    </contour>
  </outline>
</glyph>
<glyph name="S" format="2">
  <advance width="1015"/>
  <unicode hex="0053"/>
  <outline>
    <contour>
      <point x="5.430040387194769" y="862.9384478616918" type="curve" smooth="yes"/>
      <point x="8.541312200527816" y="718.0751954917951"/>
      <point x="99.21654424445774" y="634.4501610371937"/>
      <point x="204.71660932077842" y="589.7856231851854" type="curve" smooth="yes"/>
      <point x="354.8718286841013" y="526.3630634709255"/>
      <point x="547.3349038893591" y="524.2961707180143"/>
      <point x="656.8806735021999" y="473.58597528271076" type="curve" smooth="yes"/>
      <point x="721.1273124435517" y="444.58412378516465"/>
      <point x="744.7133854437121" y="406.55416505579797"/>
      <point x="741.4301606073027" y="327.0748411206507" type="curve" smooth="yes"/>
      <point x="746.2733615617642" y="217.88095388808952"/>
      <point x="694.7160876280938" y="145.06161134154104"/>
      <point x="515.499900425441" y="146.00005090125924" type="curve" smooth="yes"/>
      <point x="394.69923002341176" y="145.692907032717"/>
      <point x="284.4795561753711" y="189.05945054174177"/>
      <point x="195.70883129965785" y="248.7780031687066" type="curve" smooth="yes"/>
      <point x="149.5308725998185" y="268.6863370624051"/>
      <point x="65.13968672815594" y="265.4571924424632"/>
      <point x="21.316833710044854" y="208.10423112199916" type="curve" smooth="yes"/>
      <point x="-9.695389196901253" y="156.3182867605682"/>
      <point x="8.951219238961219" y="103.56770873629542"/>
      <point x="62.65139999669199" y="76.93449191569321" type="curve" smooth="yes"/>
      <point x="188.6625360362123" y="2.660911135086554"/>
      <point x="353.92922366702095" y="-41.80701113599293"/>
      <point x="515.5044533758952" y="-42.000057726867354" type="curve" smooth="yes"/>
      <point x="828.4767677127353" y="-41.111550793148595"/>
      <point x="1010.5546569798223" y="113.56460366765249"/>
      <point x="1015.4297384524315" y="327.0276326332016" type="curve" smooth="yes"/>
      <point x="1012.0380570069306" y="509.23578778012256"/>
      <point x="899.1773761946812" y="604.0705803312374"/>
      <point x="771.8411768473968" y="652.5470850971046" type="curve" smooth="yes"/>
      <point x="608.706931404697" y="714.7126386304543"/>
      <point x="412.67416442648585" y="713.687126041886"/>
      <point x="323.67197969051966" y="765.8781268958812" type="curve" smooth="yes"/>
      <point x="283.28217161239996" y="787.251226327742"/>
      <point x="277.0780465706811" y="813.9928598669128"/>
      <point x="279.42844259194067" y="862.8575197332432" type="curve" smooth="yes"/>
      <point x="274.3212369009435" y="975.9829036258075"/>
      <point x="327.6638969860431" y="1042.0150800031056"/>
      <point x="471.3232691996041" y="1040.9998825062826" type="curve" smooth="yes"/>
      <point x="594.3798000730187" y="1041.1925925824053"/>
      <point x="695.6303681546278" y="1008.6022178644077"/>
      <point x="785.889673810747" y="951.8615114003111" type="curve" smooth="yes"/>
      <point x="833.4012234653045" y="933.0262817843224"/>
      <point x="918.0508209071938" y="937.8743827191022"/>
      <point x="958.7732138448547" y="995.8020643344446" type="curve" smooth="yes"/>
      <point x="986.7928548428183" y="1049.1487053254584"/>
      <point x="966.9009820879437" y="1100.8545115919792"/>
      <point x="911.428961048044" y="1126.4190201207061" type="curve" smooth="yes"/>
      <point x="782.1197369316354" y="1196.6246837739232"/>
      <point x="630.9131292760677" y="1228.8908525286759"/>
      <point x="471.34018413202585" y="1229.0000831412945" type="curve" smooth="yes"/>
      <point x="212.77314574325268" y="1228.147279359924"/>
      <point x="11.532490868871417" y="1088.4328150520203"/>
    </contour>
  </outline>
</glyph>
<glyph name="T" format="2">
  <advance width="944"/>
  <unicode hex="0054"/>
  <outline>
    <contour>
      <point x="126.94349361630017" y="1207.0000878700175" type="line" smooth="yes"/>
      <point x="66.52836545617794" y="1206.3035773981887"/>
      <point x="20.949439490926686" y="1168.916868956504"/>
      <point x="19.0" y="1115.0" type="curve" smooth="yes"/>
      <point x="20.949439490926686" y="1061.083131043496"/>
      <point x="66.52836545617794" y="1023.6964226018112"/>
      <point x="126.78344367733055" y="1022.9993415225122" type="curve" smooth="yes"/>
      <point x="349.31047154245806" y="1022.9986544055561" type="line" smooth="yes"/>
      <point x="355.4354927023318" y="1026.0186451838215"/>
      <point x="340.5702136314906" y="1008.3966135388024"/>
      <point x="336.9501498950263" y="994.9524610763007" type="curve" smooth="yes"/>
      <point x="336.9500199657033" y="55.017349964181435" type="line" smooth="yes"/>
      <point x="340.4258148326272" y="5.614152275426063"/>
      <point x="396.6021034472331" y="-29.984764763642374"/>
      <point x="470.5321415298674" y="-30.00180816396666" type="curve" smooth="yes"/>
      <point x="473.3678584701326" y="-30.00180816396666" type="line" smooth="yes"/>
      <point x="547.2978965527669" y="-29.98476476364238"/>
      <point x="603.4741851673729" y="5.61415227542607"/>
      <point x="606.9499800342968" y="55.01734996418143" type="curve" smooth="yes"/>
      <point x="606.9498501049737" y="994.9524610763007" type="line" smooth="yes"/>
      <point x="603.3297863685094" y="1008.3966135388024"/>
      <point x="588.4645072976682" y="1026.0186451838215"/>
      <point x="594.589528457542" y="1022.9986544055561" type="curve" smooth="yes"/>
      <point x="817.1165563226696" y="1022.9993415225122" type="line" smooth="yes"/>
      <point x="877.3716345438221" y="1023.6964226018112"/>
      <point x="922.9505605090734" y="1061.083131043496"/>
      <point x="924.9000000000001" y="1115.0" type="curve" smooth="yes"/>
      <point x="922.9505605090734" y="1168.916868956504"/>
      <point x="877.3716345438221" y="1206.3035773981887"/>
      <point x="816.9565063836999" y="1207.0000878700175" type="curve" smooth="yes"/>
    </contour>
  </outline>
</glyph>
<glyph name="U" format="2">
  <advance width="1046"/>
  <unicode hex="0055"/>
  <outline>
    <contour>
      <point x="885.5821415298675" y="1217.0018081639666" type="line" smooth="yes"/>
      <point x="811.6521034472331" y="1216.9847647636425"/>
      <point x="755.4758148326272" y="1181.385847724574"/>
      <point x="752.0000347669903" y="1131.9771050466586" type="curve" smooth="yes"/>
      <point x="752.0000581229666" y="433.0296026099835" type="line" smooth="yes"/>
      <point x="755.0300694928887" y="232.09708684763365"/>
      <point x="686.5886849132056" y="144.74295624634493"/>
      <point x="523.0" y="146.0" type="curve" smooth="yes"/>
      <point x="359.4113150867944" y="144.74295624634493"/>
      <point x="290.96993050711126" y="232.09708684763365"/>
      <point x="293.99994187703334" y="433.0296026099835" type="curve" smooth="yes"/>
      <point x="293.9999652330097" y="1131.9771050466586" type="line" smooth="yes"/>
      <point x="290.52418516737276" y="1181.385847724574"/>
      <point x="234.3478965527669" y="1216.9847647636425"/>
      <point x="160.41785847013256" y="1217.0018081639666" type="curve" smooth="yes"/>
      <point x="157.58214152986744" y="1217.0018081639666" type="line" smooth="yes"/>
      <point x="83.65210344723309" y="1216.9847647636425"/>
      <point x="27.475814832627243" y="1181.385847724574"/>
      <point x="24.000032993630846" y="1131.9776965895278" type="curve" smooth="yes"/>
      <point x="24.000082250169775" y="413.0352147344346" type="line" smooth="yes"/>
      <point x="28.693401511086623" y="120.61820120554388"/>
      <point x="243.12175573668247" y="-41.01652760767674"/>
      <point x="523.0" y="-42.0" type="curve" smooth="yes"/>
      <point x="802.8782442633176" y="-41.01652760767674"/>
      <point x="1017.3065984889134" y="120.61820120554388"/>
      <point x="1021.9999177498303" y="413.0352147344346" type="curve" smooth="yes"/>
      <point x="1021.9999670063692" y="1131.9776965895278" type="line" smooth="yes"/>
      <point x="1018.5241851673728" y="1181.385847724574"/>
      <point x="962.3478965527669" y="1216.9847647636425"/>
      <point x="888.4178584701325" y="1217.0018081639666" type="curve" smooth="yes"/>
    </contour>
  </outline>
</glyph>
<glyph name="V" format="2">
  <advance width="1134"/>
  <unicode hex="0056"/>
  <outline>
    <contour>
      <point x="871.5954912899783" y="1157.959348168813" type="curve" smooth="yes"/>
      <point x="527.3189449650056" y="234.00575595940492" type="line" smooth="yes"/>
      <point x="542.1270831612203" y="240.72278194260574"/>
      <point x="591.5062664548193" y="240.72278194260574"/>
      <point x="606.314404651034" y="234.00575595940492" type="curve" smooth="yes"/>
      <point x="262.03785832606127" y="1157.959348168813" type="line" smooth="yes"/>
      <point x="235.93980731397912" y="1205.3526389713757"/>
      <point x="163.58000169624933" y="1226.9193300171678"/>
      <point x="92.71284177455198" y="1207.9505960331064" type="curve" smooth="yes"/>
      <point x="23.332839187757575" y="1189.1596145337587"/>
      <point x="-16.019887870113262" y="1144.1010790517712"/>
      <point x="4.657471945344277" y="1095.9292510430323" type="curve" smooth="yes"/>
      <point x="403.67958981528085" y="35.96592210788933" type="line" smooth="yes"/>
      <point x="431.2476461830049" y="-15.543706846628304"/>
      <point x="496.3067780747859" y="-41.808187589725115"/>
      <point x="566.8166748080198" y="-42.0" type="curve" smooth="yes"/>
      <point x="637.3265715412537" y="-41.808187589725115"/>
      <point x="702.3857034330347" y="-15.543706846628304"/>
      <point x="729.9537598007587" y="35.96592210788933" type="curve" smooth="yes"/>
      <point x="1128.9758776706954" y="1095.9292510430323" type="line" smooth="yes"/>
      <point x="1149.6532374861529" y="1144.1010790517712"/>
      <point x="1110.300510428282" y="1189.1596145337587"/>
      <point x="1040.9205078414875" y="1207.9505960331064" type="curve" smooth="yes"/>
      <point x="970.0533479197903" y="1226.9193300171678"/>
      <point x="897.6935423020605" y="1205.3526389713757"/>
    </contour>
  </outline>
</glyph>
<glyph name="W" format="2">
  <advance width="1211"/>
  <unicode hex="0057"/>
  <outline>
    <contour>
      <point x="938.9197678081773" y="1141.5044416777914" type="curve" smooth="yes"/>
      <point x="832.9608405438642" y="308.1723379372032" type="line" smooth="yes"/>
      <point x="854.0807761023732" y="309.6801999316233"/>
      <point x="915.4433971368469" y="313.7303125441855"/>
      <point x="927.0875918873403" y="309.96515799561246" type="curve" smooth="yes"/>
      <point x="736.0039802938942" y="851.6125990677019" type="line" smooth="yes"/>
      <point x="717.0918633630714" y="882.1129039169812"/>
      <point x="664.0512244839637" y="904.8258127662327"/>
      <point x="605.436144917063" y="905.0" type="curve" smooth="yes"/>
      <point x="546.8210653501623" y="904.8258127662327"/>
      <point x="493.7804264710545" y="882.1129039169812"/>
      <point x="474.8683095402317" y="851.6125990677019" type="curve" smooth="yes"/>
      <point x="283.7846979467856" y="309.96515799561246" type="line" smooth="yes"/>
      <point x="295.428892697279" y="313.7303125441855"/>
      <point x="356.7915137317528" y="309.6801999316233"/>
      <point x="377.9114492902617" y="308.1723379372032" type="curve" smooth="yes"/>
      <point x="271.95252202594867" y="1141.5044416777914" type="line" smooth="yes"/>
      <point x="260.1766367885052" y="1191.7828839838587"/>
      <point x="197.80368529306477" y="1222.2162168990656"/>
      <point x="123.53788804746434" y="1215.8654004966352" type="curve" smooth="yes"/>
      <point x="50.547765899014756" y="1208.5871762655458"/>
      <point x="-1.8866907956227088" y="1170.2566229957486"/>
      <point x="3.9991007035097965" y="1119.2369328180905" type="curve" smooth="yes"/>
      <point x="153.00849498866458" y="40.28588563510672" type="line" smooth="yes"/>
      <point x="167.81211536269026" y="-14.39795824538275"/>
      <point x="232.96556983328597" y="-41.955056841807526"/>
      <point x="298.4914355921302" y="-42.000031655969586" type="curve" smooth="yes"/>
      <point x="364.820965010605" y="-41.67210878806247"/>
      <point x="429.45865699852396" y="-13.43930203336938"/>
      <point x="454.9852786279744" y="36.36861905387186" type="curve" smooth="yes"/>
      <point x="646.0694044155272" y="577.0075250077836" type="line" smooth="yes"/>
      <point x="630.8122529225234" y="570.7224824831304"/>
      <point x="580.0600369116025" y="570.7224824831304"/>
      <point x="564.8028854185987" y="577.0075250077836" type="curve" smooth="yes"/>
      <point x="755.8870112061516" y="36.36861905387185" type="line" smooth="yes"/>
      <point x="781.413632835602" y="-13.43930203336938"/>
      <point x="846.051324823521" y="-41.67210878806247"/>
      <point x="912.3808542419958" y="-42.000031655969586" type="curve" smooth="yes"/>
      <point x="977.9067200008401" y="-41.95505684180753"/>
      <point x="1043.0601744714356" y="-14.397958245382746"/>
      <point x="1057.8637948454616" y="40.285885635106716" type="curve" smooth="yes"/>
      <point x="1206.873189130616" y="1119.2369328180905" type="line" smooth="yes"/>
      <point x="1212.7589806297487" y="1170.2566229957486"/>
      <point x="1160.3245239351115" y="1208.5871762655458"/>
      <point x="1087.3344017866618" y="1215.8654004966352" type="curve" smooth="yes"/>
      <point x="1013.0686045410613" y="1222.2162168990656"/>
      <point x="950.6956530456207" y="1191.7828839838587"/>
    </contour>
  </outline>
</glyph>
<glyph name="X" format="2">
  <advance width="1065"/>
  <unicode hex="0058"/>
  <outline>
    <contour>
      <point x="778.584960386272" y="1182.99765836356" type="curve" smooth="yes"/>
      <point x="509.51256369645785" y="775.9174648324275" type="line" smooth="yes"/>
      <point x="506.71941562526564" y="780.2747725541798"/>
      <point x="559.7035332001133" y="780.2558036413449"/>
      <point x="556.8265786048648" y="775.8950091551044" type="curve" smooth="yes"/>
      <point x="286.39850497301944" y="1183.032619559727" type="line" smooth="yes"/>
      <point x="241.143218879388" y="1226.8661759681104"/>
      <point x="165.9734773979889" y="1228.8049528832314"/>
      <point x="104.54799329780617" y="1205.261123945449" type="curve" smooth="yes"/>
      <point x="42.04635128866823" y="1182.7347915968662"/>
      <point x="12.52889886380887" y="1131.4362840733368"/>
      <point x="50.04811860957969" y="1086.6154629972207" type="curve" smooth="yes"/>
      <point x="362.064701628113" y="632.9264217049026" type="line" smooth="yes"/>
      <point x="367.98450148839515" y="619.2555154693636"/>
      <point x="367.95928340664796" y="590.3792787795325"/>
      <point x="362.0104612117307" y="576.8245610012555" type="curve" smooth="yes"/>
      <point x="27.318806476701024" y="100.51400156582237" type="line" smooth="yes"/>
      <point x="-9.46354225093048" y="55.51817958638104"/>
      <point x="18.713569171782094" y="4.386280668446954"/>
      <point x="81.5222247270816" y="-18.267563469095307" type="curve" smooth="yes"/>
      <point x="142.3842375214448" y="-41.71363349508073"/>
      <point x="218.06829605337515" y="-40.844081129811144"/>
      <point x="263.2445215510205" y="3.884000102549594" type="curve" smooth="yes"/>
      <point x="553.8772098053956" y="435.5610261952153" type="line" smooth="yes"/>
      <point x="557.8720525389816" y="432.1029667648472"/>
      <point x="503.87152424976443" y="432.15072154275333"/>
      <point x="508.0466882231483" y="435.61421171437377" type="curve" smooth="yes"/>
      <point x="801.9135747334382" y="3.829770254180728" type="line" smooth="yes"/>
      <point x="845.9752798534001" y="-40.84631270767831"/>
      <point x="922.5104741707084" y="-41.74468200434505"/>
      <point x="983.5283355899327" y="-18.26741097272167" type="curve" smooth="yes"/>
      <point x="1046.3588083778639" y="4.426176669079329"/>
      <point x="1075.512529818873" y="56.505337191683964"/>
      <point x="1037.5986692822485" y="100.5788580148775" type="curve" smooth="yes"/>
      <point x="702.0302376185828" y="576.3305783216557" type="line" smooth="yes"/>
      <point x="696.0829183034645" y="589.8427697343237"/>
      <point x="696.0560056528709" y="618.674217015898"/>
      <point x="701.9721730733688" y="632.3139144400211" type="curve" smooth="yes"/>
      <point x="1014.9764952756717" y="1086.602436712379" type="line" smooth="yes"/>
      <point x="1052.5220072725738" y="1131.4379005356948"/>
      <point x="1023.004818410496" y="1182.7347915968662"/>
      <point x="960.5031764013581" y="1205.261123945449" type="curve" smooth="yes"/>
      <point x="899.0776923011754" y="1228.8049528832314"/>
      <point x="823.9010816877953" y="1226.8682103160966"/>
    </contour>
  </outline>
</glyph>
<glyph name="Y" format="2">
  <advance width="894"/>
  <unicode hex="0059"/>
  <outline>
    <contour>
      <point x="673.3963541126011" y="1181.329400327816" type="curve" smooth="yes"/>
      <point x="416.5764250619544" y="697.8814369706769" type="line" smooth="yes"/>
      <point x="424.5834747131218" y="705.8553838031241"/>
      <point x="469.70020075154645" y="705.855941767325"/>
      <point x="477.68106816755494" y="697.8785100850515" type="curve" smooth="yes"/>
      <point x="220.52058857030264" y="1181.3185197618352" type="line" smooth="yes"/>
      <point x="190.19152498505827" y="1217.7064236924034"/>
      <point x="116.13545378507683" y="1228.7100202673582"/>
      <point x="59.708471625984494" y="1204.1851651719935" type="curve" smooth="yes"/>
      <point x="3.9740920054809905" y="1177.571771187028"/>
      <point x="-13.796345833605262" y="1130.041047346387"/>
      <point x="11.67936369379359" y="1086.9923395140236" type="curve" smooth="yes"/>
      <point x="296.7822635710621" y="520.6333694424767" type="line" smooth="yes"/>
      <point x="304.8436041739309" y="500.65852587033135"/>
      <point x="312.5954951794236" y="461.2089042374075"/>
      <point x="311.95001091743137" y="438.7298155622904" type="curve" smooth="yes"/>
      <point x="311.9501026661404" y="55.03934318803692" type="line" smooth="yes"/>
      <point x="315.4258148326273" y="5.614152275426063"/>
      <point x="371.60210344723316" y="-29.984764763642374"/>
      <point x="445.53214152986743" y="-30.00180816396666" type="curve" smooth="yes"/>
      <point x="448.36785847013266" y="-30.00180816396666" type="line" smooth="yes"/>
      <point x="522.2978965527669" y="-29.984764763642374"/>
      <point x="578.4741851673729" y="5.61415227542607"/>
      <point x="581.9498976655586" y="55.039279580769104" type="curve" smooth="yes"/>
      <point x="581.9499890776693" y="439.4404144904513" type="line" smooth="yes"/>
      <point x="581.3032458447178" y="461.91654537747195"/>
      <point x="589.059705445302" y="501.3583061437057"/>
      <point x="597.1251568520543" y="521.3254940185993" type="curve" smooth="yes"/>
      <point x="882.2089231867261" y="1086.9844388784206" type="line" smooth="yes"/>
      <point x="907.6962227480105" y="1130.0417682617106"/>
      <point x="889.925907994519" y="1177.571771187028"/>
      <point x="834.1975725376095" y="1204.187136607672" type="curve" smooth="yes"/>
      <point x="777.9027869964863" y="1228.6777833204133"/>
      <point x="704.4998922028624" y="1217.6978160139488"/>
    </contour>
  </outline>
</glyph>
<glyph name="Z" format="2">
  <advance width="1000"/>
  <unicode hex="005A"/>
  <outline>
    <contour>
      <point x="142.94668890136523" y="1207.0000294297834" type="line" smooth="yes"/>
      <point x="76.52472512275223" y="1206.768566548321"/>
      <point x="22.870761564502036" y="1170.0521289176663"/>
      <point x="20.0" y="1115.0" type="curve" smooth="yes"/>
      <point x="22.870761564502036" y="1059.9478710823337"/>
      <point x="76.52472512275223" y="1023.2314334516791"/>
      <point x="142.9276558599676" y="1022.9999458050398" type="curve" smooth="yes"/>
      <point x="660.6960933834328" y="1022.9996104448164" type="line" smooth="yes"/>
      <point x="695.9973968666884" y="1013.9796762033425"/>
      <point x="675.0357997369192" y="1016.2574888299495"/>
      <point x="631.9203839231628" y="1014.7271996699313" type="curve" smooth="yes"/>
      <point x="18.54314755479268" y="122.32603335116733" type="line" smooth="yes"/>
      <point x="7.19359001004884" y="109.23033432642035"/>
      <point x="-4.788843956706735" y="89.49105179153341"/>
      <point x="-5.999506211066787" y="68.08628294771705" type="curve" smooth="yes"/>
      <point x="-2.8080811380414588" y="14.761029454087577"/>
      <point x="51.95731594517464" y="-19.932847350746663"/>
      <point x="116.95853820910085" y="-20.00001780113666" type="curve" smooth="yes"/>
      <point x="883.0504549992636" y="-20.00002636089561" type="line" smooth="yes"/>
      <point x="949.4752748772478" y="-19.76856654832083"/>
      <point x="1003.1292384354979" y="16.94787108233372"/>
      <point x="1006.0" y="72.0" type="curve" smooth="yes"/>
      <point x="1003.1292384354979" y="127.05212891766627"/>
      <point x="949.4752748772478" y="163.76856654832085"/>
      <point x="883.0672926881987" y="164.00004689081993" type="curve" smooth="yes"/>
      <point x="322.32068022304475" y="164.00033297596693" type="line" smooth="yes"/>
      <point x="287.00405659526257" y="173.02284823852924"/>
      <point x="307.9611167471604" y="170.73125089899077"/>
      <point x="351.0829889041091" y="172.26471734036306" type="curve" smooth="yes"/>
      <point x="967.4476684406666" y="1068.661348842538" type="line" smooth="yes"/>
      <point x="980.2565408217638" y="1081.728431456099"/>
      <point x="987.5797718081626" y="1101.3982721013867"/>
      <point x="987.9980753547313" y="1118.8296572436209" type="curve" smooth="yes"/>
      <point x="984.8080811380415" y="1172.2389705459125"/>
      <point x="930.0426840548254" y="1206.9328473507467"/>
      <point x="865.0438116795309" y="1207.000019876113" type="curve" smooth="yes"/>
    </contour>
  </outline>
</glyph>
<glyph name="bracketleft" format="2">
  <advance width="681"/>
  <unicode hex="005B"/>
  <outline>
    <contour>
      <point x="143.92737613709082" y="1392.0000546148672" type="line" smooth="yes"/>
      <point x="78.95731594517466" y="1391.9328473507467"/>
      <point x="24.191918861958538" y="1357.2389705459125"/>
      <point x="21.000006287879508" y="1303.9902633751146" type="curve" smooth="yes"/>
      <point x="21.000006287879508" y="-264.9902633751146" type="line" smooth="yes"/>
      <point x="24.19191886195854" y="-318.2389705459125"/>
      <point x="78.95731594517466" y="-352.93284735074667"/>
      <point x="143.92737613709082" y="-353.0000546148672" type="curve" smooth="yes"/>
      <point x="558.0882995861888" y="-353.0000807365027" type="line" smooth="yes"/>
      <point x="624.4752748772478" y="-352.7685665483208"/>
      <point x="678.1292384354979" y="-316.05212891766627"/>
      <point x="681.0" y="-261.0" type="curve" smooth="yes"/>
      <point x="678.1292384354979" y="-205.94787108233373"/>
      <point x="624.4752748772478" y="-169.23143345167915"/>
      <point x="558.1239581296891" y="-168.99984088766772" type="curve" smooth="yes"/>
      <point x="278.7104817505712" y="-168.999132006055" type="line" smooth="yes"/>
      <point x="272.51450729766833" y="-172.0186451838215"/>
      <point x="287.3797863685094" y="-154.39661353880243"/>
      <point x="290.99992359252855" y="-140.9660590530991" type="curve" smooth="yes"/>
      <point x="290.99992359252855" y="1179.9660590530991" type="line" smooth="yes"/>
      <point x="287.3797863685094" y="1193.3966135388023"/>
      <point x="272.5145072976684" y="1211.0186451838213"/>
      <point x="278.7104817505712" y="1207.999132006055" type="curve" smooth="yes"/>
      <point x="558.1239581296891" y="1207.9998408876677" type="line" smooth="yes"/>
      <point x="624.4752748772478" y="1208.231433451679"/>
      <point x="678.1292384354979" y="1244.9478710823337"/>
      <point x="681.0" y="1300.0" type="curve" smooth="yes"/>
      <point x="678.1292384354979" y="1355.0521289176663"/>
      <point x="624.4752748772478" y="1391.768566548321"/>
      <point x="558.0882995861888" y="1392.0000807365027" type="curve" smooth="yes"/>
    </contour>
  </outline>
</glyph>
<glyph name="backslash" format="2">
  <advance width="1017"/>
  <unicode hex="005C"/>
  <outline>
    <contour>
      <point x="39.82819548537046" y="1316.3688098043162" type="curve" smooth="yes"/>
      <point x="711.8963023899321" y="-326.5602085705363" type="line" smooth="yes"/>
      <point x="732.9180147250589" y="-353.1012957927861"/>
      <point x="783.6697008175486" y="-374.51236497916324"/>
      <point x="832.4490420446277" y="-375.000012373496" type="curve" smooth="yes"/>
      <point x="914.013935477428" y="-374.6096146168421"/>
      <point x="993.2882260549187" y="-331.45539718038685"/>
      <point x="977.0007532103367" y="-277.36880980431636" type="curve" smooth="yes"/>
      <point x="304.9326463057751" y="1365.5602085705364" type="line" smooth="yes"/>
      <point x="283.9109339706483" y="1392.101295792786"/>
      <point x="233.1592478781586" y="1413.5123649791633"/>
      <point x="184.37990665107947" y="1414.000012373496" type="curve" smooth="yes"/>
      <point x="102.81501321827915" y="1413.6096146168422"/>
      <point x="23.540722640788474" y="1370.4553971803869"/>
    </contour>
  </outline>
</glyph>
<glyph name="bracketright" format="2">
  <advance width="681"/>
  <unicode hex="005D"/>
  <outline>
    <contour>
      <point x="143.87604187031093" y="-168.99984088766772" type="line" smooth="yes"/>
      <point x="77.52472512275223" y="-169.23143345167915"/>
      <point x="23.87076156450204" y="-205.94787108233373"/>
      <point x="21.0" y="-261.0" type="curve" smooth="yes"/>
      <point x="23.87076156450204" y="-316.05212891766627"/>
      <point x="77.52472512275223" y="-352.7685665483208"/>
      <point x="143.91170041381122" y="-353.0000807365027" type="curve" smooth="yes"/>
      <point x="558.0726238629092" y="-353.0000546148672" type="line" smooth="yes"/>
      <point x="623.0426840548254" y="-352.93284735074667"/>
      <point x="677.8080811380415" y="-318.2389705459125"/>
      <point x="680.9999937121205" y="-264.9902633751146" type="curve" smooth="yes"/>
      <point x="680.9999937121205" y="1303.9902633751146" type="line" smooth="yes"/>
      <point x="677.8080811380415" y="1357.2389705459125"/>
      <point x="623.0426840548254" y="1391.9328473507467"/>
      <point x="558.0726238629092" y="1392.0000546148672" type="curve" smooth="yes"/>
      <point x="143.91170041381122" y="1392.0000807365027" type="line" smooth="yes"/>
      <point x="77.52472512275223" y="1391.768566548321"/>
      <point x="23.870761564502036" y="1355.0521289176663"/>
      <point x="21.0" y="1300.0" type="curve" smooth="yes"/>
      <point x="23.870761564502036" y="1244.9478710823337"/>
      <point x="77.52472512275223" y="1208.231433451679"/>
      <point x="143.87604187031093" y="1207.9998408876677" type="curve" smooth="yes"/>
      <point x="423.2895182494288" y="1207.999132006055" type="line" smooth="yes"/>
      <point x="429.485492702332" y="1211.0186451838215"/>
      <point x="414.6202136314906" y="1193.3966135388025"/>
      <point x="411.00007640747145" y="1179.9660590530991" type="curve" smooth="yes"/>
      <point x="411.00007640747145" y="-140.9660590530991" type="line" smooth="yes"/>
      <point x="414.6202136314906" y="-154.39661353880243"/>
      <point x="429.4854927023318" y="-172.0186451838215"/>
      <point x="423.2895182494288" y="-168.999132006055" type="curve" smooth="yes"/>
    </contour>
  </outline>
</glyph>
<glyph name="asciicircum" format="2">
  <advance width="921"/>
  <unicode hex="005E"/>
  <outline>
    <contour>
      <point x="339.5487738071381" y="1181.2441322418922" type="curve" smooth="yes"/>
      <point x="31.424830094327127" y="590.3604674410552" type="line" smooth="yes"/>
      <point x="7.6179230205605" y="544.8349382846794"/>
      <point x="60.46010720689971" y="502.04203097006337"/>
      <point x="111.39904306340026" y="489.93589370771343" type="curve" smooth="yes"/>
      <point x="160.2604769444452" y="477.18429913887405"/>
      <point x="237.48567566329498" y="482.18193630738995"/>
      <point x="277.3547265401032" y="518.2782127723345" type="curve" smooth="yes"/>
      <point x="493.3668602334475" y="955.008150536137" type="line" smooth="yes"/>
      <point x="483.13133037763083" y="946.9899181277248"/>
      <point x="438.3274598022445" y="946.9899181277248"/>
      <point x="428.09192430635596" y="955.0081442629217" type="curve" smooth="yes"/>
      <point x="644.0843197333296" y="518.2970648250902" type="line" smooth="yes"/>
      <point x="684.371459453533" y="481.1219746080542"/>
      <point x="765.3420889413214" y="476.2377111359442"/>
      <point x="816.6184113785721" y="491.25192959783186" type="curve" smooth="yes"/>
      <point x="863.8218705899601" y="504.397749793857"/>
      <point x="912.9675422490687" y="546.0351719748329"/>
      <point x="890.046819902586" y="590.3458640354204" type="curve" smooth="yes"/>
      <point x="581.9100168649588" y="1181.2441327486733" type="line" smooth="yes"/>
      <point x="561.3943867398988" y="1207.362814387083"/>
      <point x="515.4367225439665" y="1228.7478586203586"/>
      <point x="460.7293950899377" y="1229.0" type="curve" smooth="yes"/>
      <point x="406.0220676359089" y="1228.7478586203586"/>
      <point x="360.06440343997673" y="1207.362814387083"/>
    </contour>
  </outline>
</glyph>
<glyph name="underscore" format="2">
  <advance width="1272"/>
  <unicode hex="005F"/>
  <outline>
    <contour>
      <point x="154.95926609810004" y="-228.9999828183987" type="line" smooth="yes"/>
      <point x="88.52472512275223" y="-229.23143345167915"/>
      <point x="34.87076156450204" y="-265.94787108233373"/>
      <point x="32.0" y="-321.0" type="curve" smooth="yes"/>
      <point x="34.87076156450204" y="-376.05212891766627"/>
      <point x="88.52472512275223" y="-412.7685665483208"/>
      <point x="154.95926609810004" y="-413.00001718160127" type="curve" smooth="yes"/>
      <point x="1117.0407339019" y="-413.00001718160127" type="line" smooth="yes"/>
      <point x="1183.4752748772478" y="-412.7685665483208"/>
      <point x="1237.1292384354979" y="-376.05212891766627"/>
      <point x="1240.0" y="-321.0" type="curve" smooth="yes"/>
      <point x="1237.1292384354979" y="-265.94787108233373"/>
      <point x="1183.4752748772478" y="-229.23143345167915"/>
      <point x="1117.0407339019" y="-228.9999828183987" type="curve" smooth="yes"/>
    </contour>
  </outline>
</glyph>
<glyph name="a" format="2">
  <advance width="995"/>
  <unicode hex="0061"/>
  <outline>
    <contour>
      <point x="146.8525041479831" y="872.7356522447534" type="curve" smooth="yes"/>
      <point x="96.7340699351687" y="852.2434638039844"/>
      <point x="67.1886661503053" y="803.6077941871599"/>
      <point x="94.79363814549443" y="752.281922102692" type="curve" smooth="yes"/>
      <point x="127.3712702204786" y="703.3346754635197"/>
      <point x="201.36861137048604" y="683.2004477704539"/>
      <point x="262.0171817831831" y="704.2728741194989" type="curve" smooth="yes"/>
      <point x="352.2860895705189" y="752.2772334174508"/>
      <point x="452.26585309572226" y="781.1984544840229"/>
      <point x="545.080040130634" y="780.9999336611481" type="curve" smooth="yes"/>
      <point x="694.5895197550581" y="781.8575101076606"/>
      <point x="717.8599398432655" y="733.2114986634899"/>
      <point x="715.0018435665924" y="612.8332836952576" type="curve" smooth="yes"/>
      <point x="715.0723016467236" y="564.9523852186724" type="line" smooth="yes"/>
      <point x="751.6767628301237" y="574.3866492236664"/>
      <point x="775.6543476332332" y="575.3517874746223"/>
      <point x="762.4027217795596" y="559.1817681754438" type="curve" smooth="yes"/>
      <point x="695.0994575049687" y="580.4223327983663"/>
      <point x="584.3681927264536" y="598.9282721629204"/>
      <point x="470.95260140855356" y="599.0000232639029" type="curve" smooth="yes"/>
      <point x="238.96686633931478" y="598.6366680759265"/>
      <point x="18.512611785494194" y="503.9602889795207"/>
      <point x="10.000123522653489" y="269.9568451958522" type="curve" smooth="yes"/>
      <point x="16.133982498582196" y="75.61260256469502"/>
      <point x="191.55400576565168" y="-41.196423959041084"/>
      <point x="409.93897432213686" y="-42.000038563564225" type="curve" smooth="yes"/>
      <point x="566.5501161219372" y="-41.604842197634646"/>
      <point x="712.1425743889785" y="16.53236862697105"/>
      <point x="803.0802613858259" y="89.1984478375457" type="curve" smooth="yes"/>
      <point x="794.5162651865471" y="69.00828709227692"/>
      <point x="764.6768638901941" y="81.41448490133749"/>
      <point x="725.1173851516251" y="93.33110413889024" type="curve" smooth="yes"/>
      <point x="725.0014352711918" y="55.147101584200016" type="line" smooth="yes"/>
      <point x="728.0057424220107" y="6.284060565252548"/>
      <point x="781.5049812166213" y="-29.964931236522627"/>
      <point x="853.504646661148" y="-30.002541095276037" type="curve" smooth="yes"/>
      <point x="856.495353338852" y="-30.002541095276037" type="line" smooth="yes"/>
      <point x="928.4950187833787" y="-29.964931236522627"/>
      <point x="981.9942575779893" y="6.284060565252548"/>
      <point x="984.9999663048025" y="55.02253928954199" type="curve" smooth="yes"/>
      <point x="984.9999017669617" y="612.9615155984168" type="line" smooth="yes"/>
      <point x="980.9047747439953" y="838.6600589473418"/>
      <point x="818.0928315457065" y="965.2568588998681"/>
      <point x="549.0799707454163" y="966.0000662238857" type="curve" smooth="yes"/>
      <point x="412.662542640245" y="965.8566764081468"/>
      <point x="266.1660054505403" y="932.7371070827119"/>
    </contour>
    <contour>
      <point x="715.0083701253004" y="330.2257305980904" type="line" smooth="yes"/>
      <point x="716.6520640960764" y="310.63387740108664"/>
      <point x="708.4683739899026" y="278.96725046249605"/>
      <point x="700.3093815523476" y="265.5141437342142" type="curve" smooth="yes"/>
      <point x="641.9047877466705" y="199.39275847958058"/>
      <point x="544.466684726319" y="138.40413661151607"/>
      <point x="415.9549161945114" y="139.0000210471262" type="curve" smooth="yes"/>
      <point x="310.53058717038414" y="137.9534988438825"/>
      <point x="279.1446942336346" y="185.21126898042252"/>
      <point x="283.99831536964695" y="272.8406318118324" type="curve" smooth="yes"/>
      <point x="275.2794866842604" y="382.8708104507873"/>
      <point x="337.2483470080082" y="418.40897455576305"/>
      <point x="471.95279519329404" y="417.999976925933" type="curve" smooth="yes"/>
      <point x="570.4029386503476" y="418.0539101545172"/>
      <point x="670.9982004241665" y="403.01142353773116"/>
      <point x="718.6411857699421" y="386.38465939735664" type="curve" smooth="yes"/>
      <point x="720.8323578812663" y="383.9434371696297"/>
      <point x="718.3050273888274" y="365.0323096453799"/>
      <point x="715.0713086217378" y="351.0045036444672" type="curve" smooth="yes"/>
    </contour>
  </outline>
</glyph>
<glyph name="b" format="2">
  <advance width="1033"/>
  <unicode hex="0062"/>
  <outline>
    <contour>
      <point x="141.58214152986744" y="1342.0018081639666" type="line" smooth="yes"/>
      <point x="67.65210344723309" y="1341.9847647636425"/>
      <point x="11.475814832627243" y="1306.385847724574"/>
      <point x="8.000012510476427" y="1256.9862661205257" type="curve" smooth="yes"/>
      <point x="8.000008001738703" y="55.01098369611636" type="line" smooth="yes"/>
      <point x="11.00574242201072" y="6.28406056525255"/>
      <point x="64.5049812166213" y="-29.964931236522627"/>
      <point x="136.50464666114797" y="-30.002541095276037" type="curve" smooth="yes"/>
      <point x="139.49535333885203" y="-30.002541095276037" type="line" smooth="yes"/>
      <point x="211.4950187833787" y="-29.964931236522627"/>
      <point x="264.9942575779893" y="6.284060565252552"/>
      <point x="267.9989189619538" y="55.12766514257266" type="curve" smooth="yes"/>
      <point x="267.9667476929626" y="108.23217100713376" type="line" smooth="yes"/>
      <point x="235.2704464244977" y="101.67497089943069"/>
      <point x="190.4450535347467" y="91.21291801494061"/>
      <point x="183.8307663896221" y="104.61290620501599" type="curve" smooth="yes"/>
      <point x="252.2393120781757" y="25.588901121340065"/>
      <point x="386.86895817787246" y="-41.396375807749244"/>
      <point x="535.104711341176" y="-42.00011353781955" type="curve" smooth="yes"/>
      <point x="805.7574565667217" y="-40.50447543538893"/>
      <point x="1020.9813297417207" y="153.12309644530055"/>
      <point x="1025.0" y="462.0" type="curve" smooth="yes"/>
      <point x="1020.9813297417207" y="770.8769035546994"/>
      <point x="805.7574565667217" y="964.5044754353889"/>
      <point x="535.1001221868736" y="966.000103803885" type="curve" smooth="yes"/>
      <point x="386.40367185014367" y="965.3552231528903"/>
      <point x="260.0490124704035" y="898.3421917542877"/>
      <point x="200.0451662140455" y="831.3693652486751" type="curve" smooth="yes"/>
      <point x="200.34660523745984" y="840.0132294986399"/>
      <point x="248.8870439258754" y="831.7758076845554"/>
      <point x="277.9993463488432" y="829.0992719715234" type="curve" smooth="yes"/>
      <point x="277.9999152837889" y="1256.9642612574746" type="line" smooth="yes"/>
      <point x="274.52418516737276" y="1306.385847724574"/>
      <point x="218.3478965527669" y="1341.9847647636425"/>
      <point x="144.41785847013256" y="1342.0018081639666" type="curve" smooth="yes"/>
    </contour>
    <contour>
      <point x="751.0" y="462.0" type="curve" smooth="yes"/>
      <point x="753.5195499269097" y="272.3493926011724"/>
      <point x="680.2237541110538" y="143.80937420256572"/>
      <point x="525.0777641455321" y="146.00006261972038" type="curve" smooth="yes"/>
      <point x="369.7876681197592" y="144.40185831018695"/>
      <point x="274.1948437933659" y="257.5600802722847"/>
      <point x="278.0" y="462.0" type="curve" smooth="yes"/>
      <point x="274.1948437933659" y="666.4399197277153"/>
      <point x="369.7876681197592" y="779.598141689813"/>
      <point x="525.0777641455321" y="777.9999373802796" type="curve" smooth="yes"/>
      <point x="680.2237541110538" y="780.1906257974343"/>
      <point x="753.5195499269097" y="651.6506073988277"/>
    </contour>
  </outline>
</glyph>
<glyph name="c" format="2">
  <advance width="1046"/>
  <unicode hex="0063"/>
  <outline>
    <contour>
      <point x="0.0" y="462.0" type="curve" smooth="yes"/>
      <point x="4.283825504669412" y="177.87252556163415"/>
      <point x="226.01257512912997" y="-40.45016226262156"/>
      <point x="541.8693411608571" y="-42.00017677940859" type="curve" smooth="yes"/>
      <point x="703.6321098905986" y="-41.75254381327058"/>
      <point x="872.4248382782336" y="9.076703965020066"/>
      <point x="989.432753398532" y="89.76909387106485" type="curve" smooth="yes"/>
      <point x="1039.2693837554355" y="118.44487437237221"/>
      <point x="1055.7483292736147" y="172.8246229765592"/>
      <point x="1020.4313684132047" y="224.06770052314556" type="curve" smooth="yes"/>
      <point x="971.7069721541029" y="278.7253713392063"/>
      <point x="885.1794269667922" y="275.8233993918323"/>
      <point x="841.4587294214866" y="252.81016656945118" type="curve" smooth="yes"/>
      <point x="755.2492342784673" y="181.78882910583454"/>
      <point x="654.8052155309099" y="145.74340176397737"/>
      <point x="541.7898980245162" y="146.00045710787768" type="curve" smooth="yes"/>
      <point x="370.38528569241447" y="144.21232485748587"/>
      <point x="274.2339277268652" y="274.4890435450027"/>
      <point x="278.0" y="462.0" type="curve" smooth="yes"/>
      <point x="274.2339277268652" y="649.5109564549972"/>
      <point x="370.38528569241447" y="779.7876751425142"/>
      <point x="541.7721529969483" y="777.9994624160136" type="curve" smooth="yes"/>
      <point x="646.3205027981887" y="778.1827320704738"/>
      <point x="736.4175040728813" y="750.8584754114836"/>
      <point x="826.912852572419" y="684.5926345286271" type="curve" smooth="yes"/>
      <point x="871.9821845050795" y="662.7613685396301"/>
      <point x="958.7902095495431" y="663.1574154709944"/>
      <point x="1002.9842676141491" y="719.8354604700007" type="curve" smooth="yes"/>
      <point x="1035.256515502077" y="772.1044786746672"/>
      <point x="1014.6267268208612" y="826.2869596488902"/>
      <point x="962.8165070646224" y="852.837349927719" type="curve" smooth="yes"/>
      <point x="842.409872237336" y="927.2380907700115"/>
      <point x="692.0682475228672" y="965.8297054453085"/>
      <point x="541.8586107679686" y="966.000207008046" type="curve" smooth="yes"/>
      <point x="226.01257512912997" y="964.4501622626216"/>
      <point x="4.283825504669412" y="746.1274744383658"/>
    </contour>
  </outline>
</glyph>
<glyph name="d" format="2">
  <advance width="1033"/>
  <unicode hex="0064"/>
  <outline>
    <contour>
      <point x="888.5821415298675" y="1342.0018081639666" type="line" smooth="yes"/>
      <point x="814.6521034472331" y="1341.9847647636425"/>
      <point x="758.4758148326272" y="1306.385847724574"/>
      <point x="755.0000847162111" y="1256.9642612574746" type="curve" smooth="yes"/>
      <point x="755.0006536511568" y="829.0992719715234" type="line" smooth="yes"/>
      <point x="784.1129560741247" y="831.7758076845554"/>
      <point x="832.6533947625402" y="840.0132294986399"/>
      <point x="832.9548337859544" y="831.3693652486751" type="curve" smooth="yes"/>
      <point x="772.9509875295965" y="898.3421917542877"/>
      <point x="646.5963281498563" y="965.3552231528903"/>
      <point x="497.89987781312635" y="966.000103803885" type="curve" smooth="yes"/>
      <point x="227.24254343327837" y="964.5044754353889"/>
      <point x="12.018670258279204" y="770.8769035546994"/>
      <point x="8.0" y="462.0" type="curve" smooth="yes"/>
      <point x="12.018670258279204" y="153.12309644530055"/>
      <point x="227.24254343327837" y="-40.50447543538893"/>
      <point x="497.895288658824" y="-42.00011353781955" type="curve" smooth="yes"/>
      <point x="646.1310418221276" y="-41.396375807749244"/>
      <point x="780.7606879218243" y="25.588901121340065"/>
      <point x="849.1692336103779" y="104.61290620501597" type="curve" smooth="yes"/>
      <point x="842.5549464652532" y="91.21291801494058"/>
      <point x="797.7295535755023" y="101.67497089943063"/>
      <point x="765.0332523070374" y="108.23217100713376" type="curve" smooth="yes"/>
      <point x="765.0010810380462" y="55.12766514257266" type="line" smooth="yes"/>
      <point x="768.0057424220107" y="6.284060565252548"/>
      <point x="821.5049812166213" y="-29.964931236522627"/>
      <point x="893.504646661148" y="-30.002541095276037" type="curve" smooth="yes"/>
      <point x="896.495353338852" y="-30.002541095276037" type="line" smooth="yes"/>
      <point x="968.4950187833787" y="-29.964931236522627"/>
      <point x="1021.9942575779893" y="6.284060565252548"/>
      <point x="1024.9999919982613" y="55.01098369611636" type="curve" smooth="yes"/>
      <point x="1024.9999874895236" y="1256.9862661205257" type="line" smooth="yes"/>
      <point x="1021.5241851673728" y="1306.385847724574"/>
      <point x="965.3478965527669" y="1341.9847647636425"/>
      <point x="891.4178584701325" y="1342.0018081639666" type="curve" smooth="yes"/>
    </contour>
    <contour>
      <point x="755.0" y="462.0" type="curve" smooth="yes"/>
      <point x="758.8051562066341" y="257.5600802722847"/>
      <point x="663.2123318802409" y="144.40185831018695"/>
      <point x="507.9222358544679" y="146.00006261972038" type="curve" smooth="yes"/>
      <point x="352.77624588894616" y="143.80937420256572"/>
      <point x="279.48045007309025" y="272.3493926011724"/>
      <point x="282.0" y="462.0" type="curve" smooth="yes"/>
      <point x="279.48045007309025" y="651.6506073988277"/>
      <point x="352.77624588894616" y="780.1906257974343"/>
      <point x="507.92223585446783" y="777.9999373802796" type="curve" smooth="yes"/>
      <point x="663.2123318802409" y="779.598141689813"/>
      <point x="758.8051562066341" y="666.4399197277153"/>
    </contour>
  </outline>
</glyph>
<glyph name="e" format="2">
  <advance width="1077"/>
  <unicode hex="0065"/>
  <outline>
    <contour>
      <point x="8.000017182798224" y="461.9839045459391" type="curve" smooth="yes"/>
      <point x="11.29577938048929" y="154.86146538190212"/>
      <point x="208.1816611232378" y="-40.65085656331955"/>
      <point x="522.8758349881359" y="-42.00015964388537" type="curve" smooth="yes"/>
      <point x="685.1718135301376" y="-41.86062961830864"/>
      <point x="851.1322337833169" y="-3.9443344248971357"/>
      <point x="962.2616701060153" y="46.94258340029532" type="curve" smooth="yes"/>
      <point x="1019.8874386628921" y="69.51582930257682"/>
      <point x="1049.9329631946348" y="118.32980822069756"/>
      <point x="1029.374734744598" y="168.90069841487116" type="curve" smooth="yes"/>
      <point x="1003.17971320633" y="219.4006636023422"/>
      <point x="926.1772201279817" y="251.04917217081604"/>
      <point x="853.9221244999837" y="226.22189943028232" type="curve" smooth="yes"/>
      <point x="770.5982651852717" y="174.70526146751067"/>
      <point x="649.7673983999409" y="142.8464020474565"/>
      <point x="522.8577632213156" y="143.00020949729006" type="curve" smooth="yes"/>
      <point x="357.05746749236863" y="141.73270856521268"/>
      <point x="287.1255183663693" y="233.60826502051424"/>
      <point x="284.3124734552909" y="377.9612741621407" type="curve" smooth="yes"/>
      <point x="280.42076919619313" y="390.1248025570635"/>
      <point x="262.14094858403126" y="408.27213131434644"/>
      <point x="269.8729172275446" y="404.99983276495175" type="curve" smooth="yes"/>
      <point x="946.0383035070836" y="404.9999848075205" type="line" smooth="yes"/>
      <point x="1009.5667104261873" y="404.97837752383134"/>
      <point x="1068.3743595796977" y="438.2504235887137"/>
      <point x="1068.90190558728" y="488.175870021515" type="curve" smooth="yes"/>
      <point x="1050.1436101365127" y="759.6808440299236"/>
      <point x="863.9618889927298" y="964.470909516412"/>
      <point x="543.0104075346876" y="966.0000011216235" type="curve" smooth="yes"/>
      <point x="241.07301876059353" y="964.6050853739142"/>
      <point x="12.52592546083152" y="760.3259136070272"/>
    </contour>
    <contour>
      <point x="779.2712768764948" y="608.6834023152437" type="curve" smooth="yes"/>
      <point x="786.1468910658327" y="601.981700120505"/>
      <point x="814.3409775278831" y="581.6294958794823"/>
      <point x="799.1797540615747" y="585.0003345907713" type="curve" smooth="yes"/>
      <point x="279.8168370575541" y="585.0003474017133" type="line" smooth="yes"/>
      <point x="261.50581242225263" y="582.0484740790721"/>
      <point x="291.96558992374077" y="602.8601254350468"/>
      <point x="300.99352231658906" y="607.6016651613941" type="curve" smooth="yes"/>
      <point x="314.21071172516537" y="700.1716434770096"/>
      <point x="394.80238216266605" y="782.0341815238208"/>
      <point x="542.9935621784314" y="780.9999995708301" type="curve" smooth="yes"/>
      <point x="701.78884742247" y="782.0077323156884"/>
      <point x="767.853516721994" y="703.9622634274281"/>
    </contour>
  </outline>
</glyph>
<glyph name="f" format="2">
  <advance width="669"/>
  <unicode hex="0066"/>
  <outline>
    <contour>
      <point x="300.98233589192427" y="1334.6709477925015"/>
      <point x="145.7244997121659" y="1192.662063094701"/>
      <point x="141.93022080610515" y="966.9746583216282" type="curve" smooth="yes"/>
      <point x="141.93019934971414" y="55.01785230244522" type="line" smooth="yes"/>
      <point x="145.40599304375561" y="5.614152275426063"/>
      <point x="201.58228165836144" y="-29.984764763642374"/>
      <point x="275.51231974099574" y="-30.00180816396666" type="curve" smooth="yes"/>
      <point x="278.34803668126096" y="-30.00180816396666" type="line" smooth="yes"/>
      <point x="352.27807476389523" y="-29.984764763642374"/>
      <point x="408.4543633785011" y="5.614152275426063"/>
      <point x="411.93015649255926" y="55.01809555357009" type="curve" smooth="yes"/>
      <point x="411.9301773143059" y="953.9963228648772" type="line" smooth="yes"/>
      <point x="411.56915492630145" y="1087.8800367701206"/>
      <point x="419.0117955413071" y="1155.9735025368009"/>
      <point x="440.4381461122774" y="1150.9206852659577" type="curve" smooth="yes"/>
      <point x="463.9516207695516" y="1151.719236425671"/>
      <point x="480.5590491767514" y="1135.3085925334292"/>
      <point x="513.9190518070956" y="1107.8452051227061" type="curve" smooth="yes"/>
      <point x="577.6802415874791" y="1087.9006968857072"/>
      <point x="635.006045905079" y="1123.4414838665045"/>
      <point x="643.3806454051437" y="1170.8918824685684" type="curve" smooth="yes"/>
      <point x="648.6510894109399" y="1218.8432263384339"/>
      <point x="635.4182266814913" y="1259.7048334213425"/>
      <point x="602.7695370033239" y="1281.4306389820947" type="curve" smooth="yes"/>
      <point x="559.8089218050753" y="1313.598263860418"/>
      <point x="499.8289278098714" y="1336.4912031117728"/>
      <point x="442.7397498744148" y="1337.002210972573" type="curve" smooth="yes"/>
    </contour>
    <contour>
      <point x="112.09713491175323" y="864.0014082662241" type="line" smooth="yes"/>
      <point x="56.26911999054339" y="860.9205358876936"/>
      <point x="24.855966457689558" y="824.7265985941151"/>
      <point x="24.0" y="772.0" type="curve" smooth="yes"/>
      <point x="24.855966457689558" y="719.2734014058849"/>
      <point x="56.26911999054339" y="683.0794641123064"/>
      <point x="112.09713491175323" y="679.9985917337759" type="curve" smooth="yes"/>
      <point x="508.63550647313565" y="679.9985917337759" type="line" smooth="yes"/>
      <point x="564.4635213943454" y="683.0794641123064"/>
      <point x="595.8766749271994" y="719.2734014058849"/>
      <point x="596.7326413848889" y="772.0" type="curve" smooth="yes"/>
      <point x="595.8766749271994" y="824.7265985941151"/>
      <point x="564.4635213943454" y="860.9205358876936"/>
      <point x="508.63550647313565" y="864.0014082662241" type="curve" smooth="yes"/>
    </contour>
  </outline>
</glyph>
<glyph name="g" format="2">
  <advance width="1033"/>
  <unicode hex="0067"/>
  <outline>
    <contour>
      <point x="8.0" y="487.0" type="curve" smooth="yes"/>
      <point x="12.417043379804195" y="192.792241069625"/>
      <point x="228.324827032165" y="9.344094668434096"/>
      <point x="497.9028452280934" y="7.999902258019853" type="curve" smooth="yes"/>
      <point x="645.166682824596" y="8.524838091936095"/>
      <point x="772.3887398622064" y="69.22356984676881"/>
      <point x="832.3122680568786" y="133.76299431827357" type="curve" smooth="yes"/>
      <point x="832.3138235438093" y="124.99623650208568"/>
      <point x="784.1872058971634" y="133.14498316277093"/>
      <point x="755.0047896504335" y="135.73128725432048" type="curve" smooth="yes"/>
      <point x="755.0006525171655" y="-16.900814176112885" type="line" smooth="yes"/>
      <point x="758.2188483392001" y="-156.5534412637134"/>
      <point x="707.0588856296042" y="-243.31645740460775"/>
      <point x="537.1610134015995" y="-241.99973154001708" type="curve" smooth="yes"/>
      <point x="435.25189359091314" y="-242.11153666156446"/>
      <point x="324.758671551002" y="-218.69309644745763"/>
      <point x="227.77020006010815" y="-183.217613583879" type="curve" smooth="yes"/>
      <point x="170.06583676106234" y="-169.8852043392236"/>
      <point x="98.91147481498744" y="-192.54568769710608"/>
      <point x="72.15622493689361" y="-246.65209975474667" type="curve" smooth="yes"/>
      <point x="52.088590972265465" y="-301.29840094563184"/>
      <point x="82.51612087881699" y="-349.0857587976069"/>
      <point x="139.17156385621135" y="-364.8509527988016" type="curve" smooth="yes"/>
      <point x="260.203537428505" y="-407.3760895623447"/>
      <point x="405.94632540644164" y="-429.93137347631426"/>
      <point x="537.1005834999352" y="-430.00010476264526" type="curve" smooth="yes"/>
      <point x="827.2855400772917" y="-429.0897000947801"/>
      <point x="1020.2440622791589" y="-276.3718859485441"/>
      <point x="1024.9999348635788" y="-29.968662233961165" type="curve" smooth="yes"/>
      <point x="1024.9999861020785" y="868.9855245782007" type="line" smooth="yes"/>
      <point x="1021.9942575779893" y="917.7159394347474"/>
      <point x="968.4950187833787" y="953.9649312365226"/>
      <point x="896.495353338852" y="954.002541095276" type="curve" smooth="yes"/>
      <point x="893.504646661148" y="954.002541095276" type="line" smooth="yes"/>
      <point x="821.5049812166213" y="953.9649312365226"/>
      <point x="768.0057424220107" y="917.7159394347474"/>
      <point x="765.0010810380462" y="868.8723348574273" type="curve" smooth="yes"/>
      <point x="765.0332523070374" y="815.7678289928662" type="line" smooth="yes"/>
      <point x="797.7295535755025" y="822.3250291005694"/>
      <point x="842.5549464652531" y="832.7870819850594"/>
      <point x="849.1692336103779" y="819.387093794984" type="curve" smooth="yes"/>
      <point x="780.7606879218243" y="898.4110988786599"/>
      <point x="646.1310418221276" y="965.3963758077492"/>
      <point x="497.9118059748239" y="966.0000805435786" type="curve" smooth="yes"/>
      <point x="228.324827032165" y="964.6559053315659"/>
      <point x="12.417043379804191" y="781.207758930375"/>
    </contour>
    <contour>
      <point x="755.0" y="487.0" type="curve" smooth="yes"/>
      <point x="759.3773228694994" y="298.06748647976406"/>
      <point x="664.8430010890476" y="194.60981160322723"/>
      <point x="507.92789697038" y="196.00005383431676" type="curve" smooth="yes"/>
      <point x="351.16026679237314" y="194.0499016196125"/>
      <point x="279.0911002051943" y="312.80681544571445"/>
      <point x="282.0" y="487.0" type="curve" smooth="yes"/>
      <point x="279.0911002051943" y="661.1931845542855"/>
      <point x="351.16026679237314" y="779.9500983803875"/>
      <point x="507.92789697038" y="777.9999461656832" type="curve" smooth="yes"/>
      <point x="664.8430010890476" y="779.3901883967728"/>
      <point x="759.3773228694994" y="675.932513520236"/>
    </contour>
  </outline>
</glyph>
<glyph name="h" format="2">
  <advance width="994"/>
  <unicode hex="0068"/>
  <outline>
    <contour>
      <point x="149.58214152986744" y="1342.0018081639666" type="line" smooth="yes"/>
      <point x="75.65210344723309" y="1341.9847647636425"/>
      <point x="19.475814832627243" y="1306.385847724574"/>
      <point x="16.000012510476427" y="1256.9862661205257" type="curve" smooth="yes"/>
      <point x="16.000012510476427" y="55.01373387947429" type="line" smooth="yes"/>
      <point x="19.475814832627247" y="5.614152275426063"/>
      <point x="75.65210344723309" y="-29.984764763642374"/>
      <point x="149.5821415298674" y="-30.00180816396666" type="curve" smooth="yes"/>
      <point x="152.4178584701326" y="-30.00180816396666" type="line" smooth="yes"/>
      <point x="226.3478965527669" y="-29.984764763642374"/>
      <point x="282.52418516737276" y="5.614152275426063"/>
      <point x="285.99987139533846" y="55.04403359846898" type="curve" smooth="yes"/>
      <point x="285.9995674881045" y="391.91924794529103" type="line" smooth="yes"/>
      <point x="280.5080788974637" y="611.4267181539104"/>
      <point x="441.34058227317814" y="780.1382168762464"/>
      <point x="585.9259865980887" y="777.9999432752022" type="curve" smooth="yes"/>
      <point x="692.9038259966221" y="779.9414779995112"/>
      <point x="709.7199814420937" y="713.7456960442836"/>
      <point x="708.0000445046933" y="604.9740964623471" type="curve" smooth="yes"/>
      <point x="708.0000539979903" y="55.02853283549295" type="line" smooth="yes"/>
      <point x="711.4758148326272" y="5.61415227542607"/>
      <point x="767.6521034472331" y="-29.984764763642374"/>
      <point x="841.5821415298674" y="-30.00180816396666" type="curve" smooth="yes"/>
      <point x="844.4178584701326" y="-30.00180816396666" type="line" smooth="yes"/>
      <point x="918.3478965527669" y="-29.984764763642374"/>
      <point x="974.5241851673728" y="5.61415227542607"/>
      <point x="977.9999485828977" y="55.02784260997895" type="curve" smooth="yes"/>
      <point x="977.9999241170035" y="619.9661757419645" type="line" smooth="yes"/>
      <point x="974.4617099722287" y="826.2085460034907"/>
      <point x="827.7564013515785" y="964.717466112845"/>
      <point x="601.0554634921511" y="966.0000318541674" type="curve" smooth="yes"/>
      <point x="447.5440015606935" y="965.0553611431648"/>
      <point x="278.6004362505175" y="870.0008498951579"/>
      <point x="203.26733252312602" y="771.0740758248121" type="curve" smooth="yes"/>
      <point x="205.54290932038973" y="778.8158606999328"/>
      <point x="257.6160731567131" y="770.0617274428166"/>
      <point x="285.99959485474363" y="768.0781555901619" type="curve" smooth="yes"/>
      <point x="285.9999332150919" y="1256.96826816064" type="line" smooth="yes"/>
      <point x="282.52418516737276" y="1306.385847724574"/>
      <point x="226.3478965527669" y="1341.9847647636425"/>
      <point x="152.41785847013256" y="1342.0018081639666" type="curve" smooth="yes"/>
    </contour>
  </outline>
</glyph>
<glyph name="k" format="2">
  <advance width="972"/>
  <unicode hex="006B"/>
  <outline>
    <contour>
      <point x="701.1512341587783" y="938.9108302611404" type="curve" smooth="yes"/>
      <point x="207.81494666098044" y="499.5637877421236" type="line" smooth="yes"/>
      <point x="200.7635611566815" y="509.8230258470487"/>
      <point x="242.38079487066784" y="504.6673970932377"/>
      <point x="271.9996939650646" y="500.71535713061235" type="curve" smooth="yes"/>
      <point x="271.9999699740545" y="1256.9787232848153" type="line" smooth="yes"/>
      <point x="268.52418516737276" y="1306.385847724574"/>
      <point x="212.3478965527669" y="1341.9847647636425"/>
      <point x="138.41785847013256" y="1342.0018081639666" type="curve" smooth="yes"/>
      <point x="135.58214152986744" y="1342.0018081639666" type="line" smooth="yes"/>
      <point x="61.65210344723309" y="1341.9847647636425"/>
      <point x="5.475814832627243" y="1306.385847724574"/>
      <point x="2.0000125104764273" y="1256.9862661205257" type="curve" smooth="yes"/>
      <point x="2.0000125104764273" y="55.01373387947429" type="line" smooth="yes"/>
      <point x="5.475814832627247" y="5.614152275426063"/>
      <point x="61.65210344723309" y="-29.984764763642374"/>
      <point x="135.5821415298674" y="-30.00180816396666" type="curve" smooth="yes"/>
      <point x="138.4178584701326" y="-30.00180816396666" type="line" smooth="yes"/>
      <point x="212.3478965527669" y="-29.984764763642374"/>
      <point x="268.52418516737276" y="5.614152275426063"/>
      <point x="271.99955440226273" y="55.081964536466614" type="curve" smooth="yes"/>
      <point x="271.9994000292153" y="210.46128807780178" type="line" smooth="yes"/>
      <point x="270.02175151086504" y="230.61999262507354"/>
      <point x="278.73092623178235" y="262.5430865335108"/>
      <point x="287.5272832727085" y="275.3108659549108" type="curve" smooth="yes"/>
      <point x="396.3866819449572" y="370.34075893484345" type="line" smooth="yes"/>
      <point x="398.2134325823183" y="381.78492432330853"/>
      <point x="378.7494459118269" y="380.3792086399417"/>
      <point x="380.08499265738095" y="368.1963156119255" type="curve" smooth="yes"/>
      <point x="723.6058020806349" y="-10.376162169256077" type="line" smooth="yes"/>
      <point x="768.3485058282434" y="-41.645552529638394"/>
      <point x="840.1694929800439" y="-40.290190589546626"/>
      <point x="898.0118291633303" y="-12.411378599965598" type="curve" smooth="yes"/>
      <point x="963.2042941501828" y="17.49314987005922"/>
      <point x="977.422232145678" y="71.23638594610026"/>
      <point x="934.3451033642649" y="108.52514389295203" type="curve" smooth="yes"/>
      <point x="581.4951780524261" y="494.25084583736765" type="line" smooth="yes"/>
      <point x="574.2781967906843" y="501.79761338098643"/>
      <point x="573.0257106630797" y="526.6979116197556"/>
      <point x="580.4567083272327" y="533.0044137220578" type="curve" smooth="yes"/>
      <point x="904.7133346620773" y="817.9008433240825" type="line" smooth="yes"/>
      <point x="956.6129677869122" y="853.5087875337355"/>
      <point x="937.5590698565906" y="911.1310213580871"/>
      <point x="874.7480834783831" y="941.1995461884817" type="curve" smooth="yes"/>
      <point x="816.9107884582359" y="968.06158892789"/>
      <point x="744.5556258360818" y="964.2391515012793"/>
    </contour>
  </outline>
</glyph>
